G04 #@! TF.GenerationSoftware,KiCad,Pcbnew,(6.0.7-1)-1*
G04 #@! TF.CreationDate,2023-01-06T15:11:33+01:00*
G04 #@! TF.ProjectId,ESC-power-epc,4553432d-706f-4776-9572-2d6570632e6b,rev?*
G04 #@! TF.SameCoordinates,Original*
G04 #@! TF.FileFunction,Legend,Bot*
G04 #@! TF.FilePolarity,Positive*
%FSLAX46Y46*%
G04 Gerber Fmt 4.6, Leading zero omitted, Abs format (unit mm)*
G04 Created by KiCad (PCBNEW (6.0.7-1)-1) date 2023-01-06 15:11:33*
%MOMM*%
%LPD*%
G01*
G04 APERTURE LIST*
G04 Aperture macros list*
%AMRoundRect*
0 Rectangle with rounded corners*
0 $1 Rounding radius*
0 $2 $3 $4 $5 $6 $7 $8 $9 X,Y pos of 4 corners*
0 Add a 4 corners polygon primitive as box body*
4,1,4,$2,$3,$4,$5,$6,$7,$8,$9,$2,$3,0*
0 Add four circle primitives for the rounded corners*
1,1,$1+$1,$2,$3*
1,1,$1+$1,$4,$5*
1,1,$1+$1,$6,$7*
1,1,$1+$1,$8,$9*
0 Add four rect primitives between the rounded corners*
20,1,$1+$1,$2,$3,$4,$5,0*
20,1,$1+$1,$4,$5,$6,$7,0*
20,1,$1+$1,$6,$7,$8,$9,0*
20,1,$1+$1,$8,$9,$2,$3,0*%
G04 Aperture macros list end*
%ADD10C,0.150000*%
%ADD11C,0.120000*%
%ADD12R,2.400000X2.400000*%
%ADD13C,2.400000*%
%ADD14C,1.500000*%
%ADD15RoundRect,0.249999X-1.300001X-1.300001X1.300001X-1.300001X1.300001X1.300001X-1.300001X1.300001X0*%
%ADD16C,3.200000*%
%ADD17R,1.700000X1.700000*%
%ADD18O,1.700000X1.700000*%
%ADD19RoundRect,0.249999X1.300001X1.300001X-1.300001X1.300001X-1.300001X-1.300001X1.300001X-1.300001X0*%
%ADD20RoundRect,0.250000X0.250000X0.475000X-0.250000X0.475000X-0.250000X-0.475000X0.250000X-0.475000X0*%
%ADD21RoundRect,0.250000X0.475000X-0.250000X0.475000X0.250000X-0.475000X0.250000X-0.475000X-0.250000X0*%
G04 APERTURE END LIST*
D10*
X117019047Y-109852380D02*
X117019047Y-110566666D01*
X117066666Y-110709523D01*
X117161904Y-110804761D01*
X117304761Y-110852380D01*
X117400000Y-110852380D01*
X116066666Y-110852380D02*
X116542857Y-110852380D01*
X116542857Y-109852380D01*
X115161904Y-110757142D02*
X115209523Y-110804761D01*
X115352380Y-110852380D01*
X115447619Y-110852380D01*
X115590476Y-110804761D01*
X115685714Y-110709523D01*
X115733333Y-110614285D01*
X115780952Y-110423809D01*
X115780952Y-110280952D01*
X115733333Y-110090476D01*
X115685714Y-109995238D01*
X115590476Y-109900000D01*
X115447619Y-109852380D01*
X115352380Y-109852380D01*
X115209523Y-109900000D01*
X115161904Y-109947619D01*
X114447619Y-109852380D02*
X114447619Y-110566666D01*
X114495238Y-110709523D01*
X114590476Y-110804761D01*
X114733333Y-110852380D01*
X114828571Y-110852380D01*
X113495238Y-110852380D02*
X113971428Y-110852380D01*
X113971428Y-109852380D01*
X112590476Y-110757142D02*
X112638095Y-110804761D01*
X112780952Y-110852380D01*
X112876190Y-110852380D01*
X113019047Y-110804761D01*
X113114285Y-110709523D01*
X113161904Y-110614285D01*
X113209523Y-110423809D01*
X113209523Y-110280952D01*
X113161904Y-110090476D01*
X113114285Y-109995238D01*
X113019047Y-109900000D01*
X112876190Y-109852380D01*
X112780952Y-109852380D01*
X112638095Y-109900000D01*
X112590476Y-109947619D01*
X111876190Y-109852380D02*
X111876190Y-110566666D01*
X111923809Y-110709523D01*
X112019047Y-110804761D01*
X112161904Y-110852380D01*
X112257142Y-110852380D01*
X110923809Y-110852380D02*
X111400000Y-110852380D01*
X111400000Y-109852380D01*
X110019047Y-110757142D02*
X110066666Y-110804761D01*
X110209523Y-110852380D01*
X110304761Y-110852380D01*
X110447619Y-110804761D01*
X110542857Y-110709523D01*
X110590476Y-110614285D01*
X110638095Y-110423809D01*
X110638095Y-110280952D01*
X110590476Y-110090476D01*
X110542857Y-109995238D01*
X110447619Y-109900000D01*
X110304761Y-109852380D01*
X110209523Y-109852380D01*
X110066666Y-109900000D01*
X110019047Y-109947619D01*
X109304761Y-109852380D02*
X109304761Y-110566666D01*
X109352380Y-110709523D01*
X109447619Y-110804761D01*
X109590476Y-110852380D01*
X109685714Y-110852380D01*
X108352380Y-110852380D02*
X108828571Y-110852380D01*
X108828571Y-109852380D01*
X107447619Y-110757142D02*
X107495238Y-110804761D01*
X107638095Y-110852380D01*
X107733333Y-110852380D01*
X107876190Y-110804761D01*
X107971428Y-110709523D01*
X108019047Y-110614285D01*
X108066666Y-110423809D01*
X108066666Y-110280952D01*
X108019047Y-110090476D01*
X107971428Y-109995238D01*
X107876190Y-109900000D01*
X107733333Y-109852380D01*
X107638095Y-109852380D01*
X107495238Y-109900000D01*
X107447619Y-109947619D01*
X93892857Y-64357142D02*
X93940476Y-64404761D01*
X94083333Y-64452380D01*
X94178571Y-64452380D01*
X94321428Y-64404761D01*
X94416666Y-64309523D01*
X94464285Y-64214285D01*
X94511904Y-64023809D01*
X94511904Y-63880952D01*
X94464285Y-63690476D01*
X94416666Y-63595238D01*
X94321428Y-63500000D01*
X94178571Y-63452380D01*
X94083333Y-63452380D01*
X93940476Y-63500000D01*
X93892857Y-63547619D01*
X93511904Y-63547619D02*
X93464285Y-63500000D01*
X93369047Y-63452380D01*
X93130952Y-63452380D01*
X93035714Y-63500000D01*
X92988095Y-63547619D01*
X92940476Y-63642857D01*
X92940476Y-63738095D01*
X92988095Y-63880952D01*
X93559523Y-64452380D01*
X92940476Y-64452380D01*
X92035714Y-63452380D02*
X92511904Y-63452380D01*
X92559523Y-63928571D01*
X92511904Y-63880952D01*
X92416666Y-63833333D01*
X92178571Y-63833333D01*
X92083333Y-63880952D01*
X92035714Y-63928571D01*
X91988095Y-64023809D01*
X91988095Y-64261904D01*
X92035714Y-64357142D01*
X92083333Y-64404761D01*
X92178571Y-64452380D01*
X92416666Y-64452380D01*
X92511904Y-64404761D01*
X92559523Y-64357142D01*
X113442857Y-76307142D02*
X113490476Y-76354761D01*
X113633333Y-76402380D01*
X113728571Y-76402380D01*
X113871428Y-76354761D01*
X113966666Y-76259523D01*
X114014285Y-76164285D01*
X114061904Y-75973809D01*
X114061904Y-75830952D01*
X114014285Y-75640476D01*
X113966666Y-75545238D01*
X113871428Y-75450000D01*
X113728571Y-75402380D01*
X113633333Y-75402380D01*
X113490476Y-75450000D01*
X113442857Y-75497619D01*
X112585714Y-75735714D02*
X112585714Y-76402380D01*
X112823809Y-75354761D02*
X113061904Y-76069047D01*
X112442857Y-76069047D01*
X111585714Y-75402380D02*
X112061904Y-75402380D01*
X112109523Y-75878571D01*
X112061904Y-75830952D01*
X111966666Y-75783333D01*
X111728571Y-75783333D01*
X111633333Y-75830952D01*
X111585714Y-75878571D01*
X111538095Y-75973809D01*
X111538095Y-76211904D01*
X111585714Y-76307142D01*
X111633333Y-76354761D01*
X111728571Y-76402380D01*
X111966666Y-76402380D01*
X112061904Y-76354761D01*
X112109523Y-76307142D01*
X113442857Y-62307142D02*
X113490476Y-62354761D01*
X113633333Y-62402380D01*
X113728571Y-62402380D01*
X113871428Y-62354761D01*
X113966666Y-62259523D01*
X114014285Y-62164285D01*
X114061904Y-61973809D01*
X114061904Y-61830952D01*
X114014285Y-61640476D01*
X113966666Y-61545238D01*
X113871428Y-61450000D01*
X113728571Y-61402380D01*
X113633333Y-61402380D01*
X113490476Y-61450000D01*
X113442857Y-61497619D01*
X113109523Y-61402380D02*
X112490476Y-61402380D01*
X112823809Y-61783333D01*
X112680952Y-61783333D01*
X112585714Y-61830952D01*
X112538095Y-61878571D01*
X112490476Y-61973809D01*
X112490476Y-62211904D01*
X112538095Y-62307142D01*
X112585714Y-62354761D01*
X112680952Y-62402380D01*
X112966666Y-62402380D01*
X113061904Y-62354761D01*
X113109523Y-62307142D01*
X111919047Y-61830952D02*
X112014285Y-61783333D01*
X112061904Y-61735714D01*
X112109523Y-61640476D01*
X112109523Y-61592857D01*
X112061904Y-61497619D01*
X112014285Y-61450000D01*
X111919047Y-61402380D01*
X111728571Y-61402380D01*
X111633333Y-61450000D01*
X111585714Y-61497619D01*
X111538095Y-61592857D01*
X111538095Y-61640476D01*
X111585714Y-61735714D01*
X111633333Y-61783333D01*
X111728571Y-61830952D01*
X111919047Y-61830952D01*
X112014285Y-61878571D01*
X112061904Y-61926190D01*
X112109523Y-62021428D01*
X112109523Y-62211904D01*
X112061904Y-62307142D01*
X112014285Y-62354761D01*
X111919047Y-62402380D01*
X111728571Y-62402380D01*
X111633333Y-62354761D01*
X111585714Y-62307142D01*
X111538095Y-62211904D01*
X111538095Y-62021428D01*
X111585714Y-61926190D01*
X111633333Y-61878571D01*
X111728571Y-61830952D01*
X113442857Y-74307142D02*
X113490476Y-74354761D01*
X113633333Y-74402380D01*
X113728571Y-74402380D01*
X113871428Y-74354761D01*
X113966666Y-74259523D01*
X114014285Y-74164285D01*
X114061904Y-73973809D01*
X114061904Y-73830952D01*
X114014285Y-73640476D01*
X113966666Y-73545238D01*
X113871428Y-73450000D01*
X113728571Y-73402380D01*
X113633333Y-73402380D01*
X113490476Y-73450000D01*
X113442857Y-73497619D01*
X112585714Y-73735714D02*
X112585714Y-74402380D01*
X112823809Y-73354761D02*
X113061904Y-74069047D01*
X112442857Y-74069047D01*
X111633333Y-73735714D02*
X111633333Y-74402380D01*
X111871428Y-73354761D02*
X112109523Y-74069047D01*
X111490476Y-74069047D01*
X74542857Y-66257142D02*
X74590476Y-66304761D01*
X74733333Y-66352380D01*
X74828571Y-66352380D01*
X74971428Y-66304761D01*
X75066666Y-66209523D01*
X75114285Y-66114285D01*
X75161904Y-65923809D01*
X75161904Y-65780952D01*
X75114285Y-65590476D01*
X75066666Y-65495238D01*
X74971428Y-65400000D01*
X74828571Y-65352380D01*
X74733333Y-65352380D01*
X74590476Y-65400000D01*
X74542857Y-65447619D01*
X73638095Y-65352380D02*
X74114285Y-65352380D01*
X74161904Y-65828571D01*
X74114285Y-65780952D01*
X74019047Y-65733333D01*
X73780952Y-65733333D01*
X73685714Y-65780952D01*
X73638095Y-65828571D01*
X73590476Y-65923809D01*
X73590476Y-66161904D01*
X73638095Y-66257142D01*
X73685714Y-66304761D01*
X73780952Y-66352380D01*
X74019047Y-66352380D01*
X74114285Y-66304761D01*
X74161904Y-66257142D01*
X72685714Y-65352380D02*
X73161904Y-65352380D01*
X73209523Y-65828571D01*
X73161904Y-65780952D01*
X73066666Y-65733333D01*
X72828571Y-65733333D01*
X72733333Y-65780952D01*
X72685714Y-65828571D01*
X72638095Y-65923809D01*
X72638095Y-66161904D01*
X72685714Y-66257142D01*
X72733333Y-66304761D01*
X72828571Y-66352380D01*
X73066666Y-66352380D01*
X73161904Y-66304761D01*
X73209523Y-66257142D01*
X77287142Y-79333333D02*
X77334761Y-79285714D01*
X77382380Y-79142857D01*
X77382380Y-79047619D01*
X77334761Y-78904761D01*
X77239523Y-78809523D01*
X77144285Y-78761904D01*
X76953809Y-78714285D01*
X76810952Y-78714285D01*
X76620476Y-78761904D01*
X76525238Y-78809523D01*
X76430000Y-78904761D01*
X76382380Y-79047619D01*
X76382380Y-79142857D01*
X76430000Y-79285714D01*
X76477619Y-79333333D01*
X76382380Y-79666666D02*
X76382380Y-80285714D01*
X76763333Y-79952380D01*
X76763333Y-80095238D01*
X76810952Y-80190476D01*
X76858571Y-80238095D01*
X76953809Y-80285714D01*
X77191904Y-80285714D01*
X77287142Y-80238095D01*
X77334761Y-80190476D01*
X77382380Y-80095238D01*
X77382380Y-79809523D01*
X77334761Y-79714285D01*
X77287142Y-79666666D01*
X74542857Y-64257142D02*
X74590476Y-64304761D01*
X74733333Y-64352380D01*
X74828571Y-64352380D01*
X74971428Y-64304761D01*
X75066666Y-64209523D01*
X75114285Y-64114285D01*
X75161904Y-63923809D01*
X75161904Y-63780952D01*
X75114285Y-63590476D01*
X75066666Y-63495238D01*
X74971428Y-63400000D01*
X74828571Y-63352380D01*
X74733333Y-63352380D01*
X74590476Y-63400000D01*
X74542857Y-63447619D01*
X73638095Y-63352380D02*
X74114285Y-63352380D01*
X74161904Y-63828571D01*
X74114285Y-63780952D01*
X74019047Y-63733333D01*
X73780952Y-63733333D01*
X73685714Y-63780952D01*
X73638095Y-63828571D01*
X73590476Y-63923809D01*
X73590476Y-64161904D01*
X73638095Y-64257142D01*
X73685714Y-64304761D01*
X73780952Y-64352380D01*
X74019047Y-64352380D01*
X74114285Y-64304761D01*
X74161904Y-64257142D01*
X72733333Y-63685714D02*
X72733333Y-64352380D01*
X72971428Y-63304761D02*
X73209523Y-64019047D01*
X72590476Y-64019047D01*
X74542857Y-68257142D02*
X74590476Y-68304761D01*
X74733333Y-68352380D01*
X74828571Y-68352380D01*
X74971428Y-68304761D01*
X75066666Y-68209523D01*
X75114285Y-68114285D01*
X75161904Y-67923809D01*
X75161904Y-67780952D01*
X75114285Y-67590476D01*
X75066666Y-67495238D01*
X74971428Y-67400000D01*
X74828571Y-67352380D01*
X74733333Y-67352380D01*
X74590476Y-67400000D01*
X74542857Y-67447619D01*
X73638095Y-67352380D02*
X74114285Y-67352380D01*
X74161904Y-67828571D01*
X74114285Y-67780952D01*
X74019047Y-67733333D01*
X73780952Y-67733333D01*
X73685714Y-67780952D01*
X73638095Y-67828571D01*
X73590476Y-67923809D01*
X73590476Y-68161904D01*
X73638095Y-68257142D01*
X73685714Y-68304761D01*
X73780952Y-68352380D01*
X74019047Y-68352380D01*
X74114285Y-68304761D01*
X74161904Y-68257142D01*
X72733333Y-67352380D02*
X72923809Y-67352380D01*
X73019047Y-67400000D01*
X73066666Y-67447619D01*
X73161904Y-67590476D01*
X73209523Y-67780952D01*
X73209523Y-68161904D01*
X73161904Y-68257142D01*
X73114285Y-68304761D01*
X73019047Y-68352380D01*
X72828571Y-68352380D01*
X72733333Y-68304761D01*
X72685714Y-68257142D01*
X72638095Y-68161904D01*
X72638095Y-67923809D01*
X72685714Y-67828571D01*
X72733333Y-67780952D01*
X72828571Y-67733333D01*
X73019047Y-67733333D01*
X73114285Y-67780952D01*
X73161904Y-67828571D01*
X73209523Y-67923809D01*
X93892857Y-76357142D02*
X93940476Y-76404761D01*
X94083333Y-76452380D01*
X94178571Y-76452380D01*
X94321428Y-76404761D01*
X94416666Y-76309523D01*
X94464285Y-76214285D01*
X94511904Y-76023809D01*
X94511904Y-75880952D01*
X94464285Y-75690476D01*
X94416666Y-75595238D01*
X94321428Y-75500000D01*
X94178571Y-75452380D01*
X94083333Y-75452380D01*
X93940476Y-75500000D01*
X93892857Y-75547619D01*
X93559523Y-75452380D02*
X92940476Y-75452380D01*
X93273809Y-75833333D01*
X93130952Y-75833333D01*
X93035714Y-75880952D01*
X92988095Y-75928571D01*
X92940476Y-76023809D01*
X92940476Y-76261904D01*
X92988095Y-76357142D01*
X93035714Y-76404761D01*
X93130952Y-76452380D01*
X93416666Y-76452380D01*
X93511904Y-76404761D01*
X93559523Y-76357142D01*
X91988095Y-76452380D02*
X92559523Y-76452380D01*
X92273809Y-76452380D02*
X92273809Y-75452380D01*
X92369047Y-75595238D01*
X92464285Y-75690476D01*
X92559523Y-75738095D01*
X74542857Y-72257142D02*
X74590476Y-72304761D01*
X74733333Y-72352380D01*
X74828571Y-72352380D01*
X74971428Y-72304761D01*
X75066666Y-72209523D01*
X75114285Y-72114285D01*
X75161904Y-71923809D01*
X75161904Y-71780952D01*
X75114285Y-71590476D01*
X75066666Y-71495238D01*
X74971428Y-71400000D01*
X74828571Y-71352380D01*
X74733333Y-71352380D01*
X74590476Y-71400000D01*
X74542857Y-71447619D01*
X73638095Y-71352380D02*
X74114285Y-71352380D01*
X74161904Y-71828571D01*
X74114285Y-71780952D01*
X74019047Y-71733333D01*
X73780952Y-71733333D01*
X73685714Y-71780952D01*
X73638095Y-71828571D01*
X73590476Y-71923809D01*
X73590476Y-72161904D01*
X73638095Y-72257142D01*
X73685714Y-72304761D01*
X73780952Y-72352380D01*
X74019047Y-72352380D01*
X74114285Y-72304761D01*
X74161904Y-72257142D01*
X73019047Y-71780952D02*
X73114285Y-71733333D01*
X73161904Y-71685714D01*
X73209523Y-71590476D01*
X73209523Y-71542857D01*
X73161904Y-71447619D01*
X73114285Y-71400000D01*
X73019047Y-71352380D01*
X72828571Y-71352380D01*
X72733333Y-71400000D01*
X72685714Y-71447619D01*
X72638095Y-71542857D01*
X72638095Y-71590476D01*
X72685714Y-71685714D01*
X72733333Y-71733333D01*
X72828571Y-71780952D01*
X73019047Y-71780952D01*
X73114285Y-71828571D01*
X73161904Y-71876190D01*
X73209523Y-71971428D01*
X73209523Y-72161904D01*
X73161904Y-72257142D01*
X73114285Y-72304761D01*
X73019047Y-72352380D01*
X72828571Y-72352380D01*
X72733333Y-72304761D01*
X72685714Y-72257142D01*
X72638095Y-72161904D01*
X72638095Y-71971428D01*
X72685714Y-71876190D01*
X72733333Y-71828571D01*
X72828571Y-71780952D01*
X74542857Y-74257142D02*
X74590476Y-74304761D01*
X74733333Y-74352380D01*
X74828571Y-74352380D01*
X74971428Y-74304761D01*
X75066666Y-74209523D01*
X75114285Y-74114285D01*
X75161904Y-73923809D01*
X75161904Y-73780952D01*
X75114285Y-73590476D01*
X75066666Y-73495238D01*
X74971428Y-73400000D01*
X74828571Y-73352380D01*
X74733333Y-73352380D01*
X74590476Y-73400000D01*
X74542857Y-73447619D01*
X73638095Y-73352380D02*
X74114285Y-73352380D01*
X74161904Y-73828571D01*
X74114285Y-73780952D01*
X74019047Y-73733333D01*
X73780952Y-73733333D01*
X73685714Y-73780952D01*
X73638095Y-73828571D01*
X73590476Y-73923809D01*
X73590476Y-74161904D01*
X73638095Y-74257142D01*
X73685714Y-74304761D01*
X73780952Y-74352380D01*
X74019047Y-74352380D01*
X74114285Y-74304761D01*
X74161904Y-74257142D01*
X73114285Y-74352380D02*
X72923809Y-74352380D01*
X72828571Y-74304761D01*
X72780952Y-74257142D01*
X72685714Y-74114285D01*
X72638095Y-73923809D01*
X72638095Y-73542857D01*
X72685714Y-73447619D01*
X72733333Y-73400000D01*
X72828571Y-73352380D01*
X73019047Y-73352380D01*
X73114285Y-73400000D01*
X73161904Y-73447619D01*
X73209523Y-73542857D01*
X73209523Y-73780952D01*
X73161904Y-73876190D01*
X73114285Y-73923809D01*
X73019047Y-73971428D01*
X72828571Y-73971428D01*
X72733333Y-73923809D01*
X72685714Y-73876190D01*
X72638095Y-73780952D01*
X93892857Y-74357142D02*
X93940476Y-74404761D01*
X94083333Y-74452380D01*
X94178571Y-74452380D01*
X94321428Y-74404761D01*
X94416666Y-74309523D01*
X94464285Y-74214285D01*
X94511904Y-74023809D01*
X94511904Y-73880952D01*
X94464285Y-73690476D01*
X94416666Y-73595238D01*
X94321428Y-73500000D01*
X94178571Y-73452380D01*
X94083333Y-73452380D01*
X93940476Y-73500000D01*
X93892857Y-73547619D01*
X93559523Y-73452380D02*
X92940476Y-73452380D01*
X93273809Y-73833333D01*
X93130952Y-73833333D01*
X93035714Y-73880952D01*
X92988095Y-73928571D01*
X92940476Y-74023809D01*
X92940476Y-74261904D01*
X92988095Y-74357142D01*
X93035714Y-74404761D01*
X93130952Y-74452380D01*
X93416666Y-74452380D01*
X93511904Y-74404761D01*
X93559523Y-74357142D01*
X92321428Y-73452380D02*
X92226190Y-73452380D01*
X92130952Y-73500000D01*
X92083333Y-73547619D01*
X92035714Y-73642857D01*
X91988095Y-73833333D01*
X91988095Y-74071428D01*
X92035714Y-74261904D01*
X92083333Y-74357142D01*
X92130952Y-74404761D01*
X92226190Y-74452380D01*
X92321428Y-74452380D01*
X92416666Y-74404761D01*
X92464285Y-74357142D01*
X92511904Y-74261904D01*
X92559523Y-74071428D01*
X92559523Y-73833333D01*
X92511904Y-73642857D01*
X92464285Y-73547619D01*
X92416666Y-73500000D01*
X92321428Y-73452380D01*
X113442857Y-70307142D02*
X113490476Y-70354761D01*
X113633333Y-70402380D01*
X113728571Y-70402380D01*
X113871428Y-70354761D01*
X113966666Y-70259523D01*
X114014285Y-70164285D01*
X114061904Y-69973809D01*
X114061904Y-69830952D01*
X114014285Y-69640476D01*
X113966666Y-69545238D01*
X113871428Y-69450000D01*
X113728571Y-69402380D01*
X113633333Y-69402380D01*
X113490476Y-69450000D01*
X113442857Y-69497619D01*
X112585714Y-69735714D02*
X112585714Y-70402380D01*
X112823809Y-69354761D02*
X113061904Y-70069047D01*
X112442857Y-70069047D01*
X112109523Y-69497619D02*
X112061904Y-69450000D01*
X111966666Y-69402380D01*
X111728571Y-69402380D01*
X111633333Y-69450000D01*
X111585714Y-69497619D01*
X111538095Y-69592857D01*
X111538095Y-69688095D01*
X111585714Y-69830952D01*
X112157142Y-70402380D01*
X111538095Y-70402380D01*
X74542857Y-70257142D02*
X74590476Y-70304761D01*
X74733333Y-70352380D01*
X74828571Y-70352380D01*
X74971428Y-70304761D01*
X75066666Y-70209523D01*
X75114285Y-70114285D01*
X75161904Y-69923809D01*
X75161904Y-69780952D01*
X75114285Y-69590476D01*
X75066666Y-69495238D01*
X74971428Y-69400000D01*
X74828571Y-69352380D01*
X74733333Y-69352380D01*
X74590476Y-69400000D01*
X74542857Y-69447619D01*
X73638095Y-69352380D02*
X74114285Y-69352380D01*
X74161904Y-69828571D01*
X74114285Y-69780952D01*
X74019047Y-69733333D01*
X73780952Y-69733333D01*
X73685714Y-69780952D01*
X73638095Y-69828571D01*
X73590476Y-69923809D01*
X73590476Y-70161904D01*
X73638095Y-70257142D01*
X73685714Y-70304761D01*
X73780952Y-70352380D01*
X74019047Y-70352380D01*
X74114285Y-70304761D01*
X74161904Y-70257142D01*
X73257142Y-69352380D02*
X72590476Y-69352380D01*
X73019047Y-70352380D01*
X97037142Y-79333333D02*
X97084761Y-79285714D01*
X97132380Y-79142857D01*
X97132380Y-79047619D01*
X97084761Y-78904761D01*
X96989523Y-78809523D01*
X96894285Y-78761904D01*
X96703809Y-78714285D01*
X96560952Y-78714285D01*
X96370476Y-78761904D01*
X96275238Y-78809523D01*
X96180000Y-78904761D01*
X96132380Y-79047619D01*
X96132380Y-79142857D01*
X96180000Y-79285714D01*
X96227619Y-79333333D01*
X96227619Y-79714285D02*
X96180000Y-79761904D01*
X96132380Y-79857142D01*
X96132380Y-80095238D01*
X96180000Y-80190476D01*
X96227619Y-80238095D01*
X96322857Y-80285714D01*
X96418095Y-80285714D01*
X96560952Y-80238095D01*
X97132380Y-79666666D01*
X97132380Y-80285714D01*
X113442857Y-66307142D02*
X113490476Y-66354761D01*
X113633333Y-66402380D01*
X113728571Y-66402380D01*
X113871428Y-66354761D01*
X113966666Y-66259523D01*
X114014285Y-66164285D01*
X114061904Y-65973809D01*
X114061904Y-65830952D01*
X114014285Y-65640476D01*
X113966666Y-65545238D01*
X113871428Y-65450000D01*
X113728571Y-65402380D01*
X113633333Y-65402380D01*
X113490476Y-65450000D01*
X113442857Y-65497619D01*
X112585714Y-65735714D02*
X112585714Y-66402380D01*
X112823809Y-65354761D02*
X113061904Y-66069047D01*
X112442857Y-66069047D01*
X111871428Y-65402380D02*
X111776190Y-65402380D01*
X111680952Y-65450000D01*
X111633333Y-65497619D01*
X111585714Y-65592857D01*
X111538095Y-65783333D01*
X111538095Y-66021428D01*
X111585714Y-66211904D01*
X111633333Y-66307142D01*
X111680952Y-66354761D01*
X111776190Y-66402380D01*
X111871428Y-66402380D01*
X111966666Y-66354761D01*
X112014285Y-66307142D01*
X112061904Y-66211904D01*
X112109523Y-66021428D01*
X112109523Y-65783333D01*
X112061904Y-65592857D01*
X112014285Y-65497619D01*
X111966666Y-65450000D01*
X111871428Y-65402380D01*
X93892857Y-72357142D02*
X93940476Y-72404761D01*
X94083333Y-72452380D01*
X94178571Y-72452380D01*
X94321428Y-72404761D01*
X94416666Y-72309523D01*
X94464285Y-72214285D01*
X94511904Y-72023809D01*
X94511904Y-71880952D01*
X94464285Y-71690476D01*
X94416666Y-71595238D01*
X94321428Y-71500000D01*
X94178571Y-71452380D01*
X94083333Y-71452380D01*
X93940476Y-71500000D01*
X93892857Y-71547619D01*
X93511904Y-71547619D02*
X93464285Y-71500000D01*
X93369047Y-71452380D01*
X93130952Y-71452380D01*
X93035714Y-71500000D01*
X92988095Y-71547619D01*
X92940476Y-71642857D01*
X92940476Y-71738095D01*
X92988095Y-71880952D01*
X93559523Y-72452380D01*
X92940476Y-72452380D01*
X92464285Y-72452380D02*
X92273809Y-72452380D01*
X92178571Y-72404761D01*
X92130952Y-72357142D01*
X92035714Y-72214285D01*
X91988095Y-72023809D01*
X91988095Y-71642857D01*
X92035714Y-71547619D01*
X92083333Y-71500000D01*
X92178571Y-71452380D01*
X92369047Y-71452380D01*
X92464285Y-71500000D01*
X92511904Y-71547619D01*
X92559523Y-71642857D01*
X92559523Y-71880952D01*
X92511904Y-71976190D01*
X92464285Y-72023809D01*
X92369047Y-72071428D01*
X92178571Y-72071428D01*
X92083333Y-72023809D01*
X92035714Y-71976190D01*
X91988095Y-71880952D01*
X113442857Y-72307142D02*
X113490476Y-72354761D01*
X113633333Y-72402380D01*
X113728571Y-72402380D01*
X113871428Y-72354761D01*
X113966666Y-72259523D01*
X114014285Y-72164285D01*
X114061904Y-71973809D01*
X114061904Y-71830952D01*
X114014285Y-71640476D01*
X113966666Y-71545238D01*
X113871428Y-71450000D01*
X113728571Y-71402380D01*
X113633333Y-71402380D01*
X113490476Y-71450000D01*
X113442857Y-71497619D01*
X112585714Y-71735714D02*
X112585714Y-72402380D01*
X112823809Y-71354761D02*
X113061904Y-72069047D01*
X112442857Y-72069047D01*
X112157142Y-71402380D02*
X111538095Y-71402380D01*
X111871428Y-71783333D01*
X111728571Y-71783333D01*
X111633333Y-71830952D01*
X111585714Y-71878571D01*
X111538095Y-71973809D01*
X111538095Y-72211904D01*
X111585714Y-72307142D01*
X111633333Y-72354761D01*
X111728571Y-72402380D01*
X112014285Y-72402380D01*
X112109523Y-72354761D01*
X112157142Y-72307142D01*
X116787142Y-78833333D02*
X116834761Y-78785714D01*
X116882380Y-78642857D01*
X116882380Y-78547619D01*
X116834761Y-78404761D01*
X116739523Y-78309523D01*
X116644285Y-78261904D01*
X116453809Y-78214285D01*
X116310952Y-78214285D01*
X116120476Y-78261904D01*
X116025238Y-78309523D01*
X115930000Y-78404761D01*
X115882380Y-78547619D01*
X115882380Y-78642857D01*
X115930000Y-78785714D01*
X115977619Y-78833333D01*
X116882380Y-79785714D02*
X116882380Y-79214285D01*
X116882380Y-79500000D02*
X115882380Y-79500000D01*
X116025238Y-79404761D01*
X116120476Y-79309523D01*
X116168095Y-79214285D01*
X93892857Y-62357142D02*
X93940476Y-62404761D01*
X94083333Y-62452380D01*
X94178571Y-62452380D01*
X94321428Y-62404761D01*
X94416666Y-62309523D01*
X94464285Y-62214285D01*
X94511904Y-62023809D01*
X94511904Y-61880952D01*
X94464285Y-61690476D01*
X94416666Y-61595238D01*
X94321428Y-61500000D01*
X94178571Y-61452380D01*
X94083333Y-61452380D01*
X93940476Y-61500000D01*
X93892857Y-61547619D01*
X93511904Y-61547619D02*
X93464285Y-61500000D01*
X93369047Y-61452380D01*
X93130952Y-61452380D01*
X93035714Y-61500000D01*
X92988095Y-61547619D01*
X92940476Y-61642857D01*
X92940476Y-61738095D01*
X92988095Y-61880952D01*
X93559523Y-62452380D01*
X92940476Y-62452380D01*
X92083333Y-61785714D02*
X92083333Y-62452380D01*
X92321428Y-61404761D02*
X92559523Y-62119047D01*
X91940476Y-62119047D01*
X74642857Y-76257142D02*
X74690476Y-76304761D01*
X74833333Y-76352380D01*
X74928571Y-76352380D01*
X75071428Y-76304761D01*
X75166666Y-76209523D01*
X75214285Y-76114285D01*
X75261904Y-75923809D01*
X75261904Y-75780952D01*
X75214285Y-75590476D01*
X75166666Y-75495238D01*
X75071428Y-75400000D01*
X74928571Y-75352380D01*
X74833333Y-75352380D01*
X74690476Y-75400000D01*
X74642857Y-75447619D01*
X73785714Y-75352380D02*
X73976190Y-75352380D01*
X74071428Y-75400000D01*
X74119047Y-75447619D01*
X74214285Y-75590476D01*
X74261904Y-75780952D01*
X74261904Y-76161904D01*
X74214285Y-76257142D01*
X74166666Y-76304761D01*
X74071428Y-76352380D01*
X73880952Y-76352380D01*
X73785714Y-76304761D01*
X73738095Y-76257142D01*
X73690476Y-76161904D01*
X73690476Y-75923809D01*
X73738095Y-75828571D01*
X73785714Y-75780952D01*
X73880952Y-75733333D01*
X74071428Y-75733333D01*
X74166666Y-75780952D01*
X74214285Y-75828571D01*
X74261904Y-75923809D01*
X73071428Y-75352380D02*
X72976190Y-75352380D01*
X72880952Y-75400000D01*
X72833333Y-75447619D01*
X72785714Y-75542857D01*
X72738095Y-75733333D01*
X72738095Y-75971428D01*
X72785714Y-76161904D01*
X72833333Y-76257142D01*
X72880952Y-76304761D01*
X72976190Y-76352380D01*
X73071428Y-76352380D01*
X73166666Y-76304761D01*
X73214285Y-76257142D01*
X73261904Y-76161904D01*
X73309523Y-75971428D01*
X73309523Y-75733333D01*
X73261904Y-75542857D01*
X73214285Y-75447619D01*
X73166666Y-75400000D01*
X73071428Y-75352380D01*
X93892857Y-66357142D02*
X93940476Y-66404761D01*
X94083333Y-66452380D01*
X94178571Y-66452380D01*
X94321428Y-66404761D01*
X94416666Y-66309523D01*
X94464285Y-66214285D01*
X94511904Y-66023809D01*
X94511904Y-65880952D01*
X94464285Y-65690476D01*
X94416666Y-65595238D01*
X94321428Y-65500000D01*
X94178571Y-65452380D01*
X94083333Y-65452380D01*
X93940476Y-65500000D01*
X93892857Y-65547619D01*
X93511904Y-65547619D02*
X93464285Y-65500000D01*
X93369047Y-65452380D01*
X93130952Y-65452380D01*
X93035714Y-65500000D01*
X92988095Y-65547619D01*
X92940476Y-65642857D01*
X92940476Y-65738095D01*
X92988095Y-65880952D01*
X93559523Y-66452380D01*
X92940476Y-66452380D01*
X92083333Y-65452380D02*
X92273809Y-65452380D01*
X92369047Y-65500000D01*
X92416666Y-65547619D01*
X92511904Y-65690476D01*
X92559523Y-65880952D01*
X92559523Y-66261904D01*
X92511904Y-66357142D01*
X92464285Y-66404761D01*
X92369047Y-66452380D01*
X92178571Y-66452380D01*
X92083333Y-66404761D01*
X92035714Y-66357142D01*
X91988095Y-66261904D01*
X91988095Y-66023809D01*
X92035714Y-65928571D01*
X92083333Y-65880952D01*
X92178571Y-65833333D01*
X92369047Y-65833333D01*
X92464285Y-65880952D01*
X92511904Y-65928571D01*
X92559523Y-66023809D01*
X113442857Y-68307142D02*
X113490476Y-68354761D01*
X113633333Y-68402380D01*
X113728571Y-68402380D01*
X113871428Y-68354761D01*
X113966666Y-68259523D01*
X114014285Y-68164285D01*
X114061904Y-67973809D01*
X114061904Y-67830952D01*
X114014285Y-67640476D01*
X113966666Y-67545238D01*
X113871428Y-67450000D01*
X113728571Y-67402380D01*
X113633333Y-67402380D01*
X113490476Y-67450000D01*
X113442857Y-67497619D01*
X112585714Y-67735714D02*
X112585714Y-68402380D01*
X112823809Y-67354761D02*
X113061904Y-68069047D01*
X112442857Y-68069047D01*
X111538095Y-68402380D02*
X112109523Y-68402380D01*
X111823809Y-68402380D02*
X111823809Y-67402380D01*
X111919047Y-67545238D01*
X112014285Y-67640476D01*
X112109523Y-67688095D01*
X74542857Y-62257142D02*
X74590476Y-62304761D01*
X74733333Y-62352380D01*
X74828571Y-62352380D01*
X74971428Y-62304761D01*
X75066666Y-62209523D01*
X75114285Y-62114285D01*
X75161904Y-61923809D01*
X75161904Y-61780952D01*
X75114285Y-61590476D01*
X75066666Y-61495238D01*
X74971428Y-61400000D01*
X74828571Y-61352380D01*
X74733333Y-61352380D01*
X74590476Y-61400000D01*
X74542857Y-61447619D01*
X73638095Y-61352380D02*
X74114285Y-61352380D01*
X74161904Y-61828571D01*
X74114285Y-61780952D01*
X74019047Y-61733333D01*
X73780952Y-61733333D01*
X73685714Y-61780952D01*
X73638095Y-61828571D01*
X73590476Y-61923809D01*
X73590476Y-62161904D01*
X73638095Y-62257142D01*
X73685714Y-62304761D01*
X73780952Y-62352380D01*
X74019047Y-62352380D01*
X74114285Y-62304761D01*
X74161904Y-62257142D01*
X73257142Y-61352380D02*
X72638095Y-61352380D01*
X72971428Y-61733333D01*
X72828571Y-61733333D01*
X72733333Y-61780952D01*
X72685714Y-61828571D01*
X72638095Y-61923809D01*
X72638095Y-62161904D01*
X72685714Y-62257142D01*
X72733333Y-62304761D01*
X72828571Y-62352380D01*
X73114285Y-62352380D01*
X73209523Y-62304761D01*
X73257142Y-62257142D01*
X93892857Y-70357142D02*
X93940476Y-70404761D01*
X94083333Y-70452380D01*
X94178571Y-70452380D01*
X94321428Y-70404761D01*
X94416666Y-70309523D01*
X94464285Y-70214285D01*
X94511904Y-70023809D01*
X94511904Y-69880952D01*
X94464285Y-69690476D01*
X94416666Y-69595238D01*
X94321428Y-69500000D01*
X94178571Y-69452380D01*
X94083333Y-69452380D01*
X93940476Y-69500000D01*
X93892857Y-69547619D01*
X93511904Y-69547619D02*
X93464285Y-69500000D01*
X93369047Y-69452380D01*
X93130952Y-69452380D01*
X93035714Y-69500000D01*
X92988095Y-69547619D01*
X92940476Y-69642857D01*
X92940476Y-69738095D01*
X92988095Y-69880952D01*
X93559523Y-70452380D01*
X92940476Y-70452380D01*
X92369047Y-69880952D02*
X92464285Y-69833333D01*
X92511904Y-69785714D01*
X92559523Y-69690476D01*
X92559523Y-69642857D01*
X92511904Y-69547619D01*
X92464285Y-69500000D01*
X92369047Y-69452380D01*
X92178571Y-69452380D01*
X92083333Y-69500000D01*
X92035714Y-69547619D01*
X91988095Y-69642857D01*
X91988095Y-69690476D01*
X92035714Y-69785714D01*
X92083333Y-69833333D01*
X92178571Y-69880952D01*
X92369047Y-69880952D01*
X92464285Y-69928571D01*
X92511904Y-69976190D01*
X92559523Y-70071428D01*
X92559523Y-70261904D01*
X92511904Y-70357142D01*
X92464285Y-70404761D01*
X92369047Y-70452380D01*
X92178571Y-70452380D01*
X92083333Y-70404761D01*
X92035714Y-70357142D01*
X91988095Y-70261904D01*
X91988095Y-70071428D01*
X92035714Y-69976190D01*
X92083333Y-69928571D01*
X92178571Y-69880952D01*
X113442857Y-64307142D02*
X113490476Y-64354761D01*
X113633333Y-64402380D01*
X113728571Y-64402380D01*
X113871428Y-64354761D01*
X113966666Y-64259523D01*
X114014285Y-64164285D01*
X114061904Y-63973809D01*
X114061904Y-63830952D01*
X114014285Y-63640476D01*
X113966666Y-63545238D01*
X113871428Y-63450000D01*
X113728571Y-63402380D01*
X113633333Y-63402380D01*
X113490476Y-63450000D01*
X113442857Y-63497619D01*
X113109523Y-63402380D02*
X112490476Y-63402380D01*
X112823809Y-63783333D01*
X112680952Y-63783333D01*
X112585714Y-63830952D01*
X112538095Y-63878571D01*
X112490476Y-63973809D01*
X112490476Y-64211904D01*
X112538095Y-64307142D01*
X112585714Y-64354761D01*
X112680952Y-64402380D01*
X112966666Y-64402380D01*
X113061904Y-64354761D01*
X113109523Y-64307142D01*
X112014285Y-64402380D02*
X111823809Y-64402380D01*
X111728571Y-64354761D01*
X111680952Y-64307142D01*
X111585714Y-64164285D01*
X111538095Y-63973809D01*
X111538095Y-63592857D01*
X111585714Y-63497619D01*
X111633333Y-63450000D01*
X111728571Y-63402380D01*
X111919047Y-63402380D01*
X112014285Y-63450000D01*
X112061904Y-63497619D01*
X112109523Y-63592857D01*
X112109523Y-63830952D01*
X112061904Y-63926190D01*
X112014285Y-63973809D01*
X111919047Y-64021428D01*
X111728571Y-64021428D01*
X111633333Y-63973809D01*
X111585714Y-63926190D01*
X111538095Y-63830952D01*
X93892857Y-68357142D02*
X93940476Y-68404761D01*
X94083333Y-68452380D01*
X94178571Y-68452380D01*
X94321428Y-68404761D01*
X94416666Y-68309523D01*
X94464285Y-68214285D01*
X94511904Y-68023809D01*
X94511904Y-67880952D01*
X94464285Y-67690476D01*
X94416666Y-67595238D01*
X94321428Y-67500000D01*
X94178571Y-67452380D01*
X94083333Y-67452380D01*
X93940476Y-67500000D01*
X93892857Y-67547619D01*
X93511904Y-67547619D02*
X93464285Y-67500000D01*
X93369047Y-67452380D01*
X93130952Y-67452380D01*
X93035714Y-67500000D01*
X92988095Y-67547619D01*
X92940476Y-67642857D01*
X92940476Y-67738095D01*
X92988095Y-67880952D01*
X93559523Y-68452380D01*
X92940476Y-68452380D01*
X92607142Y-67452380D02*
X91940476Y-67452380D01*
X92369047Y-68452380D01*
D11*
X90261252Y-63265000D02*
X89738748Y-63265000D01*
X90261252Y-64735000D02*
X89738748Y-64735000D01*
X109761252Y-75265000D02*
X109238748Y-75265000D01*
X109761252Y-76735000D02*
X109238748Y-76735000D01*
X109761252Y-61265000D02*
X109238748Y-61265000D01*
X109761252Y-62735000D02*
X109238748Y-62735000D01*
X109761252Y-73265000D02*
X109238748Y-73265000D01*
X109761252Y-74735000D02*
X109238748Y-74735000D01*
X70911252Y-65165000D02*
X70388748Y-65165000D01*
X70911252Y-66635000D02*
X70388748Y-66635000D01*
X74515000Y-79761252D02*
X74515000Y-79238748D01*
X75985000Y-79761252D02*
X75985000Y-79238748D01*
X70911252Y-64635000D02*
X70388748Y-64635000D01*
X70911252Y-63165000D02*
X70388748Y-63165000D01*
X70911252Y-67165000D02*
X70388748Y-67165000D01*
X70911252Y-68635000D02*
X70388748Y-68635000D01*
X90261252Y-76735000D02*
X89738748Y-76735000D01*
X90261252Y-75265000D02*
X89738748Y-75265000D01*
X70911252Y-72635000D02*
X70388748Y-72635000D01*
X70911252Y-71165000D02*
X70388748Y-71165000D01*
X70911252Y-73165000D02*
X70388748Y-73165000D01*
X70911252Y-74635000D02*
X70388748Y-74635000D01*
X90261252Y-73265000D02*
X89738748Y-73265000D01*
X90261252Y-74735000D02*
X89738748Y-74735000D01*
X109761252Y-69265000D02*
X109238748Y-69265000D01*
X109761252Y-70735000D02*
X109238748Y-70735000D01*
X70911252Y-70635000D02*
X70388748Y-70635000D01*
X70911252Y-69165000D02*
X70388748Y-69165000D01*
X94265000Y-79761252D02*
X94265000Y-79238748D01*
X95735000Y-79761252D02*
X95735000Y-79238748D01*
X109761252Y-66735000D02*
X109238748Y-66735000D01*
X109761252Y-65265000D02*
X109238748Y-65265000D01*
X90261252Y-71265000D02*
X89738748Y-71265000D01*
X90261252Y-72735000D02*
X89738748Y-72735000D01*
X109761252Y-71265000D02*
X109238748Y-71265000D01*
X109761252Y-72735000D02*
X109238748Y-72735000D01*
X114015000Y-79261252D02*
X114015000Y-78738748D01*
X115485000Y-79261252D02*
X115485000Y-78738748D01*
X90261252Y-61265000D02*
X89738748Y-61265000D01*
X90261252Y-62735000D02*
X89738748Y-62735000D01*
X70911252Y-76635000D02*
X70388748Y-76635000D01*
X70911252Y-75165000D02*
X70388748Y-75165000D01*
X90261252Y-66735000D02*
X89738748Y-66735000D01*
X90261252Y-65265000D02*
X89738748Y-65265000D01*
X109761252Y-68735000D02*
X109238748Y-68735000D01*
X109761252Y-67265000D02*
X109238748Y-67265000D01*
X70911252Y-61165000D02*
X70388748Y-61165000D01*
X70911252Y-62635000D02*
X70388748Y-62635000D01*
X90261252Y-70735000D02*
X89738748Y-70735000D01*
X90261252Y-69265000D02*
X89738748Y-69265000D01*
X109761252Y-64735000D02*
X109238748Y-64735000D01*
X109761252Y-63265000D02*
X109238748Y-63265000D01*
X90261252Y-68735000D02*
X89738748Y-68735000D01*
X90261252Y-67265000D02*
X89738748Y-67265000D01*
%LPC*%
D12*
X112300000Y-49373959D03*
D13*
X112300000Y-44373959D03*
D14*
X83300000Y-80300000D03*
X85300000Y-56800000D03*
D15*
X97250000Y-56000000D03*
D16*
X69250000Y-43500000D03*
D15*
X116750000Y-56000000D03*
D16*
X122250000Y-100000000D03*
X69250000Y-99000000D03*
D17*
X110425000Y-92800000D03*
D18*
X112965000Y-92800000D03*
D16*
X69250000Y-136500000D03*
D17*
X98450000Y-131275000D03*
D18*
X98450000Y-128735000D03*
X100990000Y-131275000D03*
X100990000Y-128735000D03*
X103530000Y-131275000D03*
X103530000Y-128735000D03*
X106070000Y-131275000D03*
X106070000Y-128735000D03*
D15*
X78000000Y-56000000D03*
X121050000Y-44500000D03*
D16*
X122250000Y-136500000D03*
X102800000Y-43550000D03*
D19*
X121050000Y-51250000D03*
D17*
X75475000Y-128725000D03*
D18*
X78015000Y-128725000D03*
X75475000Y-131265000D03*
X78015000Y-131265000D03*
D17*
X88450000Y-95275000D03*
D18*
X88450000Y-92735000D03*
X90990000Y-95275000D03*
X90990000Y-92735000D03*
X93530000Y-95275000D03*
X93530000Y-92735000D03*
X96070000Y-95275000D03*
X96070000Y-92735000D03*
D20*
X90950000Y-64000000D03*
X89050000Y-64000000D03*
X110450000Y-76000000D03*
X108550000Y-76000000D03*
X110450000Y-62000000D03*
X108550000Y-62000000D03*
X110450000Y-74000000D03*
X108550000Y-74000000D03*
X71600000Y-65900000D03*
X69700000Y-65900000D03*
D21*
X75250000Y-80450000D03*
X75250000Y-78550000D03*
D20*
X71600000Y-63900000D03*
X69700000Y-63900000D03*
X71600000Y-67900000D03*
X69700000Y-67900000D03*
X90950000Y-76000000D03*
X89050000Y-76000000D03*
X71600000Y-71900000D03*
X69700000Y-71900000D03*
X71600000Y-73900000D03*
X69700000Y-73900000D03*
X90950000Y-74000000D03*
X89050000Y-74000000D03*
X110450000Y-70000000D03*
X108550000Y-70000000D03*
X71600000Y-69900000D03*
X69700000Y-69900000D03*
D21*
X95000000Y-80450000D03*
X95000000Y-78550000D03*
D20*
X110450000Y-66000000D03*
X108550000Y-66000000D03*
X90950000Y-72000000D03*
X89050000Y-72000000D03*
X110450000Y-72000000D03*
X108550000Y-72000000D03*
D21*
X114750000Y-79950000D03*
X114750000Y-78050000D03*
D20*
X90950000Y-62000000D03*
X89050000Y-62000000D03*
X71600000Y-75900000D03*
X69700000Y-75900000D03*
X90950000Y-66000000D03*
X89050000Y-66000000D03*
X110450000Y-68000000D03*
X108550000Y-68000000D03*
X71600000Y-61900000D03*
X69700000Y-61900000D03*
X90950000Y-70000000D03*
X89050000Y-70000000D03*
X110450000Y-64000000D03*
X108550000Y-64000000D03*
X90950000Y-68000000D03*
X89050000Y-68000000D03*
G36*
X125374989Y-43749018D02*
G01*
X125442951Y-43769554D01*
X125489021Y-43823573D01*
X125500000Y-43875014D01*
X125500000Y-75374000D01*
X125479998Y-75442121D01*
X125426342Y-75488614D01*
X125374000Y-75500000D01*
X123626000Y-75500000D01*
X123557879Y-75479998D01*
X123511386Y-75426342D01*
X123500000Y-75374000D01*
X123500000Y-47018115D01*
X123495525Y-47002876D01*
X123494135Y-47001671D01*
X123486452Y-47000000D01*
X108018115Y-47000000D01*
X108004734Y-47003929D01*
X107992754Y-47018569D01*
X106404273Y-51089051D01*
X106400000Y-51111754D01*
X106400000Y-75574000D01*
X106379998Y-75642121D01*
X106326342Y-75688614D01*
X106274000Y-75700000D01*
X104326000Y-75700000D01*
X104257879Y-75679998D01*
X104211386Y-75626342D01*
X104200000Y-75574000D01*
X104200000Y-50218115D01*
X104195525Y-50202876D01*
X104194135Y-50201671D01*
X104186452Y-50200000D01*
X86768115Y-50200000D01*
X86752876Y-50204475D01*
X86751671Y-50205865D01*
X86750000Y-50213548D01*
X86750000Y-75874010D01*
X86729998Y-75942131D01*
X86676342Y-75988624D01*
X86624010Y-76000010D01*
X84775792Y-76000164D01*
X84707670Y-75980168D01*
X84661173Y-75926516D01*
X84649782Y-75874383D01*
X84600219Y-47326392D01*
X84620103Y-47258236D01*
X84673678Y-47211650D01*
X84726218Y-47200173D01*
X104781882Y-47200000D01*
X104796790Y-47195623D01*
X104807491Y-47183145D01*
X106366457Y-43675472D01*
X106412401Y-43621346D01*
X106482586Y-43600649D01*
X125374989Y-43749018D01*
G37*
M02*
