%TF.GenerationSoftware,KiCad,Pcbnew,(6.0.7-1)-1*%
%TF.CreationDate,2023-01-06T15:11:38+01:00*%
%TF.ProjectId,ESC-power-epc,4553432d-706f-4776-9572-2d6570632e6b,rev?*%
%TF.SameCoordinates,Original*%
%TF.FileFunction,Drillmap*%
%TF.FilePolarity,Positive*%
%FSLAX45Y45*%
G04 Gerber Fmt 4.5, Leading zero omitted, Abs format (unit mm)*
G04 Created by KiCad (PCBNEW (6.0.7-1)-1) date 2023-01-06 15:11:38*
%MOMM*%
%LPD*%
G01*
G04 APERTURE LIST*
%ADD10C,0.100000*%
%ADD11C,0.200000*%
%ADD12C,0.320000*%
G04 APERTURE END LIST*
D10*
X6575000Y-4000000D02*
X12575000Y-4000000D01*
X12575000Y-4000000D02*
X12575000Y-14000000D01*
X12575000Y-14000000D02*
X6575000Y-14000000D01*
X6575000Y-14000000D02*
X6575000Y-4000000D01*
D11*
D12*
X6765000Y-4190000D02*
X7085000Y-4510000D01*
X7085000Y-4190000D02*
X6765000Y-4510000D01*
X6765000Y-9740000D02*
X7085000Y-10060000D01*
X7085000Y-9740000D02*
X6765000Y-10060000D01*
X6765000Y-13490000D02*
X7085000Y-13810000D01*
X7085000Y-13490000D02*
X6765000Y-13810000D01*
X10120000Y-4195000D02*
X10440000Y-4515000D01*
X10440000Y-4195000D02*
X10120000Y-4515000D01*
X12065000Y-9840000D02*
X12385000Y-10160000D01*
X12385000Y-9840000D02*
X12065000Y-10160000D01*
X12065000Y-13490000D02*
X12385000Y-13810000D01*
X12385000Y-13490000D02*
X12065000Y-13810000D01*
D11*
X6827619Y-14315476D02*
X6827619Y-14115476D01*
X6875238Y-14115476D01*
X6903809Y-14125000D01*
X6922857Y-14144048D01*
X6932381Y-14163095D01*
X6941905Y-14201190D01*
X6941905Y-14229762D01*
X6932381Y-14267857D01*
X6922857Y-14286905D01*
X6903809Y-14305952D01*
X6875238Y-14315476D01*
X6827619Y-14315476D01*
X7027619Y-14315476D02*
X7027619Y-14182143D01*
X7027619Y-14220238D02*
X7037143Y-14201190D01*
X7046667Y-14191667D01*
X7065714Y-14182143D01*
X7084762Y-14182143D01*
X7151428Y-14315476D02*
X7151428Y-14182143D01*
X7151428Y-14115476D02*
X7141905Y-14125000D01*
X7151428Y-14134524D01*
X7160952Y-14125000D01*
X7151428Y-14115476D01*
X7151428Y-14134524D01*
X7275238Y-14315476D02*
X7256190Y-14305952D01*
X7246667Y-14286905D01*
X7246667Y-14115476D01*
X7380000Y-14315476D02*
X7360952Y-14305952D01*
X7351428Y-14286905D01*
X7351428Y-14115476D01*
X7608571Y-14315476D02*
X7608571Y-14115476D01*
X7675238Y-14258333D01*
X7741905Y-14115476D01*
X7741905Y-14315476D01*
X7922857Y-14315476D02*
X7922857Y-14210714D01*
X7913333Y-14191667D01*
X7894286Y-14182143D01*
X7856190Y-14182143D01*
X7837143Y-14191667D01*
X7922857Y-14305952D02*
X7903809Y-14315476D01*
X7856190Y-14315476D01*
X7837143Y-14305952D01*
X7827619Y-14286905D01*
X7827619Y-14267857D01*
X7837143Y-14248809D01*
X7856190Y-14239286D01*
X7903809Y-14239286D01*
X7922857Y-14229762D01*
X8018095Y-14182143D02*
X8018095Y-14382143D01*
X8018095Y-14191667D02*
X8037143Y-14182143D01*
X8075238Y-14182143D01*
X8094286Y-14191667D01*
X8103809Y-14201190D01*
X8113333Y-14220238D01*
X8113333Y-14277381D01*
X8103809Y-14296428D01*
X8094286Y-14305952D01*
X8075238Y-14315476D01*
X8037143Y-14315476D01*
X8018095Y-14305952D01*
X8199048Y-14296428D02*
X8208571Y-14305952D01*
X8199048Y-14315476D01*
X8189524Y-14305952D01*
X8199048Y-14296428D01*
X8199048Y-14315476D01*
X8199048Y-14191667D02*
X8208571Y-14201190D01*
X8199048Y-14210714D01*
X8189524Y-14201190D01*
X8199048Y-14191667D01*
X8199048Y-14210714D01*
X6370000Y-14545000D02*
X6570000Y-14745000D01*
X6570000Y-14545000D02*
X6370000Y-14745000D01*
X6808571Y-14535476D02*
X6932381Y-14535476D01*
X6865714Y-14611667D01*
X6894286Y-14611667D01*
X6913333Y-14621190D01*
X6922857Y-14630714D01*
X6932381Y-14649762D01*
X6932381Y-14697381D01*
X6922857Y-14716428D01*
X6913333Y-14725952D01*
X6894286Y-14735476D01*
X6837143Y-14735476D01*
X6818095Y-14725952D01*
X6808571Y-14716428D01*
X7018095Y-14716428D02*
X7027619Y-14725952D01*
X7018095Y-14735476D01*
X7008571Y-14725952D01*
X7018095Y-14716428D01*
X7018095Y-14735476D01*
X7103809Y-14554524D02*
X7113333Y-14545000D01*
X7132381Y-14535476D01*
X7180000Y-14535476D01*
X7199048Y-14545000D01*
X7208571Y-14554524D01*
X7218095Y-14573571D01*
X7218095Y-14592619D01*
X7208571Y-14621190D01*
X7094286Y-14735476D01*
X7218095Y-14735476D01*
X7341905Y-14535476D02*
X7360952Y-14535476D01*
X7380000Y-14545000D01*
X7389524Y-14554524D01*
X7399048Y-14573571D01*
X7408571Y-14611667D01*
X7408571Y-14659286D01*
X7399048Y-14697381D01*
X7389524Y-14716428D01*
X7380000Y-14725952D01*
X7360952Y-14735476D01*
X7341905Y-14735476D01*
X7322857Y-14725952D01*
X7313333Y-14716428D01*
X7303809Y-14697381D01*
X7294286Y-14659286D01*
X7294286Y-14611667D01*
X7303809Y-14573571D01*
X7313333Y-14554524D01*
X7322857Y-14545000D01*
X7341905Y-14535476D01*
X7532381Y-14535476D02*
X7551428Y-14535476D01*
X7570476Y-14545000D01*
X7580000Y-14554524D01*
X7589524Y-14573571D01*
X7599048Y-14611667D01*
X7599048Y-14659286D01*
X7589524Y-14697381D01*
X7580000Y-14716428D01*
X7570476Y-14725952D01*
X7551428Y-14735476D01*
X7532381Y-14735476D01*
X7513333Y-14725952D01*
X7503809Y-14716428D01*
X7494286Y-14697381D01*
X7484762Y-14659286D01*
X7484762Y-14611667D01*
X7494286Y-14573571D01*
X7503809Y-14554524D01*
X7513333Y-14545000D01*
X7532381Y-14535476D01*
X7684762Y-14735476D02*
X7684762Y-14602143D01*
X7684762Y-14621190D02*
X7694286Y-14611667D01*
X7713333Y-14602143D01*
X7741905Y-14602143D01*
X7760952Y-14611667D01*
X7770476Y-14630714D01*
X7770476Y-14735476D01*
X7770476Y-14630714D02*
X7780000Y-14611667D01*
X7799048Y-14602143D01*
X7827619Y-14602143D01*
X7846667Y-14611667D01*
X7856190Y-14630714D01*
X7856190Y-14735476D01*
X7951428Y-14735476D02*
X7951428Y-14602143D01*
X7951428Y-14621190D02*
X7960952Y-14611667D01*
X7980000Y-14602143D01*
X8008571Y-14602143D01*
X8027619Y-14611667D01*
X8037143Y-14630714D01*
X8037143Y-14735476D01*
X8037143Y-14630714D02*
X8046667Y-14611667D01*
X8065714Y-14602143D01*
X8094286Y-14602143D01*
X8113333Y-14611667D01*
X8122857Y-14630714D01*
X8122857Y-14735476D01*
X8513333Y-14525952D02*
X8341905Y-14783095D01*
X8770476Y-14535476D02*
X8789524Y-14535476D01*
X8808571Y-14545000D01*
X8818095Y-14554524D01*
X8827619Y-14573571D01*
X8837143Y-14611667D01*
X8837143Y-14659286D01*
X8827619Y-14697381D01*
X8818095Y-14716428D01*
X8808571Y-14725952D01*
X8789524Y-14735476D01*
X8770476Y-14735476D01*
X8751429Y-14725952D01*
X8741905Y-14716428D01*
X8732381Y-14697381D01*
X8722857Y-14659286D01*
X8722857Y-14611667D01*
X8732381Y-14573571D01*
X8741905Y-14554524D01*
X8751429Y-14545000D01*
X8770476Y-14535476D01*
X8922857Y-14716428D02*
X8932381Y-14725952D01*
X8922857Y-14735476D01*
X8913333Y-14725952D01*
X8922857Y-14716428D01*
X8922857Y-14735476D01*
X9122857Y-14735476D02*
X9008571Y-14735476D01*
X9065714Y-14735476D02*
X9065714Y-14535476D01*
X9046667Y-14564048D01*
X9027619Y-14583095D01*
X9008571Y-14592619D01*
X9199048Y-14554524D02*
X9208571Y-14545000D01*
X9227619Y-14535476D01*
X9275238Y-14535476D01*
X9294286Y-14545000D01*
X9303810Y-14554524D01*
X9313333Y-14573571D01*
X9313333Y-14592619D01*
X9303810Y-14621190D01*
X9189524Y-14735476D01*
X9313333Y-14735476D01*
X9484762Y-14535476D02*
X9446667Y-14535476D01*
X9427619Y-14545000D01*
X9418095Y-14554524D01*
X9399048Y-14583095D01*
X9389524Y-14621190D01*
X9389524Y-14697381D01*
X9399048Y-14716428D01*
X9408571Y-14725952D01*
X9427619Y-14735476D01*
X9465714Y-14735476D01*
X9484762Y-14725952D01*
X9494286Y-14716428D01*
X9503810Y-14697381D01*
X9503810Y-14649762D01*
X9494286Y-14630714D01*
X9484762Y-14621190D01*
X9465714Y-14611667D01*
X9427619Y-14611667D01*
X9408571Y-14621190D01*
X9399048Y-14630714D01*
X9389524Y-14649762D01*
X9627619Y-14535476D02*
X9646667Y-14535476D01*
X9665714Y-14545000D01*
X9675238Y-14554524D01*
X9684762Y-14573571D01*
X9694286Y-14611667D01*
X9694286Y-14659286D01*
X9684762Y-14697381D01*
X9675238Y-14716428D01*
X9665714Y-14725952D01*
X9646667Y-14735476D01*
X9627619Y-14735476D01*
X9608571Y-14725952D01*
X9599048Y-14716428D01*
X9589524Y-14697381D01*
X9580000Y-14659286D01*
X9580000Y-14611667D01*
X9589524Y-14573571D01*
X9599048Y-14554524D01*
X9608571Y-14545000D01*
X9627619Y-14535476D01*
X9770476Y-14535476D02*
X9770476Y-14573571D01*
X9846667Y-14535476D02*
X9846667Y-14573571D01*
X10141905Y-14811667D02*
X10132381Y-14802143D01*
X10113333Y-14773571D01*
X10103810Y-14754524D01*
X10094286Y-14725952D01*
X10084762Y-14678333D01*
X10084762Y-14640238D01*
X10094286Y-14592619D01*
X10103810Y-14564048D01*
X10113333Y-14545000D01*
X10132381Y-14516428D01*
X10141905Y-14506905D01*
X10303810Y-14535476D02*
X10265714Y-14535476D01*
X10246667Y-14545000D01*
X10237143Y-14554524D01*
X10218095Y-14583095D01*
X10208571Y-14621190D01*
X10208571Y-14697381D01*
X10218095Y-14716428D01*
X10227619Y-14725952D01*
X10246667Y-14735476D01*
X10284762Y-14735476D01*
X10303810Y-14725952D01*
X10313333Y-14716428D01*
X10322857Y-14697381D01*
X10322857Y-14649762D01*
X10313333Y-14630714D01*
X10303810Y-14621190D01*
X10284762Y-14611667D01*
X10246667Y-14611667D01*
X10227619Y-14621190D01*
X10218095Y-14630714D01*
X10208571Y-14649762D01*
X10560952Y-14735476D02*
X10560952Y-14535476D01*
X10646667Y-14735476D02*
X10646667Y-14630714D01*
X10637143Y-14611667D01*
X10618095Y-14602143D01*
X10589524Y-14602143D01*
X10570476Y-14611667D01*
X10560952Y-14621190D01*
X10770476Y-14735476D02*
X10751429Y-14725952D01*
X10741905Y-14716428D01*
X10732381Y-14697381D01*
X10732381Y-14640238D01*
X10741905Y-14621190D01*
X10751429Y-14611667D01*
X10770476Y-14602143D01*
X10799048Y-14602143D01*
X10818095Y-14611667D01*
X10827619Y-14621190D01*
X10837143Y-14640238D01*
X10837143Y-14697381D01*
X10827619Y-14716428D01*
X10818095Y-14725952D01*
X10799048Y-14735476D01*
X10770476Y-14735476D01*
X10951429Y-14735476D02*
X10932381Y-14725952D01*
X10922857Y-14706905D01*
X10922857Y-14535476D01*
X11103810Y-14725952D02*
X11084762Y-14735476D01*
X11046667Y-14735476D01*
X11027619Y-14725952D01*
X11018095Y-14706905D01*
X11018095Y-14630714D01*
X11027619Y-14611667D01*
X11046667Y-14602143D01*
X11084762Y-14602143D01*
X11103810Y-14611667D01*
X11113333Y-14630714D01*
X11113333Y-14649762D01*
X11018095Y-14668809D01*
X11189524Y-14725952D02*
X11208571Y-14735476D01*
X11246667Y-14735476D01*
X11265714Y-14725952D01*
X11275238Y-14706905D01*
X11275238Y-14697381D01*
X11265714Y-14678333D01*
X11246667Y-14668809D01*
X11218095Y-14668809D01*
X11199048Y-14659286D01*
X11189524Y-14640238D01*
X11189524Y-14630714D01*
X11199048Y-14611667D01*
X11218095Y-14602143D01*
X11246667Y-14602143D01*
X11265714Y-14611667D01*
X11341905Y-14811667D02*
X11351428Y-14802143D01*
X11370476Y-14773571D01*
X11380000Y-14754524D01*
X11389524Y-14725952D01*
X11399048Y-14678333D01*
X11399048Y-14640238D01*
X11389524Y-14592619D01*
X11380000Y-14564048D01*
X11370476Y-14545000D01*
X11351428Y-14516428D01*
X11341905Y-14506905D01*
X11703809Y-14811667D02*
X11694286Y-14802143D01*
X11675238Y-14773571D01*
X11665714Y-14754524D01*
X11656190Y-14725952D01*
X11646667Y-14678333D01*
X11646667Y-14640238D01*
X11656190Y-14592619D01*
X11665714Y-14564048D01*
X11675238Y-14545000D01*
X11694286Y-14516428D01*
X11703809Y-14506905D01*
X11780000Y-14602143D02*
X11780000Y-14735476D01*
X11780000Y-14621190D02*
X11789524Y-14611667D01*
X11808571Y-14602143D01*
X11837143Y-14602143D01*
X11856190Y-14611667D01*
X11865714Y-14630714D01*
X11865714Y-14735476D01*
X11989524Y-14735476D02*
X11970476Y-14725952D01*
X11960952Y-14716428D01*
X11951428Y-14697381D01*
X11951428Y-14640238D01*
X11960952Y-14621190D01*
X11970476Y-14611667D01*
X11989524Y-14602143D01*
X12018095Y-14602143D01*
X12037143Y-14611667D01*
X12046667Y-14621190D01*
X12056190Y-14640238D01*
X12056190Y-14697381D01*
X12046667Y-14716428D01*
X12037143Y-14725952D01*
X12018095Y-14735476D01*
X11989524Y-14735476D01*
X12113333Y-14602143D02*
X12189524Y-14602143D01*
X12141905Y-14535476D02*
X12141905Y-14706905D01*
X12151428Y-14725952D01*
X12170476Y-14735476D01*
X12189524Y-14735476D01*
X12408571Y-14602143D02*
X12408571Y-14802143D01*
X12408571Y-14611667D02*
X12427619Y-14602143D01*
X12465714Y-14602143D01*
X12484762Y-14611667D01*
X12494286Y-14621190D01*
X12503809Y-14640238D01*
X12503809Y-14697381D01*
X12494286Y-14716428D01*
X12484762Y-14725952D01*
X12465714Y-14735476D01*
X12427619Y-14735476D01*
X12408571Y-14725952D01*
X12618095Y-14735476D02*
X12599048Y-14725952D01*
X12589524Y-14706905D01*
X12589524Y-14535476D01*
X12780000Y-14735476D02*
X12780000Y-14630714D01*
X12770476Y-14611667D01*
X12751428Y-14602143D01*
X12713333Y-14602143D01*
X12694286Y-14611667D01*
X12780000Y-14725952D02*
X12760952Y-14735476D01*
X12713333Y-14735476D01*
X12694286Y-14725952D01*
X12684762Y-14706905D01*
X12684762Y-14687857D01*
X12694286Y-14668809D01*
X12713333Y-14659286D01*
X12760952Y-14659286D01*
X12780000Y-14649762D01*
X12846667Y-14602143D02*
X12922857Y-14602143D01*
X12875238Y-14535476D02*
X12875238Y-14706905D01*
X12884762Y-14725952D01*
X12903809Y-14735476D01*
X12922857Y-14735476D01*
X13065714Y-14725952D02*
X13046667Y-14735476D01*
X13008571Y-14735476D01*
X12989524Y-14725952D01*
X12980000Y-14706905D01*
X12980000Y-14630714D01*
X12989524Y-14611667D01*
X13008571Y-14602143D01*
X13046667Y-14602143D01*
X13065714Y-14611667D01*
X13075238Y-14630714D01*
X13075238Y-14649762D01*
X12980000Y-14668809D01*
X13246667Y-14735476D02*
X13246667Y-14535476D01*
X13246667Y-14725952D02*
X13227619Y-14735476D01*
X13189524Y-14735476D01*
X13170476Y-14725952D01*
X13160952Y-14716428D01*
X13151428Y-14697381D01*
X13151428Y-14640238D01*
X13160952Y-14621190D01*
X13170476Y-14611667D01*
X13189524Y-14602143D01*
X13227619Y-14602143D01*
X13246667Y-14611667D01*
X13322857Y-14811667D02*
X13332381Y-14802143D01*
X13351428Y-14773571D01*
X13360952Y-14754524D01*
X13370476Y-14725952D01*
X13380000Y-14678333D01*
X13380000Y-14640238D01*
X13370476Y-14592619D01*
X13360952Y-14564048D01*
X13351428Y-14545000D01*
X13332381Y-14516428D01*
X13322857Y-14506905D01*
M02*
