G04 #@! TF.GenerationSoftware,KiCad,Pcbnew,(6.0.7-1)-1*
G04 #@! TF.CreationDate,2022-08-22T21:17:03+02:00*
G04 #@! TF.ProjectId,FROST-ESC,46524f53-542d-4455-9343-2e6b69636164,rev?*
G04 #@! TF.SameCoordinates,Original*
G04 #@! TF.FileFunction,Soldermask,Bot*
G04 #@! TF.FilePolarity,Negative*
%FSLAX46Y46*%
G04 Gerber Fmt 4.6, Leading zero omitted, Abs format (unit mm)*
G04 Created by KiCad (PCBNEW (6.0.7-1)-1) date 2022-08-22 21:17:03*
%MOMM*%
%LPD*%
G01*
G04 APERTURE LIST*
G04 Aperture macros list*
%AMRoundRect*
0 Rectangle with rounded corners*
0 $1 Rounding radius*
0 $2 $3 $4 $5 $6 $7 $8 $9 X,Y pos of 4 corners*
0 Add a 4 corners polygon primitive as box body*
4,1,4,$2,$3,$4,$5,$6,$7,$8,$9,$2,$3,0*
0 Add four circle primitives for the rounded corners*
1,1,$1+$1,$2,$3*
1,1,$1+$1,$4,$5*
1,1,$1+$1,$6,$7*
1,1,$1+$1,$8,$9*
0 Add four rect primitives between the rounded corners*
20,1,$1+$1,$2,$3,$4,$5,0*
20,1,$1+$1,$4,$5,$6,$7,0*
20,1,$1+$1,$6,$7,$8,$9,0*
20,1,$1+$1,$8,$9,$2,$3,0*%
%AMFreePoly0*
4,1,9,3.862500,-0.866500,0.737500,-0.866500,0.737500,-0.450000,-0.737500,-0.450000,-0.737500,0.450000,0.737500,0.450000,0.737500,0.866500,3.862500,0.866500,3.862500,-0.866500,3.862500,-0.866500,$1*%
G04 Aperture macros list end*
%ADD10R,0.850000X0.850000*%
%ADD11O,0.850000X0.850000*%
%ADD12R,1.700000X1.700000*%
%ADD13O,1.700000X1.700000*%
%ADD14R,1.300000X0.900000*%
%ADD15FreePoly0,180.000000*%
%ADD16R,1.350000X1.350000*%
%ADD17O,1.350000X1.350000*%
%ADD18R,1.905000X2.000000*%
%ADD19O,1.905000X2.000000*%
%ADD20RoundRect,0.249999X-1.300001X-1.300001X1.300001X-1.300001X1.300001X1.300001X-1.300001X1.300001X0*%
%ADD21R,0.840000X0.840000*%
%ADD22C,0.840000*%
%ADD23O,1.850000X0.850000*%
%ADD24R,1.800000X1.800000*%
%ADD25C,1.800000*%
%ADD26RoundRect,0.250000X-0.450000X0.262500X-0.450000X-0.262500X0.450000X-0.262500X0.450000X0.262500X0*%
%ADD27RoundRect,0.150000X-0.825000X-0.150000X0.825000X-0.150000X0.825000X0.150000X-0.825000X0.150000X0*%
%ADD28RoundRect,0.150000X0.150000X-0.512500X0.150000X0.512500X-0.150000X0.512500X-0.150000X-0.512500X0*%
%ADD29RoundRect,0.250000X-0.262500X-0.450000X0.262500X-0.450000X0.262500X0.450000X-0.262500X0.450000X0*%
%ADD30RoundRect,0.250000X0.475000X-0.250000X0.475000X0.250000X-0.475000X0.250000X-0.475000X-0.250000X0*%
%ADD31RoundRect,0.250000X-1.100000X0.325000X-1.100000X-0.325000X1.100000X-0.325000X1.100000X0.325000X0*%
%ADD32RoundRect,0.250000X-0.250000X-0.475000X0.250000X-0.475000X0.250000X0.475000X-0.250000X0.475000X0*%
%ADD33R,0.900000X1.300000*%
%ADD34FreePoly0,270.000000*%
%ADD35RoundRect,0.250000X0.250000X0.475000X-0.250000X0.475000X-0.250000X-0.475000X0.250000X-0.475000X0*%
%ADD36RoundRect,0.250000X0.262500X0.450000X-0.262500X0.450000X-0.262500X-0.450000X0.262500X-0.450000X0*%
%ADD37RoundRect,0.250000X-0.475000X0.250000X-0.475000X-0.250000X0.475000X-0.250000X0.475000X0.250000X0*%
%ADD38RoundRect,0.250000X0.450000X-0.262500X0.450000X0.262500X-0.450000X0.262500X-0.450000X-0.262500X0*%
%ADD39RoundRect,0.250000X0.650000X-0.325000X0.650000X0.325000X-0.650000X0.325000X-0.650000X-0.325000X0*%
%ADD40R,1.500000X4.000000*%
%ADD41R,3.700000X1.200000*%
%ADD42RoundRect,0.150000X0.512500X0.150000X-0.512500X0.150000X-0.512500X-0.150000X0.512500X-0.150000X0*%
%ADD43RoundRect,0.150000X-0.650000X-0.150000X0.650000X-0.150000X0.650000X0.150000X-0.650000X0.150000X0*%
%ADD44R,2.410000X3.100000*%
%ADD45RoundRect,0.250000X-0.325000X-0.650000X0.325000X-0.650000X0.325000X0.650000X-0.325000X0.650000X0*%
%ADD46R,0.900000X1.200000*%
G04 APERTURE END LIST*
D10*
X91600000Y-81610000D03*
D11*
X91600000Y-82610000D03*
X91600000Y-83610000D03*
X91600000Y-84610000D03*
D12*
X61920000Y-60170000D03*
D13*
X61920000Y-62710000D03*
D14*
X92150000Y-75850000D03*
D15*
X92062500Y-77350000D03*
D14*
X92150000Y-78850000D03*
D16*
X133350000Y-63150000D03*
D17*
X133350000Y-61150000D03*
D16*
X110550000Y-84000000D03*
D17*
X110550000Y-82000000D03*
X110550000Y-80000000D03*
D16*
X133350000Y-66150000D03*
D17*
X133350000Y-68150000D03*
D16*
X127300000Y-69150000D03*
D17*
X127300000Y-67150000D03*
X127300000Y-65150000D03*
X127300000Y-63150000D03*
X127300000Y-61150000D03*
D18*
X111460000Y-42500000D03*
D19*
X114000000Y-42500000D03*
X116540000Y-42500000D03*
D16*
X130300000Y-73150000D03*
D17*
X130300000Y-71150000D03*
X130300000Y-69150000D03*
X130300000Y-67150000D03*
X130300000Y-65150000D03*
X130300000Y-63150000D03*
X130300000Y-61150000D03*
D16*
X97950000Y-84900000D03*
D17*
X97950000Y-82900000D03*
X97950000Y-80900000D03*
X97950000Y-78900000D03*
X97950000Y-76900000D03*
X97950000Y-74900000D03*
D20*
X62900000Y-53200000D03*
D18*
X100460000Y-42500000D03*
D19*
X103000000Y-42500000D03*
X105540000Y-42500000D03*
D18*
X67460000Y-42500000D03*
D19*
X70000000Y-42500000D03*
X72540000Y-42500000D03*
D18*
X122460000Y-42500000D03*
D19*
X125000000Y-42500000D03*
X127540000Y-42500000D03*
D17*
X130300000Y-78200000D03*
D16*
X130300000Y-76200000D03*
D20*
X119500000Y-49400000D03*
D18*
X89460000Y-42500000D03*
D19*
X92000000Y-42500000D03*
X94540000Y-42500000D03*
D18*
X78460000Y-42500000D03*
D19*
X81000000Y-42500000D03*
X83540000Y-42500000D03*
D21*
X94670000Y-79700000D03*
D22*
X93670000Y-80350000D03*
X94670000Y-81000000D03*
X93670000Y-81650000D03*
X94670000Y-82300000D03*
D23*
X94450000Y-77425000D03*
X94450000Y-84575000D03*
D20*
X62500000Y-45500000D03*
D24*
X66050000Y-49600000D03*
D25*
X66050000Y-54600000D03*
D20*
X97500000Y-49400000D03*
X75650000Y-49400000D03*
D26*
X112550000Y-58987500D03*
X112550000Y-60812500D03*
D27*
X116525000Y-83005000D03*
X116525000Y-81735000D03*
X116525000Y-80465000D03*
X116525000Y-79195000D03*
X121475000Y-79195000D03*
X121475000Y-80465000D03*
X121475000Y-81735000D03*
X121475000Y-83005000D03*
D28*
X102100000Y-66737500D03*
X101150000Y-66737500D03*
X100200000Y-66737500D03*
X100200000Y-64462500D03*
X101150000Y-64462500D03*
X102100000Y-64462500D03*
D29*
X124037500Y-81650000D03*
X125862500Y-81650000D03*
D30*
X90800000Y-73800000D03*
X90800000Y-71900000D03*
D31*
X89450000Y-47425000D03*
X89450000Y-50375000D03*
D32*
X105100000Y-74750000D03*
X107000000Y-74750000D03*
D33*
X92850000Y-70400000D03*
D34*
X94350000Y-70487500D03*
D33*
X95850000Y-70400000D03*
D32*
X101150000Y-76600000D03*
X103050000Y-76600000D03*
D35*
X103100000Y-74200000D03*
X101200000Y-74200000D03*
D26*
X113450000Y-67537500D03*
X113450000Y-69362500D03*
D36*
X103012500Y-78550000D03*
X101187500Y-78550000D03*
D28*
X102050000Y-71887500D03*
X101100000Y-71887500D03*
X100150000Y-71887500D03*
X100150000Y-69612500D03*
X101100000Y-69612500D03*
X102050000Y-69612500D03*
D26*
X114450000Y-62387500D03*
X114450000Y-64212500D03*
D37*
X97900000Y-70300000D03*
X97900000Y-72200000D03*
D31*
X68850000Y-47425000D03*
X68850000Y-50375000D03*
X111200000Y-47425000D03*
X111200000Y-50375000D03*
D38*
X68600000Y-60512500D03*
X68600000Y-58687500D03*
D31*
X72050000Y-47425000D03*
X72050000Y-50375000D03*
D30*
X78900000Y-61000000D03*
X78900000Y-59100000D03*
D39*
X75300000Y-75375000D03*
X75300000Y-78325000D03*
D31*
X114400000Y-47425000D03*
X114400000Y-50375000D03*
D29*
X105137500Y-78600000D03*
X106962500Y-78600000D03*
X103987500Y-71800000D03*
X105812500Y-71800000D03*
D26*
X84750000Y-79637500D03*
X84750000Y-81462500D03*
D40*
X77000000Y-68050000D03*
X80600000Y-68050000D03*
D36*
X106962500Y-83100000D03*
X105137500Y-83100000D03*
X82812500Y-58100000D03*
X80987500Y-58100000D03*
D29*
X103987500Y-62000000D03*
X105812500Y-62000000D03*
D32*
X88100000Y-81250000D03*
X90000000Y-81250000D03*
D39*
X82950000Y-66025000D03*
X82950000Y-63075000D03*
D26*
X118950000Y-74887500D03*
X118950000Y-76712500D03*
D37*
X127650000Y-79450000D03*
X127650000Y-81350000D03*
D26*
X120850000Y-74887500D03*
X120850000Y-76712500D03*
D29*
X66987500Y-56950000D03*
X68812500Y-56950000D03*
X101187500Y-85000000D03*
X103012500Y-85000000D03*
D37*
X118700000Y-66350000D03*
X118700000Y-68250000D03*
D36*
X76862500Y-58100000D03*
X75037500Y-58100000D03*
D41*
X78850000Y-78050000D03*
X78850000Y-75250000D03*
D30*
X82200000Y-79750000D03*
X82200000Y-77850000D03*
D35*
X105850000Y-65950000D03*
X103950000Y-65950000D03*
D26*
X114450000Y-58987500D03*
X114450000Y-60812500D03*
D42*
X80187500Y-79950000D03*
X80187500Y-80900000D03*
X80187500Y-81850000D03*
X77912500Y-81850000D03*
X77912500Y-80900000D03*
X77912500Y-79950000D03*
D28*
X102100000Y-61737500D03*
X101150000Y-61737500D03*
X100200000Y-61737500D03*
X100200000Y-59462500D03*
X101150000Y-59462500D03*
X102100000Y-59462500D03*
D43*
X71300000Y-63705000D03*
X71300000Y-62435000D03*
X71300000Y-61165000D03*
X71300000Y-59895000D03*
X76600000Y-59895000D03*
X76600000Y-61165000D03*
X76600000Y-62435000D03*
X76600000Y-63705000D03*
D44*
X73950000Y-61800000D03*
D32*
X103950000Y-58050000D03*
X105850000Y-58050000D03*
D30*
X88800000Y-71900000D03*
X88800000Y-73800000D03*
D31*
X92700000Y-47425000D03*
X92700000Y-50375000D03*
D37*
X114100000Y-80400000D03*
X114100000Y-82300000D03*
D26*
X120650000Y-66387500D03*
X120650000Y-68212500D03*
X111500000Y-67537500D03*
X111500000Y-69362500D03*
X75400000Y-80037500D03*
X75400000Y-81862500D03*
D29*
X103987500Y-67900000D03*
X105812500Y-67900000D03*
D36*
X125862500Y-79700000D03*
X124037500Y-79700000D03*
D31*
X65950000Y-60925000D03*
X65950000Y-63875000D03*
D45*
X86975000Y-83550000D03*
X89925000Y-83550000D03*
D46*
X80900000Y-60950000D03*
X84200000Y-60950000D03*
D37*
X68600000Y-62050000D03*
X68600000Y-63950000D03*
D32*
X105100000Y-81150000D03*
X107000000Y-81150000D03*
D35*
X105850000Y-60050000D03*
X103950000Y-60050000D03*
D37*
X78900000Y-62600000D03*
X78900000Y-64500000D03*
D26*
X84750000Y-83087500D03*
X84750000Y-84912500D03*
D35*
X103050000Y-83050000D03*
X101150000Y-83050000D03*
D32*
X103950000Y-63950000D03*
X105850000Y-63950000D03*
D29*
X105137500Y-85000000D03*
X106962500Y-85000000D03*
D32*
X103950000Y-69850000D03*
X105850000Y-69850000D03*
D36*
X106962500Y-76700000D03*
X105137500Y-76700000D03*
D26*
X132700000Y-70137500D03*
X132700000Y-71962500D03*
X112550000Y-62387500D03*
X112550000Y-64212500D03*
D29*
X101187500Y-80500000D03*
X103012500Y-80500000D03*
G36*
X115692121Y-50920002D02*
G01*
X115738614Y-50973658D01*
X115750000Y-51026000D01*
X115750000Y-52020985D01*
X115754475Y-52036224D01*
X115755884Y-52037445D01*
X115763524Y-52039110D01*
X115859901Y-52039183D01*
X115928007Y-52059237D01*
X115974459Y-52112927D01*
X115984510Y-52183209D01*
X115967873Y-52229971D01*
X115964370Y-52235814D01*
X115957511Y-52246079D01*
X115950033Y-52256163D01*
X115942179Y-52265733D01*
X115933756Y-52275025D01*
X115925025Y-52283756D01*
X115915733Y-52292179D01*
X115906163Y-52300033D01*
X115896079Y-52307511D01*
X115885810Y-52314373D01*
X115875052Y-52320822D01*
X115864141Y-52326654D01*
X115852798Y-52332019D01*
X115841371Y-52336752D01*
X115829565Y-52340976D01*
X115817733Y-52344565D01*
X115805552Y-52347616D01*
X115793426Y-52350028D01*
X115781015Y-52351869D01*
X115768709Y-52353081D01*
X115753094Y-52353848D01*
X115746912Y-52354000D01*
X109903088Y-52354000D01*
X109896906Y-52353848D01*
X109881291Y-52353081D01*
X109868985Y-52351869D01*
X109856574Y-52350028D01*
X109844448Y-52347616D01*
X109832267Y-52344565D01*
X109820435Y-52340976D01*
X109808629Y-52336752D01*
X109797202Y-52332019D01*
X109785859Y-52326654D01*
X109774948Y-52320822D01*
X109764190Y-52314373D01*
X109753921Y-52307511D01*
X109743837Y-52300033D01*
X109734267Y-52292179D01*
X109724975Y-52283756D01*
X109716244Y-52275025D01*
X109707821Y-52265733D01*
X109699967Y-52256163D01*
X109692489Y-52246079D01*
X109685623Y-52235802D01*
X109679380Y-52225386D01*
X109661515Y-52156674D01*
X109683636Y-52089211D01*
X109738718Y-52044417D01*
X109787549Y-52034610D01*
X109881883Y-52034681D01*
X109897127Y-52030218D01*
X109898318Y-52028845D01*
X109900000Y-52021126D01*
X109900000Y-51026000D01*
X109920002Y-50957879D01*
X109973658Y-50911386D01*
X110026000Y-50900000D01*
X115624000Y-50900000D01*
X115692121Y-50920002D01*
G37*
G36*
X73292121Y-50920002D02*
G01*
X73338614Y-50973658D01*
X73350000Y-51026000D01*
X73350000Y-51989057D01*
X73354475Y-52004296D01*
X73355884Y-52005517D01*
X73363524Y-52007182D01*
X73478094Y-52007268D01*
X73546200Y-52027321D01*
X73592653Y-52081012D01*
X73604000Y-52133268D01*
X73604000Y-52146912D01*
X73603848Y-52153094D01*
X73603081Y-52168709D01*
X73601869Y-52181015D01*
X73600028Y-52193426D01*
X73597616Y-52205552D01*
X73594565Y-52217733D01*
X73590976Y-52229565D01*
X73586752Y-52241371D01*
X73582019Y-52252798D01*
X73576654Y-52264141D01*
X73570822Y-52275052D01*
X73564373Y-52285810D01*
X73557511Y-52296079D01*
X73550033Y-52306163D01*
X73542179Y-52315733D01*
X73533756Y-52325025D01*
X73525025Y-52333756D01*
X73515733Y-52342179D01*
X73506163Y-52350033D01*
X73496079Y-52357511D01*
X73485810Y-52364373D01*
X73475052Y-52370822D01*
X73464141Y-52376654D01*
X73452798Y-52382019D01*
X73441371Y-52386752D01*
X73429565Y-52390976D01*
X73417733Y-52394565D01*
X73405552Y-52397616D01*
X73393426Y-52400028D01*
X73381015Y-52401869D01*
X73368709Y-52403081D01*
X73353094Y-52403848D01*
X73346912Y-52404000D01*
X67503088Y-52404000D01*
X67496906Y-52403848D01*
X67481291Y-52403081D01*
X67468985Y-52401869D01*
X67456574Y-52400028D01*
X67444448Y-52397616D01*
X67432267Y-52394565D01*
X67420435Y-52390976D01*
X67408629Y-52386752D01*
X67397202Y-52382019D01*
X67385859Y-52376654D01*
X67374948Y-52370822D01*
X67364190Y-52364373D01*
X67353921Y-52357511D01*
X67343837Y-52350033D01*
X67334267Y-52342179D01*
X67324975Y-52333756D01*
X67316244Y-52325025D01*
X67307821Y-52315733D01*
X67299967Y-52306163D01*
X67292489Y-52296079D01*
X67285627Y-52285810D01*
X67279178Y-52275052D01*
X67273346Y-52264141D01*
X67267981Y-52252798D01*
X67263248Y-52241371D01*
X67259024Y-52229565D01*
X67255435Y-52217733D01*
X67252384Y-52205552D01*
X67249972Y-52193426D01*
X67248131Y-52181015D01*
X67246919Y-52168709D01*
X67246152Y-52153094D01*
X67246000Y-52146912D01*
X67246000Y-52128670D01*
X67266002Y-52060549D01*
X67319658Y-52014056D01*
X67372095Y-52002670D01*
X67481882Y-52002752D01*
X67497127Y-51998289D01*
X67498318Y-51996916D01*
X67500000Y-51989197D01*
X67500000Y-51026000D01*
X67520002Y-50957879D01*
X67573658Y-50911386D01*
X67626000Y-50900000D01*
X73224000Y-50900000D01*
X73292121Y-50920002D01*
G37*
G36*
X68469770Y-43520002D02*
G01*
X68485939Y-43532345D01*
X69436534Y-44387881D01*
X69461803Y-44400000D01*
X87531885Y-44400000D01*
X87557530Y-44392470D01*
X88413095Y-43536905D01*
X88475407Y-43502879D01*
X88502190Y-43500000D01*
X90408000Y-43500000D01*
X90476121Y-43520002D01*
X90483600Y-43525200D01*
X91635507Y-44389130D01*
X91664570Y-44400000D01*
X109331885Y-44400000D01*
X109360878Y-44391487D01*
X110465789Y-43526774D01*
X110531762Y-43500543D01*
X110543444Y-43500000D01*
X112356556Y-43500000D01*
X112424677Y-43520002D01*
X112434211Y-43526774D01*
X113535733Y-44388835D01*
X113563815Y-44400000D01*
X115874000Y-44400000D01*
X115942121Y-44420002D01*
X115988614Y-44473658D01*
X116000000Y-44526000D01*
X116000000Y-46774000D01*
X115979998Y-46842121D01*
X115926342Y-46888614D01*
X115874000Y-46900000D01*
X66918115Y-46900000D01*
X66902876Y-46904475D01*
X66901671Y-46905865D01*
X66900000Y-46913548D01*
X66900000Y-48674000D01*
X66879998Y-48742121D01*
X66826342Y-48788614D01*
X66774000Y-48800000D01*
X65276000Y-48800000D01*
X65207879Y-48779998D01*
X65161386Y-48726342D01*
X65150000Y-48674000D01*
X65150000Y-46968115D01*
X65145525Y-46952876D01*
X65144135Y-46951671D01*
X65136452Y-46950000D01*
X63526000Y-46950000D01*
X63457879Y-46929998D01*
X63411386Y-46876342D01*
X63400000Y-46824000D01*
X63400000Y-44226000D01*
X63420002Y-44157879D01*
X63473658Y-44111386D01*
X63526000Y-44100000D01*
X65731885Y-44100000D01*
X65761655Y-44091259D01*
X66516400Y-43525200D01*
X66582898Y-43500329D01*
X66592000Y-43500000D01*
X68401649Y-43500000D01*
X68469770Y-43520002D01*
G37*
G36*
X93992121Y-50920002D02*
G01*
X94038614Y-50973658D01*
X94050000Y-51026000D01*
X94050000Y-52004645D01*
X94054475Y-52019884D01*
X94055884Y-52021105D01*
X94063524Y-52022770D01*
X94168239Y-52022849D01*
X94236345Y-52042902D01*
X94282797Y-52096593D01*
X94292848Y-52166875D01*
X94286874Y-52191029D01*
X94286847Y-52191105D01*
X94282019Y-52202798D01*
X94276654Y-52214141D01*
X94270822Y-52225052D01*
X94264373Y-52235810D01*
X94257511Y-52246079D01*
X94250033Y-52256163D01*
X94242179Y-52265733D01*
X94233756Y-52275025D01*
X94225025Y-52283756D01*
X94215733Y-52292179D01*
X94206163Y-52300033D01*
X94196079Y-52307511D01*
X94185810Y-52314373D01*
X94175052Y-52320822D01*
X94164141Y-52326654D01*
X94152798Y-52332019D01*
X94141371Y-52336752D01*
X94129565Y-52340976D01*
X94117733Y-52344565D01*
X94105552Y-52347616D01*
X94093426Y-52350028D01*
X94081015Y-52351869D01*
X94068709Y-52353081D01*
X94053094Y-52353848D01*
X94046912Y-52354000D01*
X88203088Y-52354000D01*
X88196906Y-52353848D01*
X88181291Y-52353081D01*
X88168985Y-52351869D01*
X88156574Y-52350028D01*
X88144448Y-52347616D01*
X88132267Y-52344565D01*
X88120435Y-52340976D01*
X88108629Y-52336752D01*
X88097202Y-52332019D01*
X88085859Y-52326654D01*
X88074948Y-52320822D01*
X88064190Y-52314373D01*
X88053921Y-52307511D01*
X88043837Y-52300033D01*
X88034267Y-52292179D01*
X88024975Y-52283756D01*
X88016244Y-52275025D01*
X88007821Y-52265733D01*
X87999967Y-52256163D01*
X87992489Y-52246079D01*
X87985627Y-52235810D01*
X87979178Y-52225052D01*
X87973346Y-52214141D01*
X87967981Y-52202798D01*
X87963243Y-52191357D01*
X87961576Y-52186696D01*
X87957469Y-52115818D01*
X87992334Y-52053972D01*
X88055101Y-52020792D01*
X88080311Y-52018264D01*
X88181882Y-52018340D01*
X88197127Y-52013877D01*
X88198318Y-52012504D01*
X88200000Y-52004785D01*
X88200000Y-51026000D01*
X88220002Y-50957879D01*
X88273658Y-50911386D01*
X88326000Y-50900000D01*
X93924000Y-50900000D01*
X93992121Y-50920002D01*
G37*
G36*
X131022387Y-52050601D02*
G01*
X131090493Y-52070654D01*
X131136945Y-52124345D01*
X131148292Y-52176624D01*
X131147865Y-54474355D01*
X131127850Y-54542472D01*
X131074186Y-54588955D01*
X131021864Y-54600332D01*
X63926577Y-54599619D01*
X63858456Y-54579616D01*
X63811964Y-54525960D01*
X63800578Y-54473596D01*
X63801005Y-52126053D01*
X63821019Y-52057936D01*
X63874684Y-52011453D01*
X63927100Y-52000076D01*
X131022387Y-52050601D01*
G37*
M02*
