G04 #@! TF.GenerationSoftware,KiCad,Pcbnew,(6.0.7-1)-1*
G04 #@! TF.CreationDate,2022-08-22T21:17:03+02:00*
G04 #@! TF.ProjectId,FROST-ESC,46524f53-542d-4455-9343-2e6b69636164,rev?*
G04 #@! TF.SameCoordinates,Original*
G04 #@! TF.FileFunction,Legend,Top*
G04 #@! TF.FilePolarity,Positive*
%FSLAX46Y46*%
G04 Gerber Fmt 4.6, Leading zero omitted, Abs format (unit mm)*
G04 Created by KiCad (PCBNEW (6.0.7-1)-1) date 2022-08-22 21:17:03*
%MOMM*%
%LPD*%
G01*
G04 APERTURE LIST*
G04 Aperture macros list*
%AMRoundRect*
0 Rectangle with rounded corners*
0 $1 Rounding radius*
0 $2 $3 $4 $5 $6 $7 $8 $9 X,Y pos of 4 corners*
0 Add a 4 corners polygon primitive as box body*
4,1,4,$2,$3,$4,$5,$6,$7,$8,$9,$2,$3,0*
0 Add four circle primitives for the rounded corners*
1,1,$1+$1,$2,$3*
1,1,$1+$1,$4,$5*
1,1,$1+$1,$6,$7*
1,1,$1+$1,$8,$9*
0 Add four rect primitives between the rounded corners*
20,1,$1+$1,$2,$3,$4,$5,0*
20,1,$1+$1,$4,$5,$6,$7,0*
20,1,$1+$1,$6,$7,$8,$9,0*
20,1,$1+$1,$8,$9,$2,$3,0*%
G04 Aperture macros list end*
%ADD10C,0.150000*%
%ADD11C,0.300000*%
%ADD12C,0.125000*%
%ADD13C,0.100000*%
%ADD14C,0.120000*%
%ADD15C,0.381000*%
%ADD16C,0.500000*%
%ADD17R,0.850000X0.850000*%
%ADD18O,0.850000X0.850000*%
%ADD19R,1.700000X1.700000*%
%ADD20O,1.700000X1.700000*%
%ADD21RoundRect,0.080000X-0.320000X0.720000X-0.320000X-0.720000X0.320000X-0.720000X0.320000X0.720000X0*%
%ADD22RoundRect,0.080000X-0.720000X-0.320000X0.720000X-0.320000X0.720000X0.320000X-0.720000X0.320000X0*%
%ADD23R,1.200000X3.400000*%
%ADD24R,0.600000X3.400000*%
%ADD25RoundRect,0.100000X0.100000X-0.637500X0.100000X0.637500X-0.100000X0.637500X-0.100000X-0.637500X0*%
%ADD26R,1.350000X1.350000*%
%ADD27O,1.350000X1.350000*%
%ADD28RoundRect,0.250000X-0.475000X0.250000X-0.475000X-0.250000X0.475000X-0.250000X0.475000X0.250000X0*%
%ADD29RoundRect,0.250000X0.475000X-0.250000X0.475000X0.250000X-0.475000X0.250000X-0.475000X-0.250000X0*%
%ADD30RoundRect,0.250000X-0.250000X-0.475000X0.250000X-0.475000X0.250000X0.475000X-0.250000X0.475000X0*%
%ADD31RoundRect,0.250000X0.450000X-0.262500X0.450000X0.262500X-0.450000X0.262500X-0.450000X-0.262500X0*%
%ADD32R,1.905000X2.000000*%
%ADD33O,1.905000X2.000000*%
%ADD34R,0.700000X0.450000*%
%ADD35RoundRect,0.243750X0.456250X-0.243750X0.456250X0.243750X-0.456250X0.243750X-0.456250X-0.243750X0*%
%ADD36R,0.600000X0.450000*%
%ADD37RoundRect,0.250000X0.250000X0.475000X-0.250000X0.475000X-0.250000X-0.475000X0.250000X-0.475000X0*%
%ADD38RoundRect,0.250000X-0.450000X0.262500X-0.450000X-0.262500X0.450000X-0.262500X0.450000X0.262500X0*%
%ADD39R,2.400000X2.000000*%
%ADD40RoundRect,0.249999X-1.300001X-1.300001X1.300001X-1.300001X1.300001X1.300001X-1.300001X1.300001X0*%
%ADD41RoundRect,0.250000X-0.262500X-0.450000X0.262500X-0.450000X0.262500X0.450000X-0.262500X0.450000X0*%
%ADD42RoundRect,0.075000X0.700000X0.075000X-0.700000X0.075000X-0.700000X-0.075000X0.700000X-0.075000X0*%
%ADD43RoundRect,0.075000X0.075000X0.700000X-0.075000X0.700000X-0.075000X-0.700000X0.075000X-0.700000X0*%
%ADD44C,1.000000*%
%ADD45R,0.840000X0.840000*%
%ADD46C,0.840000*%
%ADD47O,1.850000X0.850000*%
%ADD48R,1.800000X1.800000*%
%ADD49C,1.800000*%
G04 APERTURE END LIST*
D10*
X107113809Y-70154523D02*
X107113809Y-70761666D01*
X107073333Y-70883095D01*
X106992380Y-70964047D01*
X106870952Y-71004523D01*
X106790000Y-71004523D01*
X107923333Y-71004523D02*
X107518571Y-71004523D01*
X107518571Y-70154523D01*
X108692380Y-70923571D02*
X108651904Y-70964047D01*
X108530476Y-71004523D01*
X108449523Y-71004523D01*
X108328095Y-70964047D01*
X108247142Y-70883095D01*
X108206666Y-70802142D01*
X108166190Y-70640238D01*
X108166190Y-70518809D01*
X108206666Y-70356904D01*
X108247142Y-70275952D01*
X108328095Y-70195000D01*
X108449523Y-70154523D01*
X108530476Y-70154523D01*
X108651904Y-70195000D01*
X108692380Y-70235476D01*
X109299523Y-70154523D02*
X109299523Y-70761666D01*
X109259047Y-70883095D01*
X109178095Y-70964047D01*
X109056666Y-71004523D01*
X108975714Y-71004523D01*
X110109047Y-71004523D02*
X109704285Y-71004523D01*
X109704285Y-70154523D01*
X110878095Y-70923571D02*
X110837619Y-70964047D01*
X110716190Y-71004523D01*
X110635238Y-71004523D01*
X110513809Y-70964047D01*
X110432857Y-70883095D01*
X110392380Y-70802142D01*
X110351904Y-70640238D01*
X110351904Y-70518809D01*
X110392380Y-70356904D01*
X110432857Y-70275952D01*
X110513809Y-70195000D01*
X110635238Y-70154523D01*
X110716190Y-70154523D01*
X110837619Y-70195000D01*
X110878095Y-70235476D01*
X111485238Y-70154523D02*
X111485238Y-70761666D01*
X111444761Y-70883095D01*
X111363809Y-70964047D01*
X111242380Y-71004523D01*
X111161428Y-71004523D01*
X112294761Y-71004523D02*
X111890000Y-71004523D01*
X111890000Y-70154523D01*
X113063809Y-70923571D02*
X113023333Y-70964047D01*
X112901904Y-71004523D01*
X112820952Y-71004523D01*
X112699523Y-70964047D01*
X112618571Y-70883095D01*
X112578095Y-70802142D01*
X112537619Y-70640238D01*
X112537619Y-70518809D01*
X112578095Y-70356904D01*
X112618571Y-70275952D01*
X112699523Y-70195000D01*
X112820952Y-70154523D01*
X112901904Y-70154523D01*
X113023333Y-70195000D01*
X113063809Y-70235476D01*
X113670952Y-70154523D02*
X113670952Y-70761666D01*
X113630476Y-70883095D01*
X113549523Y-70964047D01*
X113428095Y-71004523D01*
X113347142Y-71004523D01*
X114480476Y-71004523D02*
X114075714Y-71004523D01*
X114075714Y-70154523D01*
X115249523Y-70923571D02*
X115209047Y-70964047D01*
X115087619Y-71004523D01*
X115006666Y-71004523D01*
X114885238Y-70964047D01*
X114804285Y-70883095D01*
X114763809Y-70802142D01*
X114723333Y-70640238D01*
X114723333Y-70518809D01*
X114763809Y-70356904D01*
X114804285Y-70275952D01*
X114885238Y-70195000D01*
X115006666Y-70154523D01*
X115087619Y-70154523D01*
X115209047Y-70195000D01*
X115249523Y-70235476D01*
D11*
X60957142Y-41764285D02*
X63242857Y-41764285D01*
X62100000Y-42907142D02*
X62100000Y-40621428D01*
X60707142Y-56614285D02*
X62992857Y-56614285D01*
D10*
X91286666Y-85872380D02*
X91286666Y-86586666D01*
X91239047Y-86729523D01*
X91143809Y-86824761D01*
X91000952Y-86872380D01*
X90905714Y-86872380D01*
X91810476Y-86872380D02*
X92000952Y-86872380D01*
X92096190Y-86824761D01*
X92143809Y-86777142D01*
X92239047Y-86634285D01*
X92286666Y-86443809D01*
X92286666Y-86062857D01*
X92239047Y-85967619D01*
X92191428Y-85920000D01*
X92096190Y-85872380D01*
X91905714Y-85872380D01*
X91810476Y-85920000D01*
X91762857Y-85967619D01*
X91715238Y-86062857D01*
X91715238Y-86300952D01*
X91762857Y-86396190D01*
X91810476Y-86443809D01*
X91905714Y-86491428D01*
X92096190Y-86491428D01*
X92191428Y-86443809D01*
X92239047Y-86396190D01*
X92286666Y-86300952D01*
X61586666Y-57292380D02*
X61586666Y-58006666D01*
X61539047Y-58149523D01*
X61443809Y-58244761D01*
X61300952Y-58292380D01*
X61205714Y-58292380D01*
X62205714Y-57720952D02*
X62110476Y-57673333D01*
X62062857Y-57625714D01*
X62015238Y-57530476D01*
X62015238Y-57482857D01*
X62062857Y-57387619D01*
X62110476Y-57340000D01*
X62205714Y-57292380D01*
X62396190Y-57292380D01*
X62491428Y-57340000D01*
X62539047Y-57387619D01*
X62586666Y-57482857D01*
X62586666Y-57530476D01*
X62539047Y-57625714D01*
X62491428Y-57673333D01*
X62396190Y-57720952D01*
X62205714Y-57720952D01*
X62110476Y-57768571D01*
X62062857Y-57816190D01*
X62015238Y-57911428D01*
X62015238Y-58101904D01*
X62062857Y-58197142D01*
X62110476Y-58244761D01*
X62205714Y-58292380D01*
X62396190Y-58292380D01*
X62491428Y-58244761D01*
X62539047Y-58197142D01*
X62586666Y-58101904D01*
X62586666Y-57911428D01*
X62539047Y-57816190D01*
X62491428Y-57768571D01*
X62396190Y-57720952D01*
X64712380Y-77211904D02*
X65521904Y-77211904D01*
X65617142Y-77164285D01*
X65664761Y-77116666D01*
X65712380Y-77021428D01*
X65712380Y-76830952D01*
X65664761Y-76735714D01*
X65617142Y-76688095D01*
X65521904Y-76640476D01*
X64712380Y-76640476D01*
X65712380Y-75640476D02*
X65712380Y-76211904D01*
X65712380Y-75926190D02*
X64712380Y-75926190D01*
X64855238Y-76021428D01*
X64950476Y-76116666D01*
X64998095Y-76211904D01*
X87802380Y-45266666D02*
X87326190Y-45600000D01*
X87802380Y-45838095D02*
X86802380Y-45838095D01*
X86802380Y-45457142D01*
X86850000Y-45361904D01*
X86897619Y-45314285D01*
X86992857Y-45266666D01*
X87135714Y-45266666D01*
X87230952Y-45314285D01*
X87278571Y-45361904D01*
X87326190Y-45457142D01*
X87326190Y-45838095D01*
X86802380Y-44933333D02*
X86802380Y-44266666D01*
X87802380Y-44695238D01*
X109652380Y-46192857D02*
X109176190Y-46526190D01*
X109652380Y-46764285D02*
X108652380Y-46764285D01*
X108652380Y-46383333D01*
X108700000Y-46288095D01*
X108747619Y-46240476D01*
X108842857Y-46192857D01*
X108985714Y-46192857D01*
X109080952Y-46240476D01*
X109128571Y-46288095D01*
X109176190Y-46383333D01*
X109176190Y-46764285D01*
X109652380Y-45240476D02*
X109652380Y-45811904D01*
X109652380Y-45526190D02*
X108652380Y-45526190D01*
X108795238Y-45621428D01*
X108890476Y-45716666D01*
X108938095Y-45811904D01*
X108652380Y-44621428D02*
X108652380Y-44526190D01*
X108700000Y-44430952D01*
X108747619Y-44383333D01*
X108842857Y-44335714D01*
X109033333Y-44288095D01*
X109271428Y-44288095D01*
X109461904Y-44335714D01*
X109557142Y-44383333D01*
X109604761Y-44430952D01*
X109652380Y-44526190D01*
X109652380Y-44621428D01*
X109604761Y-44716666D01*
X109557142Y-44764285D01*
X109461904Y-44811904D01*
X109271428Y-44859523D01*
X109033333Y-44859523D01*
X108842857Y-44811904D01*
X108747619Y-44764285D01*
X108700000Y-44716666D01*
X108652380Y-44621428D01*
X88711904Y-67802380D02*
X88711904Y-68611904D01*
X88759523Y-68707142D01*
X88807142Y-68754761D01*
X88902380Y-68802380D01*
X89092857Y-68802380D01*
X89188095Y-68754761D01*
X89235714Y-68707142D01*
X89283333Y-68611904D01*
X89283333Y-67802380D01*
X90283333Y-68802380D02*
X89711904Y-68802380D01*
X89997619Y-68802380D02*
X89997619Y-67802380D01*
X89902380Y-67945238D01*
X89807142Y-68040476D01*
X89711904Y-68088095D01*
X91235714Y-68802380D02*
X90664285Y-68802380D01*
X90950000Y-68802380D02*
X90950000Y-67802380D01*
X90854761Y-67945238D01*
X90759523Y-68040476D01*
X90664285Y-68088095D01*
X133166666Y-57152380D02*
X133166666Y-57866666D01*
X133119047Y-58009523D01*
X133023809Y-58104761D01*
X132880952Y-58152380D01*
X132785714Y-58152380D01*
X133547619Y-57152380D02*
X134214285Y-57152380D01*
X133785714Y-58152380D01*
X115605714Y-53945714D02*
X115567619Y-53983809D01*
X115453333Y-54021904D01*
X115377142Y-54021904D01*
X115262857Y-53983809D01*
X115186666Y-53907619D01*
X115148571Y-53831428D01*
X115110476Y-53679047D01*
X115110476Y-53564761D01*
X115148571Y-53412380D01*
X115186666Y-53336190D01*
X115262857Y-53260000D01*
X115377142Y-53221904D01*
X115453333Y-53221904D01*
X115567619Y-53260000D01*
X115605714Y-53298095D01*
X116329523Y-53221904D02*
X115948571Y-53221904D01*
X115910476Y-53602857D01*
X115948571Y-53564761D01*
X116024761Y-53526666D01*
X116215238Y-53526666D01*
X116291428Y-53564761D01*
X116329523Y-53602857D01*
X116367619Y-53679047D01*
X116367619Y-53869523D01*
X116329523Y-53945714D01*
X116291428Y-53983809D01*
X116215238Y-54021904D01*
X116024761Y-54021904D01*
X115948571Y-53983809D01*
X115910476Y-53945714D01*
X117053333Y-53488571D02*
X117053333Y-54021904D01*
X116862857Y-53183809D02*
X116672380Y-53755238D01*
X117167619Y-53755238D01*
X104427142Y-61916666D02*
X104474761Y-61964285D01*
X104522380Y-62107142D01*
X104522380Y-62202380D01*
X104474761Y-62345238D01*
X104379523Y-62440476D01*
X104284285Y-62488095D01*
X104093809Y-62535714D01*
X103950952Y-62535714D01*
X103760476Y-62488095D01*
X103665238Y-62440476D01*
X103570000Y-62345238D01*
X103522380Y-62202380D01*
X103522380Y-62107142D01*
X103570000Y-61964285D01*
X103617619Y-61916666D01*
X103950952Y-61345238D02*
X103903333Y-61440476D01*
X103855714Y-61488095D01*
X103760476Y-61535714D01*
X103712857Y-61535714D01*
X103617619Y-61488095D01*
X103570000Y-61440476D01*
X103522380Y-61345238D01*
X103522380Y-61154761D01*
X103570000Y-61059523D01*
X103617619Y-61011904D01*
X103712857Y-60964285D01*
X103760476Y-60964285D01*
X103855714Y-61011904D01*
X103903333Y-61059523D01*
X103950952Y-61154761D01*
X103950952Y-61345238D01*
X103998571Y-61440476D01*
X104046190Y-61488095D01*
X104141428Y-61535714D01*
X104331904Y-61535714D01*
X104427142Y-61488095D01*
X104474761Y-61440476D01*
X104522380Y-61345238D01*
X104522380Y-61154761D01*
X104474761Y-61059523D01*
X104427142Y-61011904D01*
X104331904Y-60964285D01*
X104141428Y-60964285D01*
X104046190Y-61011904D01*
X103998571Y-61059523D01*
X103950952Y-61154761D01*
X119833333Y-69207142D02*
X119785714Y-69254761D01*
X119642857Y-69302380D01*
X119547619Y-69302380D01*
X119404761Y-69254761D01*
X119309523Y-69159523D01*
X119261904Y-69064285D01*
X119214285Y-68873809D01*
X119214285Y-68730952D01*
X119261904Y-68540476D01*
X119309523Y-68445238D01*
X119404761Y-68350000D01*
X119547619Y-68302380D01*
X119642857Y-68302380D01*
X119785714Y-68350000D01*
X119833333Y-68397619D01*
X120738095Y-68302380D02*
X120261904Y-68302380D01*
X120214285Y-68778571D01*
X120261904Y-68730952D01*
X120357142Y-68683333D01*
X120595238Y-68683333D01*
X120690476Y-68730952D01*
X120738095Y-68778571D01*
X120785714Y-68873809D01*
X120785714Y-69111904D01*
X120738095Y-69207142D01*
X120690476Y-69254761D01*
X120595238Y-69302380D01*
X120357142Y-69302380D01*
X120261904Y-69254761D01*
X120214285Y-69207142D01*
X107766666Y-85502380D02*
X107766666Y-86216666D01*
X107719047Y-86359523D01*
X107623809Y-86454761D01*
X107480952Y-86502380D01*
X107385714Y-86502380D01*
X108719047Y-85502380D02*
X108242857Y-85502380D01*
X108195238Y-85978571D01*
X108242857Y-85930952D01*
X108338095Y-85883333D01*
X108576190Y-85883333D01*
X108671428Y-85930952D01*
X108719047Y-85978571D01*
X108766666Y-86073809D01*
X108766666Y-86311904D01*
X108719047Y-86407142D01*
X108671428Y-86454761D01*
X108576190Y-86502380D01*
X108338095Y-86502380D01*
X108242857Y-86454761D01*
X108195238Y-86407142D01*
X133012380Y-71399523D02*
X133726666Y-71399523D01*
X133869523Y-71447142D01*
X133964761Y-71542380D01*
X134012380Y-71685238D01*
X134012380Y-71780476D01*
X134012380Y-70399523D02*
X134012380Y-70970952D01*
X134012380Y-70685238D02*
X133012380Y-70685238D01*
X133155238Y-70780476D01*
X133250476Y-70875714D01*
X133298095Y-70970952D01*
X133012380Y-69780476D02*
X133012380Y-69685238D01*
X133060000Y-69590000D01*
X133107619Y-69542380D01*
X133202857Y-69494761D01*
X133393333Y-69447142D01*
X133631428Y-69447142D01*
X133821904Y-69494761D01*
X133917142Y-69542380D01*
X133964761Y-69590000D01*
X134012380Y-69685238D01*
X134012380Y-69780476D01*
X133964761Y-69875714D01*
X133917142Y-69923333D01*
X133821904Y-69970952D01*
X133631428Y-70018571D01*
X133393333Y-70018571D01*
X133202857Y-69970952D01*
X133107619Y-69923333D01*
X133060000Y-69875714D01*
X133012380Y-69780476D01*
X124566666Y-68552380D02*
X124566666Y-69266666D01*
X124519047Y-69409523D01*
X124423809Y-69504761D01*
X124280952Y-69552380D01*
X124185714Y-69552380D01*
X125471428Y-68552380D02*
X125280952Y-68552380D01*
X125185714Y-68600000D01*
X125138095Y-68647619D01*
X125042857Y-68790476D01*
X124995238Y-68980952D01*
X124995238Y-69361904D01*
X125042857Y-69457142D01*
X125090476Y-69504761D01*
X125185714Y-69552380D01*
X125376190Y-69552380D01*
X125471428Y-69504761D01*
X125519047Y-69457142D01*
X125566666Y-69361904D01*
X125566666Y-69123809D01*
X125519047Y-69028571D01*
X125471428Y-68980952D01*
X125376190Y-68933333D01*
X125185714Y-68933333D01*
X125090476Y-68980952D01*
X125042857Y-69028571D01*
X124995238Y-69123809D01*
X127033333Y-78757142D02*
X126985714Y-78804761D01*
X126842857Y-78852380D01*
X126747619Y-78852380D01*
X126604761Y-78804761D01*
X126509523Y-78709523D01*
X126461904Y-78614285D01*
X126414285Y-78423809D01*
X126414285Y-78280952D01*
X126461904Y-78090476D01*
X126509523Y-77995238D01*
X126604761Y-77900000D01*
X126747619Y-77852380D01*
X126842857Y-77852380D01*
X126985714Y-77900000D01*
X127033333Y-77947619D01*
X127985714Y-78852380D02*
X127414285Y-78852380D01*
X127700000Y-78852380D02*
X127700000Y-77852380D01*
X127604761Y-77995238D01*
X127509523Y-78090476D01*
X127414285Y-78138095D01*
X119657142Y-72357142D02*
X119609523Y-72404761D01*
X119466666Y-72452380D01*
X119371428Y-72452380D01*
X119228571Y-72404761D01*
X119133333Y-72309523D01*
X119085714Y-72214285D01*
X119038095Y-72023809D01*
X119038095Y-71880952D01*
X119085714Y-71690476D01*
X119133333Y-71595238D01*
X119228571Y-71500000D01*
X119371428Y-71452380D01*
X119466666Y-71452380D01*
X119609523Y-71500000D01*
X119657142Y-71547619D01*
X119990476Y-71452380D02*
X120609523Y-71452380D01*
X120276190Y-71833333D01*
X120419047Y-71833333D01*
X120514285Y-71880952D01*
X120561904Y-71928571D01*
X120609523Y-72023809D01*
X120609523Y-72261904D01*
X120561904Y-72357142D01*
X120514285Y-72404761D01*
X120419047Y-72452380D01*
X120133333Y-72452380D01*
X120038095Y-72404761D01*
X119990476Y-72357142D01*
X121466666Y-71785714D02*
X121466666Y-72452380D01*
X121228571Y-71404761D02*
X120990476Y-72119047D01*
X121609523Y-72119047D01*
X89892380Y-46656666D02*
X89416190Y-46990000D01*
X89892380Y-47228095D02*
X88892380Y-47228095D01*
X88892380Y-46847142D01*
X88940000Y-46751904D01*
X88987619Y-46704285D01*
X89082857Y-46656666D01*
X89225714Y-46656666D01*
X89320952Y-46704285D01*
X89368571Y-46751904D01*
X89416190Y-46847142D01*
X89416190Y-47228095D01*
X89320952Y-46085238D02*
X89273333Y-46180476D01*
X89225714Y-46228095D01*
X89130476Y-46275714D01*
X89082857Y-46275714D01*
X88987619Y-46228095D01*
X88940000Y-46180476D01*
X88892380Y-46085238D01*
X88892380Y-45894761D01*
X88940000Y-45799523D01*
X88987619Y-45751904D01*
X89082857Y-45704285D01*
X89130476Y-45704285D01*
X89225714Y-45751904D01*
X89273333Y-45799523D01*
X89320952Y-45894761D01*
X89320952Y-46085238D01*
X89368571Y-46180476D01*
X89416190Y-46228095D01*
X89511428Y-46275714D01*
X89701904Y-46275714D01*
X89797142Y-46228095D01*
X89844761Y-46180476D01*
X89892380Y-46085238D01*
X89892380Y-45894761D01*
X89844761Y-45799523D01*
X89797142Y-45751904D01*
X89701904Y-45704285D01*
X89511428Y-45704285D01*
X89416190Y-45751904D01*
X89368571Y-45799523D01*
X89320952Y-45894761D01*
X113904761Y-22467619D02*
X113809523Y-22420000D01*
X113714285Y-22324761D01*
X113571428Y-22181904D01*
X113476190Y-22134285D01*
X113380952Y-22134285D01*
X113428571Y-22372380D02*
X113333333Y-22324761D01*
X113238095Y-22229523D01*
X113190476Y-22039047D01*
X113190476Y-21705714D01*
X113238095Y-21515238D01*
X113333333Y-21420000D01*
X113428571Y-21372380D01*
X113619047Y-21372380D01*
X113714285Y-21420000D01*
X113809523Y-21515238D01*
X113857142Y-21705714D01*
X113857142Y-22039047D01*
X113809523Y-22229523D01*
X113714285Y-22324761D01*
X113619047Y-22372380D01*
X113428571Y-22372380D01*
X114761904Y-21372380D02*
X114285714Y-21372380D01*
X114238095Y-21848571D01*
X114285714Y-21800952D01*
X114380952Y-21753333D01*
X114619047Y-21753333D01*
X114714285Y-21800952D01*
X114761904Y-21848571D01*
X114809523Y-21943809D01*
X114809523Y-22181904D01*
X114761904Y-22277142D01*
X114714285Y-22324761D01*
X114619047Y-22372380D01*
X114380952Y-22372380D01*
X114285714Y-22324761D01*
X114238095Y-22277142D01*
X114827142Y-84997142D02*
X114779523Y-85044761D01*
X114636666Y-85092380D01*
X114541428Y-85092380D01*
X114398571Y-85044761D01*
X114303333Y-84949523D01*
X114255714Y-84854285D01*
X114208095Y-84663809D01*
X114208095Y-84520952D01*
X114255714Y-84330476D01*
X114303333Y-84235238D01*
X114398571Y-84140000D01*
X114541428Y-84092380D01*
X114636666Y-84092380D01*
X114779523Y-84140000D01*
X114827142Y-84187619D01*
X115684285Y-84425714D02*
X115684285Y-85092380D01*
X115446190Y-84044761D02*
X115208095Y-84759047D01*
X115827142Y-84759047D01*
X116255714Y-85092380D02*
X116446190Y-85092380D01*
X116541428Y-85044761D01*
X116589047Y-84997142D01*
X116684285Y-84854285D01*
X116731904Y-84663809D01*
X116731904Y-84282857D01*
X116684285Y-84187619D01*
X116636666Y-84140000D01*
X116541428Y-84092380D01*
X116350952Y-84092380D01*
X116255714Y-84140000D01*
X116208095Y-84187619D01*
X116160476Y-84282857D01*
X116160476Y-84520952D01*
X116208095Y-84616190D01*
X116255714Y-84663809D01*
X116350952Y-84711428D01*
X116541428Y-84711428D01*
X116636666Y-84663809D01*
X116684285Y-84616190D01*
X116731904Y-84520952D01*
X72814761Y-59667619D02*
X72719523Y-59620000D01*
X72624285Y-59524761D01*
X72481428Y-59381904D01*
X72386190Y-59334285D01*
X72290952Y-59334285D01*
X72338571Y-59572380D02*
X72243333Y-59524761D01*
X72148095Y-59429523D01*
X72100476Y-59239047D01*
X72100476Y-58905714D01*
X72148095Y-58715238D01*
X72243333Y-58620000D01*
X72338571Y-58572380D01*
X72529047Y-58572380D01*
X72624285Y-58620000D01*
X72719523Y-58715238D01*
X72767142Y-58905714D01*
X72767142Y-59239047D01*
X72719523Y-59429523D01*
X72624285Y-59524761D01*
X72529047Y-59572380D01*
X72338571Y-59572380D01*
X73100476Y-58572380D02*
X73767142Y-58572380D01*
X73338571Y-59572380D01*
X125133333Y-71207142D02*
X125085714Y-71254761D01*
X124942857Y-71302380D01*
X124847619Y-71302380D01*
X124704761Y-71254761D01*
X124609523Y-71159523D01*
X124561904Y-71064285D01*
X124514285Y-70873809D01*
X124514285Y-70730952D01*
X124561904Y-70540476D01*
X124609523Y-70445238D01*
X124704761Y-70350000D01*
X124847619Y-70302380D01*
X124942857Y-70302380D01*
X125085714Y-70350000D01*
X125133333Y-70397619D01*
X125514285Y-70397619D02*
X125561904Y-70350000D01*
X125657142Y-70302380D01*
X125895238Y-70302380D01*
X125990476Y-70350000D01*
X126038095Y-70397619D01*
X126085714Y-70492857D01*
X126085714Y-70588095D01*
X126038095Y-70730952D01*
X125466666Y-71302380D01*
X126085714Y-71302380D01*
X121332380Y-80228095D02*
X120332380Y-80228095D01*
X120332380Y-79990000D01*
X120380000Y-79847142D01*
X120475238Y-79751904D01*
X120570476Y-79704285D01*
X120760952Y-79656666D01*
X120903809Y-79656666D01*
X121094285Y-79704285D01*
X121189523Y-79751904D01*
X121284761Y-79847142D01*
X121332380Y-79990000D01*
X121332380Y-80228095D01*
X120665714Y-78799523D02*
X121332380Y-78799523D01*
X120284761Y-79037619D02*
X120999047Y-79275714D01*
X120999047Y-78656666D01*
X132026666Y-75032380D02*
X132026666Y-75746666D01*
X131979047Y-75889523D01*
X131883809Y-75984761D01*
X131740952Y-76032380D01*
X131645714Y-76032380D01*
X132931428Y-75365714D02*
X132931428Y-76032380D01*
X132693333Y-74984761D02*
X132455238Y-75699047D01*
X133074285Y-75699047D01*
X78811904Y-65452380D02*
X78811904Y-64452380D01*
X79050000Y-64452380D01*
X79192857Y-64500000D01*
X79288095Y-64595238D01*
X79335714Y-64690476D01*
X79383333Y-64880952D01*
X79383333Y-65023809D01*
X79335714Y-65214285D01*
X79288095Y-65309523D01*
X79192857Y-65404761D01*
X79050000Y-65452380D01*
X78811904Y-65452380D01*
X79859523Y-65452380D02*
X80050000Y-65452380D01*
X80145238Y-65404761D01*
X80192857Y-65357142D01*
X80288095Y-65214285D01*
X80335714Y-65023809D01*
X80335714Y-64642857D01*
X80288095Y-64547619D01*
X80240476Y-64500000D01*
X80145238Y-64452380D01*
X79954761Y-64452380D01*
X79859523Y-64500000D01*
X79811904Y-64547619D01*
X79764285Y-64642857D01*
X79764285Y-64880952D01*
X79811904Y-64976190D01*
X79859523Y-65023809D01*
X79954761Y-65071428D01*
X80145238Y-65071428D01*
X80240476Y-65023809D01*
X80288095Y-64976190D01*
X80335714Y-64880952D01*
X124692380Y-79536666D02*
X124216190Y-79870000D01*
X124692380Y-80108095D02*
X123692380Y-80108095D01*
X123692380Y-79727142D01*
X123740000Y-79631904D01*
X123787619Y-79584285D01*
X123882857Y-79536666D01*
X124025714Y-79536666D01*
X124120952Y-79584285D01*
X124168571Y-79631904D01*
X124216190Y-79727142D01*
X124216190Y-80108095D01*
X124692380Y-78584285D02*
X124692380Y-79155714D01*
X124692380Y-78870000D02*
X123692380Y-78870000D01*
X123835238Y-78965238D01*
X123930476Y-79060476D01*
X123978095Y-79155714D01*
X101583333Y-80207142D02*
X101535714Y-80254761D01*
X101392857Y-80302380D01*
X101297619Y-80302380D01*
X101154761Y-80254761D01*
X101059523Y-80159523D01*
X101011904Y-80064285D01*
X100964285Y-79873809D01*
X100964285Y-79730952D01*
X101011904Y-79540476D01*
X101059523Y-79445238D01*
X101154761Y-79350000D01*
X101297619Y-79302380D01*
X101392857Y-79302380D01*
X101535714Y-79350000D01*
X101583333Y-79397619D01*
X102440476Y-79635714D02*
X102440476Y-80302380D01*
X102202380Y-79254761D02*
X101964285Y-79969047D01*
X102583333Y-79969047D01*
X67802380Y-47042857D02*
X67326190Y-47376190D01*
X67802380Y-47614285D02*
X66802380Y-47614285D01*
X66802380Y-47233333D01*
X66850000Y-47138095D01*
X66897619Y-47090476D01*
X66992857Y-47042857D01*
X67135714Y-47042857D01*
X67230952Y-47090476D01*
X67278571Y-47138095D01*
X67326190Y-47233333D01*
X67326190Y-47614285D01*
X67135714Y-46185714D02*
X67802380Y-46185714D01*
X66754761Y-46423809D02*
X67469047Y-46661904D01*
X67469047Y-46042857D01*
X67802380Y-45614285D02*
X67802380Y-45423809D01*
X67754761Y-45328571D01*
X67707142Y-45280952D01*
X67564285Y-45185714D01*
X67373809Y-45138095D01*
X66992857Y-45138095D01*
X66897619Y-45185714D01*
X66850000Y-45233333D01*
X66802380Y-45328571D01*
X66802380Y-45519047D01*
X66850000Y-45614285D01*
X66897619Y-45661904D01*
X66992857Y-45709523D01*
X67230952Y-45709523D01*
X67326190Y-45661904D01*
X67373809Y-45614285D01*
X67421428Y-45519047D01*
X67421428Y-45328571D01*
X67373809Y-45233333D01*
X67326190Y-45185714D01*
X67230952Y-45138095D01*
X112757142Y-62492857D02*
X112804761Y-62540476D01*
X112852380Y-62683333D01*
X112852380Y-62778571D01*
X112804761Y-62921428D01*
X112709523Y-63016666D01*
X112614285Y-63064285D01*
X112423809Y-63111904D01*
X112280952Y-63111904D01*
X112090476Y-63064285D01*
X111995238Y-63016666D01*
X111900000Y-62921428D01*
X111852380Y-62778571D01*
X111852380Y-62683333D01*
X111900000Y-62540476D01*
X111947619Y-62492857D01*
X112852380Y-61540476D02*
X112852380Y-62111904D01*
X112852380Y-61826190D02*
X111852380Y-61826190D01*
X111995238Y-61921428D01*
X112090476Y-62016666D01*
X112138095Y-62111904D01*
X111852380Y-60921428D02*
X111852380Y-60826190D01*
X111900000Y-60730952D01*
X111947619Y-60683333D01*
X112042857Y-60635714D01*
X112233333Y-60588095D01*
X112471428Y-60588095D01*
X112661904Y-60635714D01*
X112757142Y-60683333D01*
X112804761Y-60730952D01*
X112852380Y-60826190D01*
X112852380Y-60921428D01*
X112804761Y-61016666D01*
X112757142Y-61064285D01*
X112661904Y-61111904D01*
X112471428Y-61159523D01*
X112233333Y-61159523D01*
X112042857Y-61111904D01*
X111947619Y-61064285D01*
X111900000Y-61016666D01*
X111852380Y-60921428D01*
X122107142Y-54057142D02*
X122059523Y-54104761D01*
X121916666Y-54152380D01*
X121821428Y-54152380D01*
X121678571Y-54104761D01*
X121583333Y-54009523D01*
X121535714Y-53914285D01*
X121488095Y-53723809D01*
X121488095Y-53580952D01*
X121535714Y-53390476D01*
X121583333Y-53295238D01*
X121678571Y-53200000D01*
X121821428Y-53152380D01*
X121916666Y-53152380D01*
X122059523Y-53200000D01*
X122107142Y-53247619D01*
X123011904Y-53152380D02*
X122535714Y-53152380D01*
X122488095Y-53628571D01*
X122535714Y-53580952D01*
X122630952Y-53533333D01*
X122869047Y-53533333D01*
X122964285Y-53580952D01*
X123011904Y-53628571D01*
X123059523Y-53723809D01*
X123059523Y-53961904D01*
X123011904Y-54057142D01*
X122964285Y-54104761D01*
X122869047Y-54152380D01*
X122630952Y-54152380D01*
X122535714Y-54104761D01*
X122488095Y-54057142D01*
X123964285Y-53152380D02*
X123488095Y-53152380D01*
X123440476Y-53628571D01*
X123488095Y-53580952D01*
X123583333Y-53533333D01*
X123821428Y-53533333D01*
X123916666Y-53580952D01*
X123964285Y-53628571D01*
X124011904Y-53723809D01*
X124011904Y-53961904D01*
X123964285Y-54057142D01*
X123916666Y-54104761D01*
X123821428Y-54152380D01*
X123583333Y-54152380D01*
X123488095Y-54104761D01*
X123440476Y-54057142D01*
X78811904Y-63202380D02*
X78811904Y-62202380D01*
X79050000Y-62202380D01*
X79192857Y-62250000D01*
X79288095Y-62345238D01*
X79335714Y-62440476D01*
X79383333Y-62630952D01*
X79383333Y-62773809D01*
X79335714Y-62964285D01*
X79288095Y-63059523D01*
X79192857Y-63154761D01*
X79050000Y-63202380D01*
X78811904Y-63202380D01*
X79954761Y-62630952D02*
X79859523Y-62583333D01*
X79811904Y-62535714D01*
X79764285Y-62440476D01*
X79764285Y-62392857D01*
X79811904Y-62297619D01*
X79859523Y-62250000D01*
X79954761Y-62202380D01*
X80145238Y-62202380D01*
X80240476Y-62250000D01*
X80288095Y-62297619D01*
X80335714Y-62392857D01*
X80335714Y-62440476D01*
X80288095Y-62535714D01*
X80240476Y-62583333D01*
X80145238Y-62630952D01*
X79954761Y-62630952D01*
X79859523Y-62678571D01*
X79811904Y-62726190D01*
X79764285Y-62821428D01*
X79764285Y-63011904D01*
X79811904Y-63107142D01*
X79859523Y-63154761D01*
X79954761Y-63202380D01*
X80145238Y-63202380D01*
X80240476Y-63154761D01*
X80288095Y-63107142D01*
X80335714Y-63011904D01*
X80335714Y-62821428D01*
X80288095Y-62726190D01*
X80240476Y-62678571D01*
X80145238Y-62630952D01*
X97616666Y-86412380D02*
X97616666Y-87126666D01*
X97569047Y-87269523D01*
X97473809Y-87364761D01*
X97330952Y-87412380D01*
X97235714Y-87412380D01*
X97997619Y-86412380D02*
X98616666Y-86412380D01*
X98283333Y-86793333D01*
X98426190Y-86793333D01*
X98521428Y-86840952D01*
X98569047Y-86888571D01*
X98616666Y-86983809D01*
X98616666Y-87221904D01*
X98569047Y-87317142D01*
X98521428Y-87364761D01*
X98426190Y-87412380D01*
X98140476Y-87412380D01*
X98045238Y-87364761D01*
X97997619Y-87317142D01*
X93507142Y-53297142D02*
X93459523Y-53344761D01*
X93316666Y-53392380D01*
X93221428Y-53392380D01*
X93078571Y-53344761D01*
X92983333Y-53249523D01*
X92935714Y-53154285D01*
X92888095Y-52963809D01*
X92888095Y-52820952D01*
X92935714Y-52630476D01*
X92983333Y-52535238D01*
X93078571Y-52440000D01*
X93221428Y-52392380D01*
X93316666Y-52392380D01*
X93459523Y-52440000D01*
X93507142Y-52487619D01*
X94411904Y-52392380D02*
X93935714Y-52392380D01*
X93888095Y-52868571D01*
X93935714Y-52820952D01*
X94030952Y-52773333D01*
X94269047Y-52773333D01*
X94364285Y-52820952D01*
X94411904Y-52868571D01*
X94459523Y-52963809D01*
X94459523Y-53201904D01*
X94411904Y-53297142D01*
X94364285Y-53344761D01*
X94269047Y-53392380D01*
X94030952Y-53392380D01*
X93935714Y-53344761D01*
X93888095Y-53297142D01*
X94840476Y-52487619D02*
X94888095Y-52440000D01*
X94983333Y-52392380D01*
X95221428Y-52392380D01*
X95316666Y-52440000D01*
X95364285Y-52487619D01*
X95411904Y-52582857D01*
X95411904Y-52678095D01*
X95364285Y-52820952D01*
X94792857Y-53392380D01*
X95411904Y-53392380D01*
X88852380Y-72066666D02*
X88376190Y-72400000D01*
X88852380Y-72638095D02*
X87852380Y-72638095D01*
X87852380Y-72257142D01*
X87900000Y-72161904D01*
X87947619Y-72114285D01*
X88042857Y-72066666D01*
X88185714Y-72066666D01*
X88280952Y-72114285D01*
X88328571Y-72161904D01*
X88376190Y-72257142D01*
X88376190Y-72638095D01*
X87852380Y-71733333D02*
X87852380Y-71114285D01*
X88233333Y-71447619D01*
X88233333Y-71304761D01*
X88280952Y-71209523D01*
X88328571Y-71161904D01*
X88423809Y-71114285D01*
X88661904Y-71114285D01*
X88757142Y-71161904D01*
X88804761Y-71209523D01*
X88852380Y-71304761D01*
X88852380Y-71590476D01*
X88804761Y-71685714D01*
X88757142Y-71733333D01*
X85157142Y-58007142D02*
X85109523Y-58054761D01*
X84966666Y-58102380D01*
X84871428Y-58102380D01*
X84728571Y-58054761D01*
X84633333Y-57959523D01*
X84585714Y-57864285D01*
X84538095Y-57673809D01*
X84538095Y-57530952D01*
X84585714Y-57340476D01*
X84633333Y-57245238D01*
X84728571Y-57150000D01*
X84871428Y-57102380D01*
X84966666Y-57102380D01*
X85109523Y-57150000D01*
X85157142Y-57197619D01*
X86014285Y-57435714D02*
X86014285Y-58102380D01*
X85776190Y-57054761D02*
X85538095Y-57769047D01*
X86157142Y-57769047D01*
X86442857Y-57102380D02*
X87061904Y-57102380D01*
X86728571Y-57483333D01*
X86871428Y-57483333D01*
X86966666Y-57530952D01*
X87014285Y-57578571D01*
X87061904Y-57673809D01*
X87061904Y-57911904D01*
X87014285Y-58007142D01*
X86966666Y-58054761D01*
X86871428Y-58102380D01*
X86585714Y-58102380D01*
X86490476Y-58054761D01*
X86442857Y-58007142D01*
X122873809Y-70826190D02*
X122873809Y-71302380D01*
X122540476Y-70302380D02*
X122873809Y-70826190D01*
X123207142Y-70302380D01*
X124064285Y-71302380D02*
X123492857Y-71302380D01*
X123778571Y-71302380D02*
X123778571Y-70302380D01*
X123683333Y-70445238D01*
X123588095Y-70540476D01*
X123492857Y-70588095D01*
X78761904Y-61302380D02*
X78761904Y-60302380D01*
X79000000Y-60302380D01*
X79142857Y-60350000D01*
X79238095Y-60445238D01*
X79285714Y-60540476D01*
X79333333Y-60730952D01*
X79333333Y-60873809D01*
X79285714Y-61064285D01*
X79238095Y-61159523D01*
X79142857Y-61254761D01*
X79000000Y-61302380D01*
X78761904Y-61302380D01*
X79666666Y-60302380D02*
X80333333Y-60302380D01*
X79904761Y-61302380D01*
X109907142Y-61916666D02*
X109954761Y-61964285D01*
X110002380Y-62107142D01*
X110002380Y-62202380D01*
X109954761Y-62345238D01*
X109859523Y-62440476D01*
X109764285Y-62488095D01*
X109573809Y-62535714D01*
X109430952Y-62535714D01*
X109240476Y-62488095D01*
X109145238Y-62440476D01*
X109050000Y-62345238D01*
X109002380Y-62202380D01*
X109002380Y-62107142D01*
X109050000Y-61964285D01*
X109097619Y-61916666D01*
X109002380Y-61583333D02*
X109002380Y-60964285D01*
X109383333Y-61297619D01*
X109383333Y-61154761D01*
X109430952Y-61059523D01*
X109478571Y-61011904D01*
X109573809Y-60964285D01*
X109811904Y-60964285D01*
X109907142Y-61011904D01*
X109954761Y-61059523D01*
X110002380Y-61154761D01*
X110002380Y-61440476D01*
X109954761Y-61535714D01*
X109907142Y-61583333D01*
X94407142Y-70757142D02*
X94359523Y-70804761D01*
X94216666Y-70852380D01*
X94121428Y-70852380D01*
X93978571Y-70804761D01*
X93883333Y-70709523D01*
X93835714Y-70614285D01*
X93788095Y-70423809D01*
X93788095Y-70280952D01*
X93835714Y-70090476D01*
X93883333Y-69995238D01*
X93978571Y-69900000D01*
X94121428Y-69852380D01*
X94216666Y-69852380D01*
X94359523Y-69900000D01*
X94407142Y-69947619D01*
X95264285Y-70185714D02*
X95264285Y-70852380D01*
X95026190Y-69804761D02*
X94788095Y-70519047D01*
X95407142Y-70519047D01*
X96311904Y-70852380D02*
X95740476Y-70852380D01*
X96026190Y-70852380D02*
X96026190Y-69852380D01*
X95930952Y-69995238D01*
X95835714Y-70090476D01*
X95740476Y-70138095D01*
X131452380Y-46467857D02*
X130976190Y-46801190D01*
X131452380Y-47039285D02*
X130452380Y-47039285D01*
X130452380Y-46658333D01*
X130500000Y-46563095D01*
X130547619Y-46515476D01*
X130642857Y-46467857D01*
X130785714Y-46467857D01*
X130880952Y-46515476D01*
X130928571Y-46563095D01*
X130976190Y-46658333D01*
X130976190Y-47039285D01*
X131452380Y-45515476D02*
X131452380Y-46086904D01*
X131452380Y-45801190D02*
X130452380Y-45801190D01*
X130595238Y-45896428D01*
X130690476Y-45991666D01*
X130738095Y-46086904D01*
X130452380Y-45182142D02*
X130452380Y-44563095D01*
X130833333Y-44896428D01*
X130833333Y-44753571D01*
X130880952Y-44658333D01*
X130928571Y-44610714D01*
X131023809Y-44563095D01*
X131261904Y-44563095D01*
X131357142Y-44610714D01*
X131404761Y-44658333D01*
X131452380Y-44753571D01*
X131452380Y-45039285D01*
X131404761Y-45134523D01*
X131357142Y-45182142D01*
X124225714Y-44691904D02*
X123959047Y-44310952D01*
X123768571Y-44691904D02*
X123768571Y-43891904D01*
X124073333Y-43891904D01*
X124149523Y-43930000D01*
X124187619Y-43968095D01*
X124225714Y-44044285D01*
X124225714Y-44158571D01*
X124187619Y-44234761D01*
X124149523Y-44272857D01*
X124073333Y-44310952D01*
X123768571Y-44310952D01*
X124987619Y-44691904D02*
X124530476Y-44691904D01*
X124759047Y-44691904D02*
X124759047Y-43891904D01*
X124682857Y-44006190D01*
X124606666Y-44082380D01*
X124530476Y-44120476D01*
X125292380Y-43968095D02*
X125330476Y-43930000D01*
X125406666Y-43891904D01*
X125597142Y-43891904D01*
X125673333Y-43930000D01*
X125711428Y-43968095D01*
X125749523Y-44044285D01*
X125749523Y-44120476D01*
X125711428Y-44234761D01*
X125254285Y-44691904D01*
X125749523Y-44691904D01*
X119783333Y-64007142D02*
X119735714Y-64054761D01*
X119592857Y-64102380D01*
X119497619Y-64102380D01*
X119354761Y-64054761D01*
X119259523Y-63959523D01*
X119211904Y-63864285D01*
X119164285Y-63673809D01*
X119164285Y-63530952D01*
X119211904Y-63340476D01*
X119259523Y-63245238D01*
X119354761Y-63150000D01*
X119497619Y-63102380D01*
X119592857Y-63102380D01*
X119735714Y-63150000D01*
X119783333Y-63197619D01*
X120640476Y-63102380D02*
X120450000Y-63102380D01*
X120354761Y-63150000D01*
X120307142Y-63197619D01*
X120211904Y-63340476D01*
X120164285Y-63530952D01*
X120164285Y-63911904D01*
X120211904Y-64007142D01*
X120259523Y-64054761D01*
X120354761Y-64102380D01*
X120545238Y-64102380D01*
X120640476Y-64054761D01*
X120688095Y-64007142D01*
X120735714Y-63911904D01*
X120735714Y-63673809D01*
X120688095Y-63578571D01*
X120640476Y-63530952D01*
X120545238Y-63483333D01*
X120354761Y-63483333D01*
X120259523Y-63530952D01*
X120211904Y-63578571D01*
X120164285Y-63673809D01*
X66057142Y-62452380D02*
X65723809Y-61976190D01*
X65485714Y-62452380D02*
X65485714Y-61452380D01*
X65866666Y-61452380D01*
X65961904Y-61500000D01*
X66009523Y-61547619D01*
X66057142Y-61642857D01*
X66057142Y-61785714D01*
X66009523Y-61880952D01*
X65961904Y-61928571D01*
X65866666Y-61976190D01*
X65485714Y-61976190D01*
X66914285Y-61785714D02*
X66914285Y-62452380D01*
X66676190Y-61404761D02*
X66438095Y-62119047D01*
X67057142Y-62119047D01*
X67914285Y-61452380D02*
X67438095Y-61452380D01*
X67390476Y-61928571D01*
X67438095Y-61880952D01*
X67533333Y-61833333D01*
X67771428Y-61833333D01*
X67866666Y-61880952D01*
X67914285Y-61928571D01*
X67961904Y-62023809D01*
X67961904Y-62261904D01*
X67914285Y-62357142D01*
X67866666Y-62404761D01*
X67771428Y-62452380D01*
X67533333Y-62452380D01*
X67438095Y-62404761D01*
X67390476Y-62357142D01*
X66502380Y-46416666D02*
X66026190Y-46750000D01*
X66502380Y-46988095D02*
X65502380Y-46988095D01*
X65502380Y-46607142D01*
X65550000Y-46511904D01*
X65597619Y-46464285D01*
X65692857Y-46416666D01*
X65835714Y-46416666D01*
X65930952Y-46464285D01*
X65978571Y-46511904D01*
X66026190Y-46607142D01*
X66026190Y-46988095D01*
X65502380Y-45511904D02*
X65502380Y-45988095D01*
X65978571Y-46035714D01*
X65930952Y-45988095D01*
X65883333Y-45892857D01*
X65883333Y-45654761D01*
X65930952Y-45559523D01*
X65978571Y-45511904D01*
X66073809Y-45464285D01*
X66311904Y-45464285D01*
X66407142Y-45511904D01*
X66454761Y-45559523D01*
X66502380Y-45654761D01*
X66502380Y-45892857D01*
X66454761Y-45988095D01*
X66407142Y-46035714D01*
X102904761Y-22467619D02*
X102809523Y-22420000D01*
X102714285Y-22324761D01*
X102571428Y-22181904D01*
X102476190Y-22134285D01*
X102380952Y-22134285D01*
X102428571Y-22372380D02*
X102333333Y-22324761D01*
X102238095Y-22229523D01*
X102190476Y-22039047D01*
X102190476Y-21705714D01*
X102238095Y-21515238D01*
X102333333Y-21420000D01*
X102428571Y-21372380D01*
X102619047Y-21372380D01*
X102714285Y-21420000D01*
X102809523Y-21515238D01*
X102857142Y-21705714D01*
X102857142Y-22039047D01*
X102809523Y-22229523D01*
X102714285Y-22324761D01*
X102619047Y-22372380D01*
X102428571Y-22372380D01*
X103714285Y-21705714D02*
X103714285Y-22372380D01*
X103476190Y-21324761D02*
X103238095Y-22039047D01*
X103857142Y-22039047D01*
X69904761Y-22467619D02*
X69809523Y-22420000D01*
X69714285Y-22324761D01*
X69571428Y-22181904D01*
X69476190Y-22134285D01*
X69380952Y-22134285D01*
X69428571Y-22372380D02*
X69333333Y-22324761D01*
X69238095Y-22229523D01*
X69190476Y-22039047D01*
X69190476Y-21705714D01*
X69238095Y-21515238D01*
X69333333Y-21420000D01*
X69428571Y-21372380D01*
X69619047Y-21372380D01*
X69714285Y-21420000D01*
X69809523Y-21515238D01*
X69857142Y-21705714D01*
X69857142Y-22039047D01*
X69809523Y-22229523D01*
X69714285Y-22324761D01*
X69619047Y-22372380D01*
X69428571Y-22372380D01*
X70809523Y-22372380D02*
X70238095Y-22372380D01*
X70523809Y-22372380D02*
X70523809Y-21372380D01*
X70428571Y-21515238D01*
X70333333Y-21610476D01*
X70238095Y-21658095D01*
X102506666Y-48911904D02*
X102240000Y-48530952D01*
X102049523Y-48911904D02*
X102049523Y-48111904D01*
X102354285Y-48111904D01*
X102430476Y-48150000D01*
X102468571Y-48188095D01*
X102506666Y-48264285D01*
X102506666Y-48378571D01*
X102468571Y-48454761D01*
X102430476Y-48492857D01*
X102354285Y-48530952D01*
X102049523Y-48530952D01*
X102887619Y-48911904D02*
X103040000Y-48911904D01*
X103116190Y-48873809D01*
X103154285Y-48835714D01*
X103230476Y-48721428D01*
X103268571Y-48569047D01*
X103268571Y-48264285D01*
X103230476Y-48188095D01*
X103192380Y-48150000D01*
X103116190Y-48111904D01*
X102963809Y-48111904D01*
X102887619Y-48150000D01*
X102849523Y-48188095D01*
X102811428Y-48264285D01*
X102811428Y-48454761D01*
X102849523Y-48530952D01*
X102887619Y-48569047D01*
X102963809Y-48607142D01*
X103116190Y-48607142D01*
X103192380Y-48569047D01*
X103230476Y-48530952D01*
X103268571Y-48454761D01*
X113295714Y-44791904D02*
X113029047Y-44410952D01*
X112838571Y-44791904D02*
X112838571Y-43991904D01*
X113143333Y-43991904D01*
X113219523Y-44030000D01*
X113257619Y-44068095D01*
X113295714Y-44144285D01*
X113295714Y-44258571D01*
X113257619Y-44334761D01*
X113219523Y-44372857D01*
X113143333Y-44410952D01*
X112838571Y-44410952D01*
X114057619Y-44791904D02*
X113600476Y-44791904D01*
X113829047Y-44791904D02*
X113829047Y-43991904D01*
X113752857Y-44106190D01*
X113676666Y-44182380D01*
X113600476Y-44220476D01*
X114819523Y-44791904D02*
X114362380Y-44791904D01*
X114590952Y-44791904D02*
X114590952Y-43991904D01*
X114514761Y-44106190D01*
X114438571Y-44182380D01*
X114362380Y-44220476D01*
X106988095Y-77802380D02*
X106988095Y-78611904D01*
X107035714Y-78707142D01*
X107083333Y-78754761D01*
X107178571Y-78802380D01*
X107369047Y-78802380D01*
X107464285Y-78754761D01*
X107511904Y-78707142D01*
X107559523Y-78611904D01*
X107559523Y-77802380D01*
X107988095Y-77897619D02*
X108035714Y-77850000D01*
X108130952Y-77802380D01*
X108369047Y-77802380D01*
X108464285Y-77850000D01*
X108511904Y-77897619D01*
X108559523Y-77992857D01*
X108559523Y-78088095D01*
X108511904Y-78230952D01*
X107940476Y-78802380D01*
X108559523Y-78802380D01*
X124904761Y-22467619D02*
X124809523Y-22420000D01*
X124714285Y-22324761D01*
X124571428Y-22181904D01*
X124476190Y-22134285D01*
X124380952Y-22134285D01*
X124428571Y-22372380D02*
X124333333Y-22324761D01*
X124238095Y-22229523D01*
X124190476Y-22039047D01*
X124190476Y-21705714D01*
X124238095Y-21515238D01*
X124333333Y-21420000D01*
X124428571Y-21372380D01*
X124619047Y-21372380D01*
X124714285Y-21420000D01*
X124809523Y-21515238D01*
X124857142Y-21705714D01*
X124857142Y-22039047D01*
X124809523Y-22229523D01*
X124714285Y-22324761D01*
X124619047Y-22372380D01*
X124428571Y-22372380D01*
X125714285Y-21372380D02*
X125523809Y-21372380D01*
X125428571Y-21420000D01*
X125380952Y-21467619D01*
X125285714Y-21610476D01*
X125238095Y-21800952D01*
X125238095Y-22181904D01*
X125285714Y-22277142D01*
X125333333Y-22324761D01*
X125428571Y-22372380D01*
X125619047Y-22372380D01*
X125714285Y-22324761D01*
X125761904Y-22277142D01*
X125809523Y-22181904D01*
X125809523Y-21943809D01*
X125761904Y-21848571D01*
X125714285Y-21800952D01*
X125619047Y-21753333D01*
X125428571Y-21753333D01*
X125333333Y-21800952D01*
X125285714Y-21848571D01*
X125238095Y-21943809D01*
X129666666Y-58402380D02*
X129666666Y-59116666D01*
X129619047Y-59259523D01*
X129523809Y-59354761D01*
X129380952Y-59402380D01*
X129285714Y-59402380D01*
X130666666Y-59402380D02*
X130095238Y-59402380D01*
X130380952Y-59402380D02*
X130380952Y-58402380D01*
X130285714Y-58545238D01*
X130190476Y-58640476D01*
X130095238Y-58688095D01*
D12*
X81046666Y-48921904D02*
X80780000Y-48540952D01*
X80589523Y-48921904D02*
X80589523Y-48121904D01*
X80894285Y-48121904D01*
X80970476Y-48160000D01*
X81008571Y-48198095D01*
X81046666Y-48274285D01*
X81046666Y-48388571D01*
X81008571Y-48464761D01*
X80970476Y-48502857D01*
X80894285Y-48540952D01*
X80589523Y-48540952D01*
X81732380Y-48121904D02*
X81580000Y-48121904D01*
X81503809Y-48160000D01*
X81465714Y-48198095D01*
X81389523Y-48312380D01*
X81351428Y-48464761D01*
X81351428Y-48769523D01*
X81389523Y-48845714D01*
X81427619Y-48883809D01*
X81503809Y-48921904D01*
X81656190Y-48921904D01*
X81732380Y-48883809D01*
X81770476Y-48845714D01*
X81808571Y-48769523D01*
X81808571Y-48579047D01*
X81770476Y-48502857D01*
X81732380Y-48464761D01*
X81656190Y-48426666D01*
X81503809Y-48426666D01*
X81427619Y-48464761D01*
X81389523Y-48502857D01*
X81351428Y-48579047D01*
D10*
X101207142Y-81507142D02*
X101159523Y-81554761D01*
X101016666Y-81602380D01*
X100921428Y-81602380D01*
X100778571Y-81554761D01*
X100683333Y-81459523D01*
X100635714Y-81364285D01*
X100588095Y-81173809D01*
X100588095Y-81030952D01*
X100635714Y-80840476D01*
X100683333Y-80745238D01*
X100778571Y-80650000D01*
X100921428Y-80602380D01*
X101016666Y-80602380D01*
X101159523Y-80650000D01*
X101207142Y-80697619D01*
X102159523Y-81602380D02*
X101588095Y-81602380D01*
X101873809Y-81602380D02*
X101873809Y-80602380D01*
X101778571Y-80745238D01*
X101683333Y-80840476D01*
X101588095Y-80888095D01*
X103111904Y-81602380D02*
X102540476Y-81602380D01*
X102826190Y-81602380D02*
X102826190Y-80602380D01*
X102730952Y-80745238D01*
X102635714Y-80840476D01*
X102540476Y-80888095D01*
X112972380Y-82942857D02*
X112496190Y-83276190D01*
X112972380Y-83514285D02*
X111972380Y-83514285D01*
X111972380Y-83133333D01*
X112020000Y-83038095D01*
X112067619Y-82990476D01*
X112162857Y-82942857D01*
X112305714Y-82942857D01*
X112400952Y-82990476D01*
X112448571Y-83038095D01*
X112496190Y-83133333D01*
X112496190Y-83514285D01*
X112305714Y-82085714D02*
X112972380Y-82085714D01*
X111924761Y-82323809D02*
X112639047Y-82561904D01*
X112639047Y-81942857D01*
X111972380Y-81371428D02*
X111972380Y-81276190D01*
X112020000Y-81180952D01*
X112067619Y-81133333D01*
X112162857Y-81085714D01*
X112353333Y-81038095D01*
X112591428Y-81038095D01*
X112781904Y-81085714D01*
X112877142Y-81133333D01*
X112924761Y-81180952D01*
X112972380Y-81276190D01*
X112972380Y-81371428D01*
X112924761Y-81466666D01*
X112877142Y-81514285D01*
X112781904Y-81561904D01*
X112591428Y-81609523D01*
X112353333Y-81609523D01*
X112162857Y-81561904D01*
X112067619Y-81514285D01*
X112020000Y-81466666D01*
X111972380Y-81371428D01*
X123257142Y-59907142D02*
X123209523Y-59954761D01*
X123066666Y-60002380D01*
X122971428Y-60002380D01*
X122828571Y-59954761D01*
X122733333Y-59859523D01*
X122685714Y-59764285D01*
X122638095Y-59573809D01*
X122638095Y-59430952D01*
X122685714Y-59240476D01*
X122733333Y-59145238D01*
X122828571Y-59050000D01*
X122971428Y-59002380D01*
X123066666Y-59002380D01*
X123209523Y-59050000D01*
X123257142Y-59097619D01*
X124161904Y-59002380D02*
X123685714Y-59002380D01*
X123638095Y-59478571D01*
X123685714Y-59430952D01*
X123780952Y-59383333D01*
X124019047Y-59383333D01*
X124114285Y-59430952D01*
X124161904Y-59478571D01*
X124209523Y-59573809D01*
X124209523Y-59811904D01*
X124161904Y-59907142D01*
X124114285Y-59954761D01*
X124019047Y-60002380D01*
X123780952Y-60002380D01*
X123685714Y-59954761D01*
X123638095Y-59907142D01*
X124828571Y-59002380D02*
X124923809Y-59002380D01*
X125019047Y-59050000D01*
X125066666Y-59097619D01*
X125114285Y-59192857D01*
X125161904Y-59383333D01*
X125161904Y-59621428D01*
X125114285Y-59811904D01*
X125066666Y-59907142D01*
X125019047Y-59954761D01*
X124923809Y-60002380D01*
X124828571Y-60002380D01*
X124733333Y-59954761D01*
X124685714Y-59907142D01*
X124638095Y-59811904D01*
X124590476Y-59621428D01*
X124590476Y-59383333D01*
X124638095Y-59192857D01*
X124685714Y-59097619D01*
X124733333Y-59050000D01*
X124828571Y-59002380D01*
X115565714Y-49081904D02*
X115299047Y-48700952D01*
X115108571Y-49081904D02*
X115108571Y-48281904D01*
X115413333Y-48281904D01*
X115489523Y-48320000D01*
X115527619Y-48358095D01*
X115565714Y-48434285D01*
X115565714Y-48548571D01*
X115527619Y-48624761D01*
X115489523Y-48662857D01*
X115413333Y-48700952D01*
X115108571Y-48700952D01*
X116289523Y-48281904D02*
X115908571Y-48281904D01*
X115870476Y-48662857D01*
X115908571Y-48624761D01*
X115984761Y-48586666D01*
X116175238Y-48586666D01*
X116251428Y-48624761D01*
X116289523Y-48662857D01*
X116327619Y-48739047D01*
X116327619Y-48929523D01*
X116289523Y-49005714D01*
X116251428Y-49043809D01*
X116175238Y-49081904D01*
X115984761Y-49081904D01*
X115908571Y-49043809D01*
X115870476Y-49005714D01*
X116594285Y-48281904D02*
X117089523Y-48281904D01*
X116822857Y-48586666D01*
X116937142Y-48586666D01*
X117013333Y-48624761D01*
X117051428Y-48662857D01*
X117089523Y-48739047D01*
X117089523Y-48929523D01*
X117051428Y-49005714D01*
X117013333Y-49043809D01*
X116937142Y-49081904D01*
X116708571Y-49081904D01*
X116632380Y-49043809D01*
X116594285Y-49005714D01*
X122952380Y-80228095D02*
X121952380Y-80228095D01*
X121952380Y-79990000D01*
X122000000Y-79847142D01*
X122095238Y-79751904D01*
X122190476Y-79704285D01*
X122380952Y-79656666D01*
X122523809Y-79656666D01*
X122714285Y-79704285D01*
X122809523Y-79751904D01*
X122904761Y-79847142D01*
X122952380Y-79990000D01*
X122952380Y-80228095D01*
X122952380Y-78704285D02*
X122952380Y-79275714D01*
X122952380Y-78990000D02*
X121952380Y-78990000D01*
X122095238Y-79085238D01*
X122190476Y-79180476D01*
X122238095Y-79275714D01*
X78667142Y-53567142D02*
X78619523Y-53614761D01*
X78476666Y-53662380D01*
X78381428Y-53662380D01*
X78238571Y-53614761D01*
X78143333Y-53519523D01*
X78095714Y-53424285D01*
X78048095Y-53233809D01*
X78048095Y-53090952D01*
X78095714Y-52900476D01*
X78143333Y-52805238D01*
X78238571Y-52710000D01*
X78381428Y-52662380D01*
X78476666Y-52662380D01*
X78619523Y-52710000D01*
X78667142Y-52757619D01*
X79571904Y-52662380D02*
X79095714Y-52662380D01*
X79048095Y-53138571D01*
X79095714Y-53090952D01*
X79190952Y-53043333D01*
X79429047Y-53043333D01*
X79524285Y-53090952D01*
X79571904Y-53138571D01*
X79619523Y-53233809D01*
X79619523Y-53471904D01*
X79571904Y-53567142D01*
X79524285Y-53614761D01*
X79429047Y-53662380D01*
X79190952Y-53662380D01*
X79095714Y-53614761D01*
X79048095Y-53567142D01*
X80571904Y-53662380D02*
X80000476Y-53662380D01*
X80286190Y-53662380D02*
X80286190Y-52662380D01*
X80190952Y-52805238D01*
X80095714Y-52900476D01*
X80000476Y-52948095D01*
X121871904Y-47114285D02*
X121490952Y-47380952D01*
X121871904Y-47571428D02*
X121071904Y-47571428D01*
X121071904Y-47266666D01*
X121110000Y-47190476D01*
X121148095Y-47152380D01*
X121224285Y-47114285D01*
X121338571Y-47114285D01*
X121414761Y-47152380D01*
X121452857Y-47190476D01*
X121490952Y-47266666D01*
X121490952Y-47571428D01*
X121071904Y-46390476D02*
X121071904Y-46771428D01*
X121452857Y-46809523D01*
X121414761Y-46771428D01*
X121376666Y-46695238D01*
X121376666Y-46504761D01*
X121414761Y-46428571D01*
X121452857Y-46390476D01*
X121529047Y-46352380D01*
X121719523Y-46352380D01*
X121795714Y-46390476D01*
X121833809Y-46428571D01*
X121871904Y-46504761D01*
X121871904Y-46695238D01*
X121833809Y-46771428D01*
X121795714Y-46809523D01*
X121338571Y-45666666D02*
X121871904Y-45666666D01*
X121033809Y-45857142D02*
X121605238Y-46047619D01*
X121605238Y-45552380D01*
X92312380Y-75332857D02*
X91836190Y-75666190D01*
X92312380Y-75904285D02*
X91312380Y-75904285D01*
X91312380Y-75523333D01*
X91360000Y-75428095D01*
X91407619Y-75380476D01*
X91502857Y-75332857D01*
X91645714Y-75332857D01*
X91740952Y-75380476D01*
X91788571Y-75428095D01*
X91836190Y-75523333D01*
X91836190Y-75904285D01*
X91645714Y-74475714D02*
X92312380Y-74475714D01*
X91264761Y-74713809D02*
X91979047Y-74951904D01*
X91979047Y-74332857D01*
X92312380Y-73428095D02*
X92312380Y-73999523D01*
X92312380Y-73713809D02*
X91312380Y-73713809D01*
X91455238Y-73809047D01*
X91550476Y-73904285D01*
X91598095Y-73999523D01*
X91904761Y-22467619D02*
X91809523Y-22420000D01*
X91714285Y-22324761D01*
X91571428Y-22181904D01*
X91476190Y-22134285D01*
X91380952Y-22134285D01*
X91428571Y-22372380D02*
X91333333Y-22324761D01*
X91238095Y-22229523D01*
X91190476Y-22039047D01*
X91190476Y-21705714D01*
X91238095Y-21515238D01*
X91333333Y-21420000D01*
X91428571Y-21372380D01*
X91619047Y-21372380D01*
X91714285Y-21420000D01*
X91809523Y-21515238D01*
X91857142Y-21705714D01*
X91857142Y-22039047D01*
X91809523Y-22229523D01*
X91714285Y-22324761D01*
X91619047Y-22372380D01*
X91428571Y-22372380D01*
X92190476Y-21372380D02*
X92809523Y-21372380D01*
X92476190Y-21753333D01*
X92619047Y-21753333D01*
X92714285Y-21800952D01*
X92761904Y-21848571D01*
X92809523Y-21943809D01*
X92809523Y-22181904D01*
X92761904Y-22277142D01*
X92714285Y-22324761D01*
X92619047Y-22372380D01*
X92333333Y-22372380D01*
X92238095Y-22324761D01*
X92190476Y-22277142D01*
X117211904Y-85042380D02*
X117211904Y-84042380D01*
X117450000Y-84042380D01*
X117592857Y-84090000D01*
X117688095Y-84185238D01*
X117735714Y-84280476D01*
X117783333Y-84470952D01*
X117783333Y-84613809D01*
X117735714Y-84804285D01*
X117688095Y-84899523D01*
X117592857Y-84994761D01*
X117450000Y-85042380D01*
X117211904Y-85042380D01*
X118164285Y-84137619D02*
X118211904Y-84090000D01*
X118307142Y-84042380D01*
X118545238Y-84042380D01*
X118640476Y-84090000D01*
X118688095Y-84137619D01*
X118735714Y-84232857D01*
X118735714Y-84328095D01*
X118688095Y-84470952D01*
X118116666Y-85042380D01*
X118735714Y-85042380D01*
X80904761Y-22467619D02*
X80809523Y-22420000D01*
X80714285Y-22324761D01*
X80571428Y-22181904D01*
X80476190Y-22134285D01*
X80380952Y-22134285D01*
X80428571Y-22372380D02*
X80333333Y-22324761D01*
X80238095Y-22229523D01*
X80190476Y-22039047D01*
X80190476Y-21705714D01*
X80238095Y-21515238D01*
X80333333Y-21420000D01*
X80428571Y-21372380D01*
X80619047Y-21372380D01*
X80714285Y-21420000D01*
X80809523Y-21515238D01*
X80857142Y-21705714D01*
X80857142Y-22039047D01*
X80809523Y-22229523D01*
X80714285Y-22324761D01*
X80619047Y-22372380D01*
X80428571Y-22372380D01*
X81238095Y-21467619D02*
X81285714Y-21420000D01*
X81380952Y-21372380D01*
X81619047Y-21372380D01*
X81714285Y-21420000D01*
X81761904Y-21467619D01*
X81809523Y-21562857D01*
X81809523Y-21658095D01*
X81761904Y-21800952D01*
X81190476Y-22372380D01*
X81809523Y-22372380D01*
X94146666Y-85772380D02*
X94146666Y-86486666D01*
X94099047Y-86629523D01*
X94003809Y-86724761D01*
X93860952Y-86772380D01*
X93765714Y-86772380D01*
X94575238Y-85867619D02*
X94622857Y-85820000D01*
X94718095Y-85772380D01*
X94956190Y-85772380D01*
X95051428Y-85820000D01*
X95099047Y-85867619D01*
X95146666Y-85962857D01*
X95146666Y-86058095D01*
X95099047Y-86200952D01*
X94527619Y-86772380D01*
X95146666Y-86772380D01*
X100097142Y-53407142D02*
X100049523Y-53454761D01*
X99906666Y-53502380D01*
X99811428Y-53502380D01*
X99668571Y-53454761D01*
X99573333Y-53359523D01*
X99525714Y-53264285D01*
X99478095Y-53073809D01*
X99478095Y-52930952D01*
X99525714Y-52740476D01*
X99573333Y-52645238D01*
X99668571Y-52550000D01*
X99811428Y-52502380D01*
X99906666Y-52502380D01*
X100049523Y-52550000D01*
X100097142Y-52597619D01*
X101001904Y-52502380D02*
X100525714Y-52502380D01*
X100478095Y-52978571D01*
X100525714Y-52930952D01*
X100620952Y-52883333D01*
X100859047Y-52883333D01*
X100954285Y-52930952D01*
X101001904Y-52978571D01*
X101049523Y-53073809D01*
X101049523Y-53311904D01*
X101001904Y-53407142D01*
X100954285Y-53454761D01*
X100859047Y-53502380D01*
X100620952Y-53502380D01*
X100525714Y-53454761D01*
X100478095Y-53407142D01*
X101382857Y-52502380D02*
X102001904Y-52502380D01*
X101668571Y-52883333D01*
X101811428Y-52883333D01*
X101906666Y-52930952D01*
X101954285Y-52978571D01*
X102001904Y-53073809D01*
X102001904Y-53311904D01*
X101954285Y-53407142D01*
X101906666Y-53454761D01*
X101811428Y-53502380D01*
X101525714Y-53502380D01*
X101430476Y-53454761D01*
X101382857Y-53407142D01*
X72557142Y-57652380D02*
X72223809Y-57176190D01*
X71985714Y-57652380D02*
X71985714Y-56652380D01*
X72366666Y-56652380D01*
X72461904Y-56700000D01*
X72509523Y-56747619D01*
X72557142Y-56842857D01*
X72557142Y-56985714D01*
X72509523Y-57080952D01*
X72461904Y-57128571D01*
X72366666Y-57176190D01*
X71985714Y-57176190D01*
X73414285Y-56985714D02*
X73414285Y-57652380D01*
X73176190Y-56604761D02*
X72938095Y-57319047D01*
X73557142Y-57319047D01*
X74366666Y-56985714D02*
X74366666Y-57652380D01*
X74128571Y-56604761D02*
X73890476Y-57319047D01*
X74509523Y-57319047D01*
X118837142Y-75506666D02*
X118884761Y-75554285D01*
X118932380Y-75697142D01*
X118932380Y-75792380D01*
X118884761Y-75935238D01*
X118789523Y-76030476D01*
X118694285Y-76078095D01*
X118503809Y-76125714D01*
X118360952Y-76125714D01*
X118170476Y-76078095D01*
X118075238Y-76030476D01*
X117980000Y-75935238D01*
X117932380Y-75792380D01*
X117932380Y-75697142D01*
X117980000Y-75554285D01*
X118027619Y-75506666D01*
X117932380Y-75173333D02*
X117932380Y-74506666D01*
X118932380Y-74935238D01*
X88742380Y-83218095D02*
X87742380Y-83218095D01*
X87742380Y-82980000D01*
X87790000Y-82837142D01*
X87885238Y-82741904D01*
X87980476Y-82694285D01*
X88170952Y-82646666D01*
X88313809Y-82646666D01*
X88504285Y-82694285D01*
X88599523Y-82741904D01*
X88694761Y-82837142D01*
X88742380Y-82980000D01*
X88742380Y-83218095D01*
X87742380Y-82313333D02*
X87742380Y-81694285D01*
X88123333Y-82027619D01*
X88123333Y-81884761D01*
X88170952Y-81789523D01*
X88218571Y-81741904D01*
X88313809Y-81694285D01*
X88551904Y-81694285D01*
X88647142Y-81741904D01*
X88694761Y-81789523D01*
X88742380Y-81884761D01*
X88742380Y-82170476D01*
X88694761Y-82265714D01*
X88647142Y-82313333D01*
X85157142Y-59357142D02*
X85109523Y-59404761D01*
X84966666Y-59452380D01*
X84871428Y-59452380D01*
X84728571Y-59404761D01*
X84633333Y-59309523D01*
X84585714Y-59214285D01*
X84538095Y-59023809D01*
X84538095Y-58880952D01*
X84585714Y-58690476D01*
X84633333Y-58595238D01*
X84728571Y-58500000D01*
X84871428Y-58452380D01*
X84966666Y-58452380D01*
X85109523Y-58500000D01*
X85157142Y-58547619D01*
X86014285Y-58785714D02*
X86014285Y-59452380D01*
X85776190Y-58404761D02*
X85538095Y-59119047D01*
X86157142Y-59119047D01*
X86966666Y-58785714D02*
X86966666Y-59452380D01*
X86728571Y-58404761D02*
X86490476Y-59119047D01*
X87109523Y-59119047D01*
X71227142Y-53567142D02*
X71179523Y-53614761D01*
X71036666Y-53662380D01*
X70941428Y-53662380D01*
X70798571Y-53614761D01*
X70703333Y-53519523D01*
X70655714Y-53424285D01*
X70608095Y-53233809D01*
X70608095Y-53090952D01*
X70655714Y-52900476D01*
X70703333Y-52805238D01*
X70798571Y-52710000D01*
X70941428Y-52662380D01*
X71036666Y-52662380D01*
X71179523Y-52710000D01*
X71227142Y-52757619D01*
X72084285Y-52995714D02*
X72084285Y-53662380D01*
X71846190Y-52614761D02*
X71608095Y-53329047D01*
X72227142Y-53329047D01*
X72798571Y-52662380D02*
X72893809Y-52662380D01*
X72989047Y-52710000D01*
X73036666Y-52757619D01*
X73084285Y-52852857D01*
X73131904Y-53043333D01*
X73131904Y-53281428D01*
X73084285Y-53471904D01*
X73036666Y-53567142D01*
X72989047Y-53614761D01*
X72893809Y-53662380D01*
X72798571Y-53662380D01*
X72703333Y-53614761D01*
X72655714Y-53567142D01*
X72608095Y-53471904D01*
X72560476Y-53281428D01*
X72560476Y-53043333D01*
X72608095Y-52852857D01*
X72655714Y-52757619D01*
X72703333Y-52710000D01*
X72798571Y-52662380D01*
X100035714Y-48901904D02*
X99769047Y-48520952D01*
X99578571Y-48901904D02*
X99578571Y-48101904D01*
X99883333Y-48101904D01*
X99959523Y-48140000D01*
X99997619Y-48178095D01*
X100035714Y-48254285D01*
X100035714Y-48368571D01*
X99997619Y-48444761D01*
X99959523Y-48482857D01*
X99883333Y-48520952D01*
X99578571Y-48520952D01*
X100759523Y-48101904D02*
X100378571Y-48101904D01*
X100340476Y-48482857D01*
X100378571Y-48444761D01*
X100454761Y-48406666D01*
X100645238Y-48406666D01*
X100721428Y-48444761D01*
X100759523Y-48482857D01*
X100797619Y-48559047D01*
X100797619Y-48749523D01*
X100759523Y-48825714D01*
X100721428Y-48863809D01*
X100645238Y-48901904D01*
X100454761Y-48901904D01*
X100378571Y-48863809D01*
X100340476Y-48825714D01*
X101102380Y-48178095D02*
X101140476Y-48140000D01*
X101216666Y-48101904D01*
X101407142Y-48101904D01*
X101483333Y-48140000D01*
X101521428Y-48178095D01*
X101559523Y-48254285D01*
X101559523Y-48330476D01*
X101521428Y-48444761D01*
X101064285Y-48901904D01*
X101559523Y-48901904D01*
X85107142Y-56607142D02*
X85059523Y-56654761D01*
X84916666Y-56702380D01*
X84821428Y-56702380D01*
X84678571Y-56654761D01*
X84583333Y-56559523D01*
X84535714Y-56464285D01*
X84488095Y-56273809D01*
X84488095Y-56130952D01*
X84535714Y-55940476D01*
X84583333Y-55845238D01*
X84678571Y-55750000D01*
X84821428Y-55702380D01*
X84916666Y-55702380D01*
X85059523Y-55750000D01*
X85107142Y-55797619D01*
X85964285Y-56035714D02*
X85964285Y-56702380D01*
X85726190Y-55654761D02*
X85488095Y-56369047D01*
X86107142Y-56369047D01*
X86440476Y-55797619D02*
X86488095Y-55750000D01*
X86583333Y-55702380D01*
X86821428Y-55702380D01*
X86916666Y-55750000D01*
X86964285Y-55797619D01*
X87011904Y-55892857D01*
X87011904Y-55988095D01*
X86964285Y-56130952D01*
X86392857Y-56702380D01*
X87011904Y-56702380D01*
D13*
X66242857Y-52670542D02*
X66278571Y-52706257D01*
X66314285Y-52813400D01*
X66314285Y-52884828D01*
X66278571Y-52991971D01*
X66207142Y-53063400D01*
X66135714Y-53099114D01*
X65992857Y-53134828D01*
X65885714Y-53134828D01*
X65742857Y-53099114D01*
X65671428Y-53063400D01*
X65600000Y-52991971D01*
X65564285Y-52884828D01*
X65564285Y-52813400D01*
X65600000Y-52706257D01*
X65635714Y-52670542D01*
X66314285Y-51956257D02*
X66314285Y-52384828D01*
X66314285Y-52170542D02*
X65564285Y-52170542D01*
X65671428Y-52241971D01*
X65742857Y-52313400D01*
X65778571Y-52384828D01*
X65635714Y-51670542D02*
X65600000Y-51634828D01*
X65564285Y-51563400D01*
X65564285Y-51384828D01*
X65600000Y-51313400D01*
X65635714Y-51277685D01*
X65707142Y-51241971D01*
X65778571Y-51241971D01*
X65885714Y-51277685D01*
X66314285Y-51706257D01*
X66314285Y-51241971D01*
D12*
X78495714Y-48941904D02*
X78229047Y-48560952D01*
X78038571Y-48941904D02*
X78038571Y-48141904D01*
X78343333Y-48141904D01*
X78419523Y-48180000D01*
X78457619Y-48218095D01*
X78495714Y-48294285D01*
X78495714Y-48408571D01*
X78457619Y-48484761D01*
X78419523Y-48522857D01*
X78343333Y-48560952D01*
X78038571Y-48560952D01*
X79219523Y-48141904D02*
X78838571Y-48141904D01*
X78800476Y-48522857D01*
X78838571Y-48484761D01*
X78914761Y-48446666D01*
X79105238Y-48446666D01*
X79181428Y-48484761D01*
X79219523Y-48522857D01*
X79257619Y-48599047D01*
X79257619Y-48789523D01*
X79219523Y-48865714D01*
X79181428Y-48903809D01*
X79105238Y-48941904D01*
X78914761Y-48941904D01*
X78838571Y-48903809D01*
X78800476Y-48865714D01*
X79752857Y-48141904D02*
X79829047Y-48141904D01*
X79905238Y-48180000D01*
X79943333Y-48218095D01*
X79981428Y-48294285D01*
X80019523Y-48446666D01*
X80019523Y-48637142D01*
X79981428Y-48789523D01*
X79943333Y-48865714D01*
X79905238Y-48903809D01*
X79829047Y-48941904D01*
X79752857Y-48941904D01*
X79676666Y-48903809D01*
X79638571Y-48865714D01*
X79600476Y-48789523D01*
X79562380Y-48637142D01*
X79562380Y-48446666D01*
X79600476Y-48294285D01*
X79638571Y-48218095D01*
X79676666Y-48180000D01*
X79752857Y-48141904D01*
D10*
X90992380Y-75342857D02*
X90516190Y-75676190D01*
X90992380Y-75914285D02*
X89992380Y-75914285D01*
X89992380Y-75533333D01*
X90040000Y-75438095D01*
X90087619Y-75390476D01*
X90182857Y-75342857D01*
X90325714Y-75342857D01*
X90420952Y-75390476D01*
X90468571Y-75438095D01*
X90516190Y-75533333D01*
X90516190Y-75914285D01*
X90325714Y-74485714D02*
X90992380Y-74485714D01*
X89944761Y-74723809D02*
X90659047Y-74961904D01*
X90659047Y-74342857D01*
X90087619Y-74009523D02*
X90040000Y-73961904D01*
X89992380Y-73866666D01*
X89992380Y-73628571D01*
X90040000Y-73533333D01*
X90087619Y-73485714D01*
X90182857Y-73438095D01*
X90278095Y-73438095D01*
X90420952Y-73485714D01*
X90992380Y-74057142D01*
X90992380Y-73438095D01*
X91142380Y-47092857D02*
X90666190Y-47426190D01*
X91142380Y-47664285D02*
X90142380Y-47664285D01*
X90142380Y-47283333D01*
X90190000Y-47188095D01*
X90237619Y-47140476D01*
X90332857Y-47092857D01*
X90475714Y-47092857D01*
X90570952Y-47140476D01*
X90618571Y-47188095D01*
X90666190Y-47283333D01*
X90666190Y-47664285D01*
X90142380Y-46188095D02*
X90142380Y-46664285D01*
X90618571Y-46711904D01*
X90570952Y-46664285D01*
X90523333Y-46569047D01*
X90523333Y-46330952D01*
X90570952Y-46235714D01*
X90618571Y-46188095D01*
X90713809Y-46140476D01*
X90951904Y-46140476D01*
X91047142Y-46188095D01*
X91094761Y-46235714D01*
X91142380Y-46330952D01*
X91142380Y-46569047D01*
X91094761Y-46664285D01*
X91047142Y-46711904D01*
X91142380Y-45188095D02*
X91142380Y-45759523D01*
X91142380Y-45473809D02*
X90142380Y-45473809D01*
X90285238Y-45569047D01*
X90380476Y-45664285D01*
X90428095Y-45759523D01*
X119873333Y-75207142D02*
X119825714Y-75254761D01*
X119682857Y-75302380D01*
X119587619Y-75302380D01*
X119444761Y-75254761D01*
X119349523Y-75159523D01*
X119301904Y-75064285D01*
X119254285Y-74873809D01*
X119254285Y-74730952D01*
X119301904Y-74540476D01*
X119349523Y-74445238D01*
X119444761Y-74350000D01*
X119587619Y-74302380D01*
X119682857Y-74302380D01*
X119825714Y-74350000D01*
X119873333Y-74397619D01*
X120349523Y-75302380D02*
X120540000Y-75302380D01*
X120635238Y-75254761D01*
X120682857Y-75207142D01*
X120778095Y-75064285D01*
X120825714Y-74873809D01*
X120825714Y-74492857D01*
X120778095Y-74397619D01*
X120730476Y-74350000D01*
X120635238Y-74302380D01*
X120444761Y-74302380D01*
X120349523Y-74350000D01*
X120301904Y-74397619D01*
X120254285Y-74492857D01*
X120254285Y-74730952D01*
X120301904Y-74826190D01*
X120349523Y-74873809D01*
X120444761Y-74921428D01*
X120635238Y-74921428D01*
X120730476Y-74873809D01*
X120778095Y-74826190D01*
X120825714Y-74730952D01*
D14*
X90905000Y-80925000D02*
X91600000Y-80925000D01*
X90905000Y-82295000D02*
X90905000Y-85170000D01*
X90905000Y-81610000D02*
X90905000Y-80925000D01*
X90905000Y-82295000D02*
X90991724Y-82295000D01*
X91994493Y-85170000D02*
X92295000Y-85170000D01*
X92208276Y-82295000D02*
X92295000Y-82295000D01*
X90905000Y-85170000D02*
X91205507Y-85170000D01*
X92295000Y-82295000D02*
X92295000Y-85170000D01*
X60590000Y-60170000D02*
X60590000Y-58840000D01*
X60590000Y-64040000D02*
X63250000Y-64040000D01*
X60590000Y-61440000D02*
X60590000Y-64040000D01*
X60590000Y-61440000D02*
X63250000Y-61440000D01*
X60590000Y-58840000D02*
X61920000Y-58840000D01*
X63250000Y-61440000D02*
X63250000Y-64040000D01*
X66260000Y-81490000D02*
X70760000Y-81490000D01*
X86060000Y-66490000D02*
X86060000Y-66990000D01*
X86060000Y-66490000D02*
X85060000Y-66490000D01*
X66260000Y-81490000D02*
X66260000Y-66490000D01*
X86060000Y-81490000D02*
X86060000Y-80990000D01*
X66260000Y-66490000D02*
X70760000Y-66490000D01*
X86060000Y-81490000D02*
X85060000Y-81490000D01*
X88614639Y-63600000D02*
X88614639Y-61400000D01*
X88614639Y-63600000D02*
X88614639Y-67200000D01*
X95384639Y-63600000D02*
X95384639Y-61400000D01*
X95384639Y-63600000D02*
X95384639Y-65800000D01*
X134410000Y-62150000D02*
X132290000Y-62150000D01*
X132290000Y-62150000D02*
X132290000Y-60090000D01*
X134410000Y-60090000D02*
X132290000Y-60090000D01*
X134410000Y-63150000D02*
X134410000Y-64210000D01*
X134410000Y-64210000D02*
X133350000Y-64210000D01*
X134410000Y-62150000D02*
X134410000Y-60090000D01*
X115365000Y-51038748D02*
X115365000Y-51561252D01*
X116835000Y-51038748D02*
X116835000Y-51561252D01*
X105015000Y-62011252D02*
X105015000Y-61488748D01*
X106485000Y-62011252D02*
X106485000Y-61488748D01*
X119688748Y-66515000D02*
X120211252Y-66515000D01*
X119688748Y-67985000D02*
X120211252Y-67985000D01*
X111610000Y-84000000D02*
X111610000Y-85060000D01*
X109490000Y-83000000D02*
X109490000Y-78940000D01*
X111610000Y-83000000D02*
X111610000Y-78940000D01*
X111610000Y-78940000D02*
X109490000Y-78940000D01*
X111610000Y-83000000D02*
X109490000Y-83000000D01*
X111610000Y-85060000D02*
X110550000Y-85060000D01*
X132290000Y-67150000D02*
X134410000Y-67150000D01*
X132290000Y-69210000D02*
X134410000Y-69210000D01*
X134410000Y-67150000D02*
X134410000Y-69210000D01*
X132290000Y-66150000D02*
X132290000Y-65090000D01*
X132290000Y-65090000D02*
X133350000Y-65090000D01*
X132290000Y-67150000D02*
X132290000Y-69210000D01*
X128360000Y-69150000D02*
X128360000Y-70210000D01*
X128360000Y-70210000D02*
X127300000Y-70210000D01*
X128360000Y-60090000D02*
X126240000Y-60090000D01*
X128360000Y-68150000D02*
X126240000Y-68150000D01*
X128360000Y-68150000D02*
X128360000Y-60090000D01*
X126240000Y-68150000D02*
X126240000Y-60090000D01*
X127885000Y-76261252D02*
X127885000Y-75738748D01*
X126415000Y-76261252D02*
X126415000Y-75738748D01*
X120038748Y-69565000D02*
X120561252Y-69565000D01*
X120038748Y-71035000D02*
X120561252Y-71035000D01*
X92985000Y-46577064D02*
X92985000Y-46122936D01*
X91515000Y-46577064D02*
X91515000Y-46122936D01*
X114000000Y-40300000D02*
X114000000Y-41350000D01*
X116540000Y-40300000D02*
X116540000Y-41350000D01*
X111460000Y-40300000D02*
X111460000Y-41350000D01*
X115265000Y-81888748D02*
X115265000Y-82411252D01*
X116735000Y-81888748D02*
X116735000Y-82411252D01*
X70630000Y-60050000D02*
X70630000Y-60710000D01*
X70630000Y-58390000D02*
X68600000Y-58390000D01*
X69220000Y-60710000D02*
X70630000Y-60710000D01*
X70630000Y-58390000D02*
X70630000Y-59050000D01*
X126415000Y-72288748D02*
X126415000Y-72811252D01*
X127885000Y-72288748D02*
X127885000Y-72811252D01*
X119090000Y-83835000D02*
X121010000Y-83835000D01*
X119090000Y-81150000D02*
X119090000Y-83835000D01*
X121010000Y-83835000D02*
X121010000Y-81150000D01*
X129240000Y-72150000D02*
X129240000Y-60090000D01*
X131360000Y-60090000D02*
X129240000Y-60090000D01*
X131360000Y-72150000D02*
X131360000Y-60090000D01*
X131360000Y-72150000D02*
X129240000Y-72150000D01*
X131360000Y-73150000D02*
X131360000Y-74210000D01*
X131360000Y-74210000D02*
X130300000Y-74210000D01*
X83700000Y-65850000D02*
X81150000Y-65850000D01*
X83700000Y-64150000D02*
X81150000Y-64150000D01*
X83700000Y-65850000D02*
X83700000Y-64150000D01*
X123465000Y-82377064D02*
X123465000Y-81922936D01*
X124935000Y-82377064D02*
X124935000Y-81922936D01*
X102111252Y-75365000D02*
X101588748Y-75365000D01*
X102111252Y-76835000D02*
X101588748Y-76835000D01*
X72585000Y-46322936D02*
X72585000Y-46777064D01*
X71115000Y-46322936D02*
X71115000Y-46777064D01*
X114935000Y-62111252D02*
X114935000Y-61588748D01*
X113465000Y-62111252D02*
X113465000Y-61588748D01*
X122015000Y-51038748D02*
X122015000Y-51561252D01*
X123485000Y-51038748D02*
X123485000Y-51561252D01*
X83700000Y-62000000D02*
X81150000Y-62000000D01*
X83700000Y-63700000D02*
X81150000Y-63700000D01*
X83700000Y-63700000D02*
X83700000Y-62000000D01*
X99010000Y-73840000D02*
X96890000Y-73840000D01*
X99010000Y-83900000D02*
X96890000Y-83900000D01*
X96890000Y-83900000D02*
X96890000Y-73840000D01*
X99010000Y-85960000D02*
X97950000Y-85960000D01*
X99010000Y-84900000D02*
X99010000Y-85960000D01*
X99010000Y-83900000D02*
X99010000Y-73840000D01*
X94885000Y-50238748D02*
X94885000Y-50761252D01*
X93415000Y-50238748D02*
X93415000Y-50761252D01*
X87665000Y-74372936D02*
X87665000Y-74827064D01*
X89135000Y-74372936D02*
X89135000Y-74827064D01*
X85538748Y-63585000D02*
X86061252Y-63585000D01*
X85538748Y-62115000D02*
X86061252Y-62115000D01*
X122450000Y-77650000D02*
X126050000Y-77650000D01*
X126050000Y-77650000D02*
X126050000Y-71900000D01*
X122450000Y-71900000D02*
X122450000Y-77650000D01*
X83700000Y-59850000D02*
X81150000Y-59850000D01*
X83700000Y-61550000D02*
X81150000Y-61550000D01*
X83700000Y-61550000D02*
X83700000Y-59850000D01*
X108485000Y-62011252D02*
X108485000Y-61488748D01*
X107015000Y-62011252D02*
X107015000Y-61488748D01*
X94688748Y-69335000D02*
X95211252Y-69335000D01*
X94688748Y-67865000D02*
X95211252Y-67865000D01*
X123915000Y-46727064D02*
X123915000Y-46272936D01*
X125385000Y-46727064D02*
X125385000Y-46272936D01*
X119688748Y-64515000D02*
X120211252Y-64515000D01*
X119688748Y-65985000D02*
X120211252Y-65985000D01*
X69672936Y-61215000D02*
X70127064Y-61215000D01*
X69672936Y-62685000D02*
X70127064Y-62685000D01*
X69215000Y-46777064D02*
X69215000Y-46322936D01*
X70685000Y-46777064D02*
X70685000Y-46322936D01*
X100460000Y-40300000D02*
X100460000Y-41350000D01*
X105540000Y-40300000D02*
X105540000Y-41350000D01*
X103000000Y-40300000D02*
X103000000Y-41350000D01*
X70000000Y-40300000D02*
X70000000Y-41350000D01*
X67460000Y-40300000D02*
X67460000Y-41350000D01*
X72540000Y-40300000D02*
X72540000Y-41350000D01*
X101865000Y-46777064D02*
X101865000Y-46322936D01*
X103335000Y-46777064D02*
X103335000Y-46322936D01*
X113065000Y-46877064D02*
X113065000Y-46422936D01*
X114535000Y-46877064D02*
X114535000Y-46422936D01*
X105940000Y-65840000D02*
X105940000Y-66790000D01*
X116160000Y-65840000D02*
X116160000Y-66790000D01*
X105940000Y-76060000D02*
X105940000Y-75110000D01*
X106890000Y-65840000D02*
X105940000Y-65840000D01*
X116160000Y-75110000D02*
X117500000Y-75110000D01*
X106890000Y-76060000D02*
X105940000Y-76060000D01*
X115210000Y-76060000D02*
X116160000Y-76060000D01*
X115210000Y-65840000D02*
X116160000Y-65840000D01*
X116160000Y-76060000D02*
X116160000Y-75110000D01*
X127540000Y-40300000D02*
X127540000Y-41350000D01*
X122460000Y-40300000D02*
X122460000Y-41350000D01*
X125000000Y-40300000D02*
X125000000Y-41350000D01*
X129240000Y-75140000D02*
X130300000Y-75140000D01*
X129240000Y-76200000D02*
X129240000Y-75140000D01*
X131360000Y-77200000D02*
X131360000Y-79260000D01*
X129240000Y-79260000D02*
X131360000Y-79260000D01*
X129240000Y-77200000D02*
X129240000Y-79260000D01*
X129240000Y-77200000D02*
X131360000Y-77200000D01*
X81885000Y-46827064D02*
X81885000Y-46372936D01*
X80415000Y-46827064D02*
X80415000Y-46372936D01*
X102111252Y-77365000D02*
X101588748Y-77365000D01*
X102111252Y-78835000D02*
X101588748Y-78835000D01*
X114785000Y-82377064D02*
X114785000Y-81922936D01*
X113315000Y-82377064D02*
X113315000Y-81922936D01*
X124311252Y-62135000D02*
X123788748Y-62135000D01*
X124311252Y-60665000D02*
X123788748Y-60665000D01*
X116935000Y-46422936D02*
X116935000Y-46877064D01*
X115465000Y-46422936D02*
X115465000Y-46877064D01*
X121190000Y-83835000D02*
X123110000Y-83835000D01*
X123110000Y-83835000D02*
X123110000Y-81150000D01*
X121190000Y-81150000D02*
X121190000Y-83835000D01*
X78515000Y-50488748D02*
X78515000Y-51011252D01*
X79985000Y-50488748D02*
X79985000Y-51011252D01*
X79000000Y-84150000D02*
G75*
G03*
X79000000Y-84150000I-700000J0D01*
G01*
X123485000Y-46272936D02*
X123485000Y-46727064D01*
X122015000Y-46272936D02*
X122015000Y-46727064D01*
X96185000Y-74977064D02*
X96185000Y-74522936D01*
X94715000Y-74977064D02*
X94715000Y-74522936D01*
X92000000Y-40300000D02*
X92000000Y-41350000D01*
X89460000Y-40300000D02*
X89460000Y-41350000D01*
X94540000Y-40300000D02*
X94540000Y-41350000D01*
X118910000Y-83835000D02*
X118910000Y-81150000D01*
X116990000Y-83835000D02*
X118910000Y-83835000D01*
X116990000Y-81150000D02*
X116990000Y-83835000D01*
X81000000Y-40300000D02*
X81000000Y-41350000D01*
X83540000Y-40300000D02*
X83540000Y-41350000D01*
X78460000Y-40300000D02*
X78460000Y-41350000D01*
D10*
X95575000Y-76850000D02*
X96050000Y-76850000D01*
X96050000Y-85150000D02*
X95575000Y-85150000D01*
X92850000Y-85150000D02*
X93325000Y-85150000D01*
X93325000Y-76850000D02*
X92850000Y-76850000D01*
X92850000Y-76850000D02*
X92850000Y-85150000D01*
X96050000Y-76850000D02*
X96050000Y-85150000D01*
X96350000Y-78700000D02*
X96350000Y-80700000D01*
D14*
X77850000Y-64550000D02*
G75*
G03*
X77850000Y-64550000I-700000J0D01*
G01*
X100065000Y-50338748D02*
X100065000Y-50861252D01*
X101535000Y-50338748D02*
X101535000Y-50861252D01*
X69672936Y-56415000D02*
X70127064Y-56415000D01*
X69672936Y-57885000D02*
X70127064Y-57885000D01*
X116065000Y-77838748D02*
X116065000Y-78361252D01*
X117535000Y-77838748D02*
X117535000Y-78361252D01*
X87440000Y-81335000D02*
X89360000Y-81335000D01*
X87440000Y-78650000D02*
X87440000Y-81335000D01*
X89360000Y-81335000D02*
X89360000Y-78650000D01*
X85538748Y-65735000D02*
X86061252Y-65735000D01*
X85538748Y-64265000D02*
X86061252Y-64265000D01*
X71115000Y-50438748D02*
X71115000Y-50961252D01*
X72585000Y-50438748D02*
X72585000Y-50961252D01*
X99965000Y-46322936D02*
X99965000Y-46777064D01*
X101435000Y-46322936D02*
X101435000Y-46777064D01*
X85400000Y-83600000D02*
G75*
G03*
X85400000Y-83600000I-700000J0D01*
G01*
X85538748Y-59965000D02*
X86061252Y-59965000D01*
X85538748Y-61435000D02*
X86061252Y-61435000D01*
D15*
X68087300Y-54613400D02*
X67337300Y-54613400D01*
D16*
X67050000Y-56700000D02*
X65050000Y-56700000D01*
D15*
X68187300Y-46800000D02*
X68187300Y-57400000D01*
X68087300Y-49600000D02*
X67287300Y-49600000D01*
D14*
X78515000Y-46372936D02*
X78515000Y-46827064D01*
X79985000Y-46372936D02*
X79985000Y-46827064D01*
X94185000Y-74977064D02*
X94185000Y-74522936D01*
X92715000Y-74977064D02*
X92715000Y-74522936D01*
X94885000Y-46122936D02*
X94885000Y-46577064D01*
X93415000Y-46122936D02*
X93415000Y-46577064D01*
X119288748Y-76665000D02*
X119811252Y-76665000D01*
X119288748Y-78135000D02*
X119811252Y-78135000D01*
%LPC*%
D17*
X91600000Y-81610000D03*
D18*
X91600000Y-82610000D03*
X91600000Y-83610000D03*
X91600000Y-84610000D03*
D19*
X61920000Y-60170000D03*
D20*
X61920000Y-62710000D03*
D21*
X71860000Y-81490000D03*
X82860000Y-81490000D03*
X83960000Y-81490000D03*
D22*
X86060000Y-77840000D03*
X86060000Y-76740000D03*
X86060000Y-75640000D03*
X86060000Y-74540000D03*
X86060000Y-73440000D03*
D21*
X77360000Y-66490000D03*
X76260000Y-66490000D03*
D23*
X85600000Y-45950000D03*
X82800000Y-45950000D03*
D24*
X84200000Y-45950000D03*
X84200000Y-50950000D03*
D23*
X82800000Y-50950000D03*
X85600000Y-50950000D03*
X104850000Y-51000000D03*
X107650000Y-51000000D03*
D24*
X106250000Y-51000000D03*
X106250000Y-46000000D03*
D23*
X104850000Y-46000000D03*
X107650000Y-46000000D03*
D25*
X89074639Y-66462500D03*
X89724639Y-66462500D03*
X90374639Y-66462500D03*
X91024639Y-66462500D03*
X91674639Y-66462500D03*
X92324639Y-66462500D03*
X92974639Y-66462500D03*
X93624639Y-66462500D03*
X94274639Y-66462500D03*
X94924639Y-66462500D03*
X94924639Y-60737500D03*
X94274639Y-60737500D03*
X93624639Y-60737500D03*
X92974639Y-60737500D03*
X92324639Y-60737500D03*
X91674639Y-60737500D03*
X91024639Y-60737500D03*
X90374639Y-60737500D03*
X89724639Y-60737500D03*
X89074639Y-60737500D03*
D26*
X133350000Y-63150000D03*
D27*
X133350000Y-61150000D03*
D28*
X116100000Y-50350000D03*
X116100000Y-52250000D03*
D29*
X105750000Y-62700000D03*
X105750000Y-60800000D03*
D30*
X119000000Y-67250000D03*
X120900000Y-67250000D03*
D26*
X110550000Y-84000000D03*
D27*
X110550000Y-82000000D03*
X110550000Y-80000000D03*
D26*
X133350000Y-66150000D03*
D27*
X133350000Y-68150000D03*
D26*
X127300000Y-69150000D03*
D27*
X127300000Y-67150000D03*
X127300000Y-65150000D03*
X127300000Y-63150000D03*
X127300000Y-61150000D03*
D29*
X127150000Y-76950000D03*
X127150000Y-75050000D03*
D30*
X119350000Y-70300000D03*
X121250000Y-70300000D03*
D31*
X92250000Y-47262500D03*
X92250000Y-45437500D03*
D32*
X111460000Y-42500000D03*
D33*
X114000000Y-42500000D03*
X116540000Y-42500000D03*
D28*
X116000000Y-81200000D03*
X116000000Y-83100000D03*
D34*
X68900000Y-58900000D03*
X68900000Y-60200000D03*
X70900000Y-59550000D03*
D28*
X127150000Y-71600000D03*
X127150000Y-73500000D03*
D35*
X120050000Y-83087500D03*
X120050000Y-81212500D03*
D26*
X130300000Y-73150000D03*
D27*
X130300000Y-71150000D03*
X130300000Y-69150000D03*
X130300000Y-67150000D03*
X130300000Y-65150000D03*
X130300000Y-63150000D03*
X130300000Y-61150000D03*
D36*
X81150000Y-65000000D03*
X83250000Y-65000000D03*
D31*
X124200000Y-83062500D03*
X124200000Y-81237500D03*
D37*
X102800000Y-76100000D03*
X100900000Y-76100000D03*
D38*
X71850000Y-45637500D03*
X71850000Y-47462500D03*
D29*
X114200000Y-62800000D03*
X114200000Y-60900000D03*
D28*
X122750000Y-50350000D03*
X122750000Y-52250000D03*
D36*
X83250000Y-62850000D03*
X81150000Y-62850000D03*
D26*
X97950000Y-84900000D03*
D27*
X97950000Y-82900000D03*
X97950000Y-80900000D03*
X97950000Y-78900000D03*
X97950000Y-76900000D03*
X97950000Y-74900000D03*
D28*
X94150000Y-49550000D03*
X94150000Y-51450000D03*
D38*
X88400000Y-73687500D03*
X88400000Y-75512500D03*
D30*
X84850000Y-62850000D03*
X86750000Y-62850000D03*
D39*
X124250000Y-76450000D03*
X124250000Y-72750000D03*
D36*
X83250000Y-60700000D03*
X81150000Y-60700000D03*
D29*
X107750000Y-62700000D03*
X107750000Y-60800000D03*
D30*
X94000000Y-68600000D03*
X95900000Y-68600000D03*
D40*
X62900000Y-53200000D03*
D23*
X129350000Y-46250000D03*
X126550000Y-46250000D03*
D24*
X127950000Y-46250000D03*
X127950000Y-51250000D03*
D23*
X129350000Y-51250000D03*
X126550000Y-51250000D03*
D31*
X124650000Y-47412500D03*
X124650000Y-45587500D03*
D30*
X119000000Y-65250000D03*
X120900000Y-65250000D03*
D41*
X68987500Y-61950000D03*
X70812500Y-61950000D03*
D31*
X69950000Y-47462500D03*
X69950000Y-45637500D03*
D32*
X100460000Y-42500000D03*
D33*
X103000000Y-42500000D03*
X105540000Y-42500000D03*
D32*
X67460000Y-42500000D03*
D33*
X70000000Y-42500000D03*
X72540000Y-42500000D03*
D31*
X102600000Y-47462500D03*
X102600000Y-45637500D03*
X113800000Y-47562500D03*
X113800000Y-45737500D03*
D42*
X116725000Y-74700000D03*
X116725000Y-74200000D03*
X116725000Y-73700000D03*
X116725000Y-73200000D03*
X116725000Y-72700000D03*
X116725000Y-72200000D03*
X116725000Y-71700000D03*
X116725000Y-71200000D03*
X116725000Y-70700000D03*
X116725000Y-70200000D03*
X116725000Y-69700000D03*
X116725000Y-69200000D03*
X116725000Y-68700000D03*
X116725000Y-68200000D03*
X116725000Y-67700000D03*
X116725000Y-67200000D03*
D43*
X114800000Y-65275000D03*
X114300000Y-65275000D03*
X113800000Y-65275000D03*
X113300000Y-65275000D03*
X112800000Y-65275000D03*
X112300000Y-65275000D03*
X111800000Y-65275000D03*
X111300000Y-65275000D03*
X110800000Y-65275000D03*
X110300000Y-65275000D03*
X109800000Y-65275000D03*
X109300000Y-65275000D03*
X108800000Y-65275000D03*
X108300000Y-65275000D03*
X107800000Y-65275000D03*
X107300000Y-65275000D03*
D42*
X105375000Y-67200000D03*
X105375000Y-67700000D03*
X105375000Y-68200000D03*
X105375000Y-68700000D03*
X105375000Y-69200000D03*
X105375000Y-69700000D03*
X105375000Y-70200000D03*
X105375000Y-70700000D03*
X105375000Y-71200000D03*
X105375000Y-71700000D03*
X105375000Y-72200000D03*
X105375000Y-72700000D03*
X105375000Y-73200000D03*
X105375000Y-73700000D03*
X105375000Y-74200000D03*
X105375000Y-74700000D03*
D43*
X107300000Y-76625000D03*
X107800000Y-76625000D03*
X108300000Y-76625000D03*
X108800000Y-76625000D03*
X109300000Y-76625000D03*
X109800000Y-76625000D03*
X110300000Y-76625000D03*
X110800000Y-76625000D03*
X111300000Y-76625000D03*
X111800000Y-76625000D03*
X112300000Y-76625000D03*
X112800000Y-76625000D03*
X113300000Y-76625000D03*
X113800000Y-76625000D03*
X114300000Y-76625000D03*
X114800000Y-76625000D03*
D32*
X122460000Y-42500000D03*
D33*
X125000000Y-42500000D03*
X127540000Y-42500000D03*
D27*
X130300000Y-78200000D03*
D26*
X130300000Y-76200000D03*
D40*
X119500000Y-49400000D03*
D31*
X81150000Y-47512500D03*
X81150000Y-45687500D03*
D37*
X102800000Y-78100000D03*
X100900000Y-78100000D03*
D31*
X114050000Y-83062500D03*
X114050000Y-81237500D03*
D37*
X125000000Y-61400000D03*
X123100000Y-61400000D03*
D38*
X116200000Y-45737500D03*
X116200000Y-47562500D03*
D35*
X122150000Y-83087500D03*
X122150000Y-81212500D03*
D28*
X79250000Y-49800000D03*
X79250000Y-51700000D03*
D44*
X78300000Y-84150000D03*
D38*
X122750000Y-45587500D03*
X122750000Y-47412500D03*
D31*
X95450000Y-75662500D03*
X95450000Y-73837500D03*
D32*
X89460000Y-42500000D03*
D33*
X92000000Y-42500000D03*
X94540000Y-42500000D03*
D35*
X117950000Y-83087500D03*
X117950000Y-81212500D03*
D32*
X78460000Y-42500000D03*
D33*
X81000000Y-42500000D03*
X83540000Y-42500000D03*
D45*
X94670000Y-79700000D03*
D46*
X93670000Y-80350000D03*
X94670000Y-81000000D03*
X93670000Y-81650000D03*
X94670000Y-82300000D03*
D47*
X94450000Y-77425000D03*
X94450000Y-84575000D03*
D44*
X77150000Y-64550000D03*
D28*
X100800000Y-49650000D03*
X100800000Y-51550000D03*
D41*
X68987500Y-57150000D03*
X70812500Y-57150000D03*
D28*
X116800000Y-77150000D03*
X116800000Y-79050000D03*
D35*
X88400000Y-80587500D03*
X88400000Y-78712500D03*
D40*
X62500000Y-45500000D03*
D30*
X84850000Y-65000000D03*
X86750000Y-65000000D03*
D28*
X71850000Y-49750000D03*
X71850000Y-51650000D03*
D38*
X100700000Y-45637500D03*
X100700000Y-47462500D03*
D44*
X84700000Y-83600000D03*
D30*
X84850000Y-60700000D03*
X86750000Y-60700000D03*
D48*
X66050000Y-49600000D03*
D49*
X66050000Y-54600000D03*
D40*
X97500000Y-49400000D03*
D38*
X79250000Y-45687500D03*
X79250000Y-47512500D03*
D31*
X93450000Y-75662500D03*
X93450000Y-73837500D03*
D38*
X94150000Y-45437500D03*
X94150000Y-47262500D03*
D30*
X118600000Y-77400000D03*
X120500000Y-77400000D03*
D40*
X75650000Y-49400000D03*
G36*
X75142121Y-60220002D02*
G01*
X75188614Y-60273658D01*
X75200000Y-60326000D01*
X75200000Y-63274000D01*
X75179998Y-63342121D01*
X75126342Y-63388614D01*
X75074000Y-63400000D01*
X72826000Y-63400000D01*
X72757879Y-63379998D01*
X72711386Y-63326342D01*
X72700000Y-63274000D01*
X72700000Y-60326000D01*
X72720002Y-60257879D01*
X72773658Y-60211386D01*
X72826000Y-60200000D01*
X75074000Y-60200000D01*
X75142121Y-60220002D01*
G37*
G36*
X85525364Y-41520002D02*
G01*
X85571857Y-41573658D01*
X85577555Y-41588570D01*
X86244312Y-43731717D01*
X86250000Y-43769147D01*
X86250000Y-45024000D01*
X86229998Y-45092121D01*
X86176342Y-45138614D01*
X86124000Y-45150000D01*
X85136000Y-45150000D01*
X85067879Y-45129998D01*
X85021386Y-45076342D01*
X85010000Y-45024000D01*
X85010000Y-43868115D01*
X85005525Y-43852876D01*
X85004135Y-43851671D01*
X84996452Y-43850000D01*
X83418115Y-43850000D01*
X83402876Y-43854475D01*
X83401671Y-43855865D01*
X83400000Y-43863548D01*
X83400000Y-44974000D01*
X83379998Y-45042121D01*
X83326342Y-45088614D01*
X83274000Y-45100000D01*
X82326000Y-45100000D01*
X82257879Y-45079998D01*
X82211386Y-45026342D01*
X82200000Y-44974000D01*
X82200000Y-43766513D01*
X82204254Y-43734048D01*
X82775057Y-41593535D01*
X82811936Y-41532868D01*
X82875760Y-41501770D01*
X82896803Y-41500000D01*
X85457243Y-41500000D01*
X85525364Y-41520002D01*
G37*
G36*
X123274184Y-41499817D02*
G01*
X123342275Y-41519918D01*
X123388690Y-41573642D01*
X123400000Y-41625817D01*
X123400000Y-43442048D01*
X123379998Y-43510169D01*
X123356000Y-43537714D01*
X120963753Y-45588212D01*
X120950000Y-45609361D01*
X120950000Y-47774000D01*
X120929998Y-47842121D01*
X120876342Y-47888614D01*
X120824000Y-47900000D01*
X118376000Y-47900000D01*
X118307879Y-47879998D01*
X118261386Y-47826342D01*
X118250000Y-47774000D01*
X118250000Y-46118115D01*
X118241739Y-46089982D01*
X115945806Y-43305552D01*
X115917901Y-43240269D01*
X115924606Y-43182333D01*
X116509793Y-41573069D01*
X116551871Y-41515886D01*
X116618184Y-41490528D01*
X116628391Y-41490129D01*
X123274184Y-41499817D01*
G37*
G36*
X129321318Y-41520002D02*
G01*
X129367811Y-41573658D01*
X129374943Y-41593535D01*
X129945746Y-43734048D01*
X129950000Y-43766513D01*
X129950000Y-45024000D01*
X129929998Y-45092121D01*
X129876342Y-45138614D01*
X129824000Y-45150000D01*
X128826000Y-45150000D01*
X128757879Y-45129998D01*
X128711386Y-45076342D01*
X128700000Y-45024000D01*
X128700000Y-43868115D01*
X128695525Y-43852876D01*
X128694135Y-43851671D01*
X128686452Y-43850000D01*
X127218115Y-43850000D01*
X127202876Y-43854475D01*
X127201671Y-43855865D01*
X127200000Y-43863548D01*
X127200000Y-44974000D01*
X127179998Y-45042121D01*
X127126342Y-45088614D01*
X127074000Y-45100000D01*
X126126000Y-45100000D01*
X126057879Y-45079998D01*
X126011386Y-45026342D01*
X126000000Y-44974000D01*
X126000000Y-43766513D01*
X126004254Y-43734048D01*
X126575057Y-41593535D01*
X126611936Y-41532868D01*
X126675760Y-41501770D01*
X126696803Y-41500000D01*
X129253197Y-41500000D01*
X129321318Y-41520002D01*
G37*
G36*
X107525364Y-41470002D02*
G01*
X107571857Y-41523658D01*
X107577555Y-41538570D01*
X108244312Y-43681717D01*
X108250000Y-43719147D01*
X108250000Y-44974000D01*
X108229998Y-45042121D01*
X108176342Y-45088614D01*
X108124000Y-45100000D01*
X107176000Y-45100000D01*
X107107879Y-45079998D01*
X107061386Y-45026342D01*
X107050000Y-44974000D01*
X107050000Y-43868115D01*
X107045525Y-43852876D01*
X107044135Y-43851671D01*
X107036452Y-43850000D01*
X105458115Y-43850000D01*
X105442876Y-43854475D01*
X105441671Y-43855865D01*
X105440000Y-43863548D01*
X105440000Y-44924000D01*
X105419998Y-44992121D01*
X105366342Y-45038614D01*
X105314000Y-45050000D01*
X104326000Y-45050000D01*
X104257879Y-45029998D01*
X104211386Y-44976342D01*
X104200000Y-44924000D01*
X104200000Y-43716513D01*
X104204254Y-43684048D01*
X104775057Y-41543535D01*
X104811936Y-41482868D01*
X104875760Y-41451770D01*
X104896803Y-41450000D01*
X107457243Y-41450000D01*
X107525364Y-41470002D01*
G37*
G36*
X79382741Y-41540002D02*
G01*
X79429234Y-41593658D01*
X79440618Y-41645379D01*
X79449741Y-43497446D01*
X79430075Y-43565665D01*
X79412838Y-43587162D01*
X79403502Y-43596498D01*
X79396242Y-43603210D01*
X77013775Y-45638233D01*
X77000000Y-45659338D01*
X77000000Y-47874000D01*
X76979998Y-47942121D01*
X76926342Y-47988614D01*
X76874000Y-48000000D01*
X74426681Y-48000000D01*
X74358560Y-47979998D01*
X74312067Y-47926342D01*
X74300683Y-47873321D01*
X74309694Y-46201270D01*
X74301634Y-46173260D01*
X72001980Y-43384318D01*
X71974075Y-43319035D01*
X71978080Y-43269411D01*
X72453819Y-41611252D01*
X72491832Y-41551289D01*
X72556229Y-41521396D01*
X72574933Y-41520000D01*
X79314620Y-41520000D01*
X79382741Y-41540002D01*
G37*
G36*
X101392121Y-41530002D02*
G01*
X101438614Y-41583658D01*
X101450000Y-41636000D01*
X101450000Y-43443272D01*
X101429998Y-43511393D01*
X101407527Y-43537607D01*
X98998285Y-45670822D01*
X98984779Y-45692340D01*
X98999169Y-47973529D01*
X98979598Y-48041775D01*
X98926236Y-48088605D01*
X98873157Y-48100324D01*
X96178933Y-48099999D01*
X96110814Y-48079989D01*
X96064328Y-48026327D01*
X96052982Y-47971069D01*
X96099579Y-45968110D01*
X96092084Y-45940199D01*
X94042471Y-43402583D01*
X94015229Y-43337022D01*
X94020321Y-43285533D01*
X94552223Y-41598120D01*
X94591779Y-41539164D01*
X94656930Y-41510953D01*
X94672394Y-41510000D01*
X101324000Y-41510000D01*
X101392121Y-41530002D01*
G37*
M02*
