M48
; DRILL file {KiCad (6.0.7-1)-1} date 2023 January 06, Friday 15:11:36
; FORMAT={-:-/ absolute / metric / decimal}
; #@! TF.CreationDate,2023-01-06T15:11:36+01:00
; #@! TF.GenerationSoftware,Kicad,Pcbnew,(6.0.7-1)-1
; #@! TF.FileFunction,Plated,1,4,PTH
FMAT,2
METRIC
; #@! TA.AperFunction,Plated,PTH,ViaDrill
T1C0.200
; #@! TA.AperFunction,Plated,PTH,ViaDrill
T2C0.300
; #@! TA.AperFunction,Plated,PTH,ComponentDrill
T3C0.700
; #@! TA.AperFunction,Plated,PTH,ComponentDrill
T4C1.000
; #@! TA.AperFunction,Plated,PTH,ComponentDrill
T5C1.200
; #@! TA.AperFunction,Plated,PTH,ComponentDrill
T6C2.100
%
G90
G05
T1
X67.72Y-63.15
X67.72Y-64.65
X67.72Y-66.15
X67.72Y-67.65
X67.72Y-69.15
X67.72Y-70.65
X67.72Y-72.15
X67.72Y-73.65
X67.72Y-75.15
X68.3Y-62.35
X68.47Y-63.9
X68.47Y-65.4
X68.47Y-66.9
X68.47Y-68.4
X68.47Y-69.9
X68.47Y-71.4
X68.47Y-72.9
X68.47Y-74.4
X68.47Y-75.9
X69.65Y-115.1
X70.35Y-115.1
X70.65Y-107.0
X70.9Y-70.9
X70.9Y-73.0
X70.9Y-74.9
X71.0Y-61.0
X71.0Y-62.9
X71.0Y-65.0
X71.0Y-77.25
X71.35Y-107.0
X74.451Y-74.781
X74.75Y-59.5
X76.95Y-74.748
X77.75Y-89.0
X79.95Y-115.1
X80.0Y-61.65
X80.0Y-62.35
X80.65Y-115.1
X81.75Y-93.75
X82.271Y-69.013
X82.4Y-107.0
X82.971Y-68.997
X83.1Y-107.0
X83.57Y-72.5
X83.62Y-62.75
X83.62Y-65.75
X83.62Y-75.5
X84.354Y-64.25
X84.37Y-63.5
X84.37Y-65.0
X84.37Y-66.5
X84.37Y-67.25
X84.37Y-68.0
X84.37Y-70.3
X84.37Y-71.0
X84.37Y-71.8
X84.37Y-73.3
X84.37Y-74.0
X84.37Y-74.7
X86.9Y-63.25
X86.95Y-64.75
X86.95Y-66.25
X86.95Y-67.75
X86.95Y-69.25
X86.95Y-70.75
X86.95Y-72.25
X86.95Y-73.75
X86.95Y-75.25
X87.7Y-64.0
X87.7Y-65.5
X87.7Y-67.0
X87.7Y-68.5
X87.7Y-70.0
X87.7Y-71.5
X87.7Y-73.0
X87.7Y-74.5
X87.75Y-62.5
X89.85Y-115.3
X90.3Y-71.0
X90.3Y-73.0
X90.3Y-75.0
X90.4Y-77.2
X90.5Y-60.9
X90.5Y-63.0
X90.5Y-65.0
X90.55Y-115.3
X93.25Y-59.5
X94.5Y-84.75
X94.5Y-87.75
X95.9Y-107.0
X96.6Y-107.0
X99.75Y-61.65
X99.75Y-62.35
X101.971Y-69.304
X102.67Y-69.28
X103.25Y-62.9
X103.25Y-65.9
X103.3Y-72.55
X103.35Y-75.5
X103.984Y-64.4
X103.984Y-67.4
X104.0Y-63.65
X104.0Y-65.15
X104.0Y-66.65
X104.0Y-68.15
X104.034Y-71.05
X104.034Y-74.05
X104.05Y-70.3
X104.05Y-71.8
X104.05Y-73.3
X104.05Y-74.8
X106.62Y-64.225
X106.62Y-65.725
X106.62Y-67.225
X106.62Y-68.725
X106.62Y-70.225
X106.62Y-71.725
X106.62Y-73.225
X106.62Y-74.725
X107.37Y-63.475
X107.37Y-64.975
X107.37Y-66.475
X107.37Y-67.975
X107.37Y-69.475
X107.37Y-70.975
X107.37Y-72.475
X107.37Y-73.975
X109.8Y-70.95
X109.8Y-72.95
X109.8Y-75.05
X110.0Y-60.9
X110.0Y-65.0
X110.0Y-67.0
X110.0Y-77.05
X113.0Y-59.5
X115.25Y-61.65
X115.25Y-62.35
X116.25Y-93.75
X121.0Y-93.75
X121.6Y-68.825
X122.4Y-68.8
X122.95Y-62.45
X122.95Y-65.55
X122.95Y-72.2
X123.0Y-75.15
X123.684Y-64.05
X123.684Y-67.05
X123.684Y-70.7
X123.7Y-63.3
X123.7Y-64.8
X123.7Y-66.3
X123.7Y-67.8
X123.7Y-69.95
X123.7Y-71.45
X123.734Y-73.65
X123.75Y-72.9
X123.75Y-74.4
T2
X67.75Y-117.5
X68.5Y-120.5
X71.175Y-110.825
X73.77Y-80.65
X73.97Y-77.25
X73.97Y-78.15
X77.0Y-85.0
X77.25Y-117.5
X78.25Y-120.5
X80.75Y-84.75
X82.75Y-110.75
X85.75Y-63.0
X85.75Y-64.25
X85.75Y-65.5
X85.75Y-66.75
X85.75Y-68.0
X85.75Y-69.25
X85.75Y-70.5
X85.75Y-71.75
X85.75Y-73.0
X85.75Y-74.25
X85.75Y-75.5
X86.0Y-98.0
X87.5Y-117.5
X88.25Y-120.5
X93.5Y-80.75
X93.75Y-77.45
X93.75Y-78.25
X94.0Y-133.0
X95.5Y-125.0
X96.5Y-110.5
X101.236Y-85.031
X101.5Y-90.75
X105.25Y-62.75
X105.25Y-64.0
X105.25Y-65.25
X105.25Y-66.5
X105.25Y-67.75
X105.25Y-69.0
X105.25Y-70.25
X105.25Y-71.5
X105.25Y-72.75
X105.25Y-74.0
X105.25Y-75.25
X108.5Y-130.75
X112.75Y-80.5
X113.32Y-77.025
X113.37Y-77.925
X113.9Y-98.75
X120.0Y-84.5
X123.5Y-84.5
X124.75Y-62.5
X124.75Y-63.75
X124.75Y-65.0
X124.75Y-66.25
X124.75Y-67.5
X124.75Y-68.75
X124.75Y-70.0
X124.75Y-71.25
X124.75Y-72.5
X124.75Y-73.75
X124.75Y-75.0
T3
X83.3Y-80.3
X85.3Y-56.8
T4
X75.475Y-128.725
X75.475Y-131.265
X78.015Y-128.725
X78.015Y-131.265
X88.45Y-92.735
X88.45Y-95.275
X90.99Y-92.735
X90.99Y-95.275
X93.53Y-92.735
X93.53Y-95.275
X96.07Y-92.735
X96.07Y-95.275
X98.45Y-128.735
X98.45Y-131.275
X100.99Y-128.735
X100.99Y-131.275
X103.53Y-128.735
X103.53Y-131.275
X106.07Y-128.735
X106.07Y-131.275
X110.425Y-92.8
X112.965Y-92.8
T5
X112.3Y-44.374
X112.3Y-49.374
T6
X78.0Y-56.0
X97.25Y-56.0
X116.75Y-56.0
X121.05Y-44.5
X121.05Y-51.25
T0
M30
