G04 #@! TF.GenerationSoftware,KiCad,Pcbnew,(6.0.7-1)-1*
G04 #@! TF.CreationDate,2023-01-06T15:11:33+01:00*
G04 #@! TF.ProjectId,ESC-power-epc,4553432d-706f-4776-9572-2d6570632e6b,rev?*
G04 #@! TF.SameCoordinates,Original*
G04 #@! TF.FileFunction,Soldermask,Bot*
G04 #@! TF.FilePolarity,Negative*
%FSLAX46Y46*%
G04 Gerber Fmt 4.6, Leading zero omitted, Abs format (unit mm)*
G04 Created by KiCad (PCBNEW (6.0.7-1)-1) date 2023-01-06 15:11:33*
%MOMM*%
%LPD*%
G01*
G04 APERTURE LIST*
G04 Aperture macros list*
%AMRoundRect*
0 Rectangle with rounded corners*
0 $1 Rounding radius*
0 $2 $3 $4 $5 $6 $7 $8 $9 X,Y pos of 4 corners*
0 Add a 4 corners polygon primitive as box body*
4,1,4,$2,$3,$4,$5,$6,$7,$8,$9,$2,$3,0*
0 Add four circle primitives for the rounded corners*
1,1,$1+$1,$2,$3*
1,1,$1+$1,$4,$5*
1,1,$1+$1,$6,$7*
1,1,$1+$1,$8,$9*
0 Add four rect primitives between the rounded corners*
20,1,$1+$1,$2,$3,$4,$5,0*
20,1,$1+$1,$4,$5,$6,$7,0*
20,1,$1+$1,$6,$7,$8,$9,0*
20,1,$1+$1,$8,$9,$2,$3,0*%
G04 Aperture macros list end*
%ADD10R,2.400000X2.400000*%
%ADD11C,2.400000*%
%ADD12C,1.500000*%
%ADD13RoundRect,0.249999X-1.300001X-1.300001X1.300001X-1.300001X1.300001X1.300001X-1.300001X1.300001X0*%
%ADD14C,3.200000*%
%ADD15R,1.700000X1.700000*%
%ADD16O,1.700000X1.700000*%
%ADD17RoundRect,0.249999X1.300001X1.300001X-1.300001X1.300001X-1.300001X-1.300001X1.300001X-1.300001X0*%
%ADD18RoundRect,0.250000X0.250000X0.475000X-0.250000X0.475000X-0.250000X-0.475000X0.250000X-0.475000X0*%
%ADD19RoundRect,0.250000X0.475000X-0.250000X0.475000X0.250000X-0.475000X0.250000X-0.475000X-0.250000X0*%
G04 APERTURE END LIST*
D10*
X112300000Y-49373959D03*
D11*
X112300000Y-44373959D03*
D12*
X83300000Y-80300000D03*
X85300000Y-56800000D03*
D13*
X97250000Y-56000000D03*
D14*
X69250000Y-43500000D03*
D13*
X116750000Y-56000000D03*
D14*
X122250000Y-100000000D03*
X69250000Y-99000000D03*
D15*
X110425000Y-92800000D03*
D16*
X112965000Y-92800000D03*
D14*
X69250000Y-136500000D03*
D15*
X98450000Y-131275000D03*
D16*
X98450000Y-128735000D03*
X100990000Y-131275000D03*
X100990000Y-128735000D03*
X103530000Y-131275000D03*
X103530000Y-128735000D03*
X106070000Y-131275000D03*
X106070000Y-128735000D03*
D13*
X78000000Y-56000000D03*
X121050000Y-44500000D03*
D14*
X122250000Y-136500000D03*
X102800000Y-43550000D03*
D17*
X121050000Y-51250000D03*
D15*
X75475000Y-128725000D03*
D16*
X78015000Y-128725000D03*
X75475000Y-131265000D03*
X78015000Y-131265000D03*
D15*
X88450000Y-95275000D03*
D16*
X88450000Y-92735000D03*
X90990000Y-95275000D03*
X90990000Y-92735000D03*
X93530000Y-95275000D03*
X93530000Y-92735000D03*
X96070000Y-95275000D03*
X96070000Y-92735000D03*
D18*
X90950000Y-64000000D03*
X89050000Y-64000000D03*
X110450000Y-76000000D03*
X108550000Y-76000000D03*
X110450000Y-62000000D03*
X108550000Y-62000000D03*
X110450000Y-74000000D03*
X108550000Y-74000000D03*
X71600000Y-65900000D03*
X69700000Y-65900000D03*
D19*
X75250000Y-80450000D03*
X75250000Y-78550000D03*
D18*
X71600000Y-63900000D03*
X69700000Y-63900000D03*
X71600000Y-67900000D03*
X69700000Y-67900000D03*
X90950000Y-76000000D03*
X89050000Y-76000000D03*
X71600000Y-71900000D03*
X69700000Y-71900000D03*
X71600000Y-73900000D03*
X69700000Y-73900000D03*
X90950000Y-74000000D03*
X89050000Y-74000000D03*
X110450000Y-70000000D03*
X108550000Y-70000000D03*
X71600000Y-69900000D03*
X69700000Y-69900000D03*
D19*
X95000000Y-80450000D03*
X95000000Y-78550000D03*
D18*
X110450000Y-66000000D03*
X108550000Y-66000000D03*
X90950000Y-72000000D03*
X89050000Y-72000000D03*
X110450000Y-72000000D03*
X108550000Y-72000000D03*
D19*
X114750000Y-79950000D03*
X114750000Y-78050000D03*
D18*
X90950000Y-62000000D03*
X89050000Y-62000000D03*
X71600000Y-75900000D03*
X69700000Y-75900000D03*
X90950000Y-66000000D03*
X89050000Y-66000000D03*
X110450000Y-68000000D03*
X108550000Y-68000000D03*
X71600000Y-61900000D03*
X69700000Y-61900000D03*
X90950000Y-70000000D03*
X89050000Y-70000000D03*
X110450000Y-64000000D03*
X108550000Y-64000000D03*
X90950000Y-68000000D03*
X89050000Y-68000000D03*
G36*
X125374989Y-43749018D02*
G01*
X125442951Y-43769554D01*
X125489021Y-43823573D01*
X125500000Y-43875014D01*
X125500000Y-75374000D01*
X125479998Y-75442121D01*
X125426342Y-75488614D01*
X125374000Y-75500000D01*
X123626000Y-75500000D01*
X123557879Y-75479998D01*
X123511386Y-75426342D01*
X123500000Y-75374000D01*
X123500000Y-47018115D01*
X123495525Y-47002876D01*
X123494135Y-47001671D01*
X123486452Y-47000000D01*
X108018115Y-47000000D01*
X108004734Y-47003929D01*
X107992754Y-47018569D01*
X106404273Y-51089051D01*
X106400000Y-51111754D01*
X106400000Y-75574000D01*
X106379998Y-75642121D01*
X106326342Y-75688614D01*
X106274000Y-75700000D01*
X104326000Y-75700000D01*
X104257879Y-75679998D01*
X104211386Y-75626342D01*
X104200000Y-75574000D01*
X104200000Y-50218115D01*
X104195525Y-50202876D01*
X104194135Y-50201671D01*
X104186452Y-50200000D01*
X86768115Y-50200000D01*
X86752876Y-50204475D01*
X86751671Y-50205865D01*
X86750000Y-50213548D01*
X86750000Y-75874010D01*
X86729998Y-75942131D01*
X86676342Y-75988624D01*
X86624010Y-76000010D01*
X84775792Y-76000164D01*
X84707670Y-75980168D01*
X84661173Y-75926516D01*
X84649782Y-75874383D01*
X84600219Y-47326392D01*
X84620103Y-47258236D01*
X84673678Y-47211650D01*
X84726218Y-47200173D01*
X104781882Y-47200000D01*
X104796790Y-47195623D01*
X104807491Y-47183145D01*
X106366457Y-43675472D01*
X106412401Y-43621346D01*
X106482586Y-43600649D01*
X125374989Y-43749018D01*
G37*
M02*
