G04 #@! TF.GenerationSoftware,KiCad,Pcbnew,(6.0.7-1)-1*
G04 #@! TF.CreationDate,2022-08-22T21:17:02+02:00*
G04 #@! TF.ProjectId,FROST-ESC,46524f53-542d-4455-9343-2e6b69636164,rev?*
G04 #@! TF.SameCoordinates,Original*
G04 #@! TF.FileFunction,Paste,Top*
G04 #@! TF.FilePolarity,Positive*
%FSLAX46Y46*%
G04 Gerber Fmt 4.6, Leading zero omitted, Abs format (unit mm)*
G04 Created by KiCad (PCBNEW (6.0.7-1)-1) date 2022-08-22 21:17:02*
%MOMM*%
%LPD*%
G01*
G04 APERTURE LIST*
G04 Aperture macros list*
%AMRoundRect*
0 Rectangle with rounded corners*
0 $1 Rounding radius*
0 $2 $3 $4 $5 $6 $7 $8 $9 X,Y pos of 4 corners*
0 Add a 4 corners polygon primitive as box body*
4,1,4,$2,$3,$4,$5,$6,$7,$8,$9,$2,$3,0*
0 Add four circle primitives for the rounded corners*
1,1,$1+$1,$2,$3*
1,1,$1+$1,$4,$5*
1,1,$1+$1,$6,$7*
1,1,$1+$1,$8,$9*
0 Add four rect primitives between the rounded corners*
20,1,$1+$1,$2,$3,$4,$5,0*
20,1,$1+$1,$4,$5,$6,$7,0*
20,1,$1+$1,$6,$7,$8,$9,0*
20,1,$1+$1,$8,$9,$2,$3,0*%
G04 Aperture macros list end*
%ADD10RoundRect,0.080000X-0.320000X0.720000X-0.320000X-0.720000X0.320000X-0.720000X0.320000X0.720000X0*%
%ADD11RoundRect,0.080000X-0.720000X-0.320000X0.720000X-0.320000X0.720000X0.320000X-0.720000X0.320000X0*%
%ADD12R,1.200000X3.400000*%
%ADD13R,0.600000X3.400000*%
%ADD14RoundRect,0.100000X0.100000X-0.637500X0.100000X0.637500X-0.100000X0.637500X-0.100000X-0.637500X0*%
%ADD15RoundRect,0.250000X-0.475000X0.250000X-0.475000X-0.250000X0.475000X-0.250000X0.475000X0.250000X0*%
%ADD16RoundRect,0.250000X0.475000X-0.250000X0.475000X0.250000X-0.475000X0.250000X-0.475000X-0.250000X0*%
%ADD17RoundRect,0.250000X-0.250000X-0.475000X0.250000X-0.475000X0.250000X0.475000X-0.250000X0.475000X0*%
%ADD18RoundRect,0.250000X0.450000X-0.262500X0.450000X0.262500X-0.450000X0.262500X-0.450000X-0.262500X0*%
%ADD19R,0.700000X0.450000*%
%ADD20RoundRect,0.243750X0.456250X-0.243750X0.456250X0.243750X-0.456250X0.243750X-0.456250X-0.243750X0*%
%ADD21R,0.600000X0.450000*%
%ADD22RoundRect,0.250000X0.250000X0.475000X-0.250000X0.475000X-0.250000X-0.475000X0.250000X-0.475000X0*%
%ADD23RoundRect,0.250000X-0.450000X0.262500X-0.450000X-0.262500X0.450000X-0.262500X0.450000X0.262500X0*%
%ADD24R,2.400000X2.000000*%
%ADD25RoundRect,0.250000X-0.262500X-0.450000X0.262500X-0.450000X0.262500X0.450000X-0.262500X0.450000X0*%
%ADD26RoundRect,0.075000X0.700000X0.075000X-0.700000X0.075000X-0.700000X-0.075000X0.700000X-0.075000X0*%
%ADD27RoundRect,0.075000X0.075000X0.700000X-0.075000X0.700000X-0.075000X-0.700000X0.075000X-0.700000X0*%
G04 APERTURE END LIST*
D10*
X71860000Y-81490000D03*
X82860000Y-81490000D03*
X83960000Y-81490000D03*
D11*
X86060000Y-77840000D03*
X86060000Y-76740000D03*
X86060000Y-75640000D03*
X86060000Y-74540000D03*
X86060000Y-73440000D03*
D10*
X77360000Y-66490000D03*
X76260000Y-66490000D03*
D12*
X85600000Y-45950000D03*
X82800000Y-45950000D03*
D13*
X84200000Y-45950000D03*
X84200000Y-50950000D03*
D12*
X82800000Y-50950000D03*
X85600000Y-50950000D03*
X104850000Y-51000000D03*
X107650000Y-51000000D03*
D13*
X106250000Y-51000000D03*
X106250000Y-46000000D03*
D12*
X104850000Y-46000000D03*
X107650000Y-46000000D03*
D14*
X89074639Y-66462500D03*
X89724639Y-66462500D03*
X90374639Y-66462500D03*
X91024639Y-66462500D03*
X91674639Y-66462500D03*
X92324639Y-66462500D03*
X92974639Y-66462500D03*
X93624639Y-66462500D03*
X94274639Y-66462500D03*
X94924639Y-66462500D03*
X94924639Y-60737500D03*
X94274639Y-60737500D03*
X93624639Y-60737500D03*
X92974639Y-60737500D03*
X92324639Y-60737500D03*
X91674639Y-60737500D03*
X91024639Y-60737500D03*
X90374639Y-60737500D03*
X89724639Y-60737500D03*
X89074639Y-60737500D03*
D15*
X116100000Y-50350000D03*
X116100000Y-52250000D03*
D16*
X105750000Y-62700000D03*
X105750000Y-60800000D03*
D17*
X119000000Y-67250000D03*
X120900000Y-67250000D03*
D16*
X127150000Y-76950000D03*
X127150000Y-75050000D03*
D17*
X119350000Y-70300000D03*
X121250000Y-70300000D03*
D18*
X92250000Y-47262500D03*
X92250000Y-45437500D03*
D15*
X116000000Y-81200000D03*
X116000000Y-83100000D03*
D19*
X68900000Y-58900000D03*
X68900000Y-60200000D03*
X70900000Y-59550000D03*
D15*
X127150000Y-71600000D03*
X127150000Y-73500000D03*
D20*
X120050000Y-83087500D03*
X120050000Y-81212500D03*
D21*
X81150000Y-65000000D03*
X83250000Y-65000000D03*
D18*
X124200000Y-83062500D03*
X124200000Y-81237500D03*
D22*
X102800000Y-76100000D03*
X100900000Y-76100000D03*
D23*
X71850000Y-45637500D03*
X71850000Y-47462500D03*
D16*
X114200000Y-62800000D03*
X114200000Y-60900000D03*
D15*
X122750000Y-50350000D03*
X122750000Y-52250000D03*
D21*
X83250000Y-62850000D03*
X81150000Y-62850000D03*
D15*
X94150000Y-49550000D03*
X94150000Y-51450000D03*
D23*
X88400000Y-73687500D03*
X88400000Y-75512500D03*
D17*
X84850000Y-62850000D03*
X86750000Y-62850000D03*
D24*
X124250000Y-76450000D03*
X124250000Y-72750000D03*
D21*
X83250000Y-60700000D03*
X81150000Y-60700000D03*
D16*
X107750000Y-62700000D03*
X107750000Y-60800000D03*
D17*
X94000000Y-68600000D03*
X95900000Y-68600000D03*
D12*
X129350000Y-46250000D03*
X126550000Y-46250000D03*
D13*
X127950000Y-46250000D03*
X127950000Y-51250000D03*
D12*
X129350000Y-51250000D03*
X126550000Y-51250000D03*
D18*
X124650000Y-47412500D03*
X124650000Y-45587500D03*
D17*
X119000000Y-65250000D03*
X120900000Y-65250000D03*
D25*
X68987500Y-61950000D03*
X70812500Y-61950000D03*
D18*
X69950000Y-47462500D03*
X69950000Y-45637500D03*
X102600000Y-47462500D03*
X102600000Y-45637500D03*
X113800000Y-47562500D03*
X113800000Y-45737500D03*
D26*
X116725000Y-74700000D03*
X116725000Y-74200000D03*
X116725000Y-73700000D03*
X116725000Y-73200000D03*
X116725000Y-72700000D03*
X116725000Y-72200000D03*
X116725000Y-71700000D03*
X116725000Y-71200000D03*
X116725000Y-70700000D03*
X116725000Y-70200000D03*
X116725000Y-69700000D03*
X116725000Y-69200000D03*
X116725000Y-68700000D03*
X116725000Y-68200000D03*
X116725000Y-67700000D03*
X116725000Y-67200000D03*
D27*
X114800000Y-65275000D03*
X114300000Y-65275000D03*
X113800000Y-65275000D03*
X113300000Y-65275000D03*
X112800000Y-65275000D03*
X112300000Y-65275000D03*
X111800000Y-65275000D03*
X111300000Y-65275000D03*
X110800000Y-65275000D03*
X110300000Y-65275000D03*
X109800000Y-65275000D03*
X109300000Y-65275000D03*
X108800000Y-65275000D03*
X108300000Y-65275000D03*
X107800000Y-65275000D03*
X107300000Y-65275000D03*
D26*
X105375000Y-67200000D03*
X105375000Y-67700000D03*
X105375000Y-68200000D03*
X105375000Y-68700000D03*
X105375000Y-69200000D03*
X105375000Y-69700000D03*
X105375000Y-70200000D03*
X105375000Y-70700000D03*
X105375000Y-71200000D03*
X105375000Y-71700000D03*
X105375000Y-72200000D03*
X105375000Y-72700000D03*
X105375000Y-73200000D03*
X105375000Y-73700000D03*
X105375000Y-74200000D03*
X105375000Y-74700000D03*
D27*
X107300000Y-76625000D03*
X107800000Y-76625000D03*
X108300000Y-76625000D03*
X108800000Y-76625000D03*
X109300000Y-76625000D03*
X109800000Y-76625000D03*
X110300000Y-76625000D03*
X110800000Y-76625000D03*
X111300000Y-76625000D03*
X111800000Y-76625000D03*
X112300000Y-76625000D03*
X112800000Y-76625000D03*
X113300000Y-76625000D03*
X113800000Y-76625000D03*
X114300000Y-76625000D03*
X114800000Y-76625000D03*
D18*
X81150000Y-47512500D03*
X81150000Y-45687500D03*
D22*
X102800000Y-78100000D03*
X100900000Y-78100000D03*
D18*
X114050000Y-83062500D03*
X114050000Y-81237500D03*
D22*
X125000000Y-61400000D03*
X123100000Y-61400000D03*
D23*
X116200000Y-45737500D03*
X116200000Y-47562500D03*
D20*
X122150000Y-83087500D03*
X122150000Y-81212500D03*
D15*
X79250000Y-49800000D03*
X79250000Y-51700000D03*
D23*
X122750000Y-45587500D03*
X122750000Y-47412500D03*
D18*
X95450000Y-75662500D03*
X95450000Y-73837500D03*
D20*
X117950000Y-83087500D03*
X117950000Y-81212500D03*
D15*
X100800000Y-49650000D03*
X100800000Y-51550000D03*
D25*
X68987500Y-57150000D03*
X70812500Y-57150000D03*
D15*
X116800000Y-77150000D03*
X116800000Y-79050000D03*
D20*
X88400000Y-80587500D03*
X88400000Y-78712500D03*
D17*
X84850000Y-65000000D03*
X86750000Y-65000000D03*
D15*
X71850000Y-49750000D03*
X71850000Y-51650000D03*
D23*
X100700000Y-45637500D03*
X100700000Y-47462500D03*
D17*
X84850000Y-60700000D03*
X86750000Y-60700000D03*
D23*
X79250000Y-45687500D03*
X79250000Y-47512500D03*
D18*
X93450000Y-75662500D03*
X93450000Y-73837500D03*
D23*
X94150000Y-45437500D03*
X94150000Y-47262500D03*
D17*
X118600000Y-77400000D03*
X120500000Y-77400000D03*
M02*
