M48
; DRILL file {KiCad (6.0.7-1)-1} date 2022 August 22, Monday 21:17:40
; FORMAT={-:-/ absolute / metric / decimal}
; #@! TF.CreationDate,2022-08-22T21:17:40+02:00
; #@! TF.GenerationSoftware,Kicad,Pcbnew,(6.0.7-1)-1
; #@! TF.FileFunction,Plated,1,4,PTH
FMAT,2
METRIC
; #@! TA.AperFunction,Plated,PTH,ViaDrill
T1C0.300
; #@! TA.AperFunction,Plated,PTH,ComponentDrill
T2C0.350
; #@! TA.AperFunction,Plated,PTH,ViaDrill
T3C0.400
; #@! TA.AperFunction,Plated,PTH,ComponentDrill
T4C0.440
; #@! TA.AperFunction,Plated,PTH,ComponentDrill
T5C0.500
; #@! TA.AperFunction,Plated,PTH,ComponentDrill
T6C0.800
; #@! TA.AperFunction,Plated,PTH,ComponentDrill
T7C1.000
; #@! TA.AperFunction,Plated,PTH,ComponentDrill
T8C1.100
; #@! TA.AperFunction,Plated,PTH,ComponentDrill
T9C2.100
%
G90
G05
T1
X59.48Y-58.31
X59.77Y-60.19
X60.08Y-62.23
X60.47Y-64.44
X62.075Y-64.45
X63.75Y-64.45
X71.84Y-79.49
X71.84Y-83.4
X73.09Y-83.45
X81.6Y-49.55
X81.6Y-50.29
X81.6Y-51.03
X81.6Y-51.77
X81.6Y-52.5
X81.6Y-53.2
X81.68Y-81.0
X82.425Y-52.5
X82.425Y-53.2
X83.25Y-52.5
X83.25Y-53.2
X84.01Y-56.51
X84.2Y-53.2
X84.85Y-70.65
X85.1Y-57.09
X85.15Y-52.5
X85.15Y-53.2
X85.3Y-69.85
X85.85Y-57.95
X85.975Y-52.5
X85.975Y-53.2
X86.64Y-58.66
X86.8Y-49.55
X86.8Y-50.29
X86.8Y-51.03
X86.8Y-51.77
X86.8Y-52.5
X86.8Y-53.2
X86.85Y-70.01
X87.65Y-66.84
X87.7Y-70.0
X88.042Y-55.558
X88.758Y-56.149
X88.88Y-59.11
X88.89Y-84.35
X89.359Y-56.751
X89.95Y-75.93
X90.35Y-61.9
X91.6Y-56.75
X92.25Y-56.25
X92.325Y-61.85
X92.39Y-81.55
X93.069Y-56.25
X93.45Y-55.5
X94.09Y-83.17
X94.15Y-56.15
X94.275Y-62.325
X94.3Y-64.626
X94.9Y-63.9
X95.685Y-61.665
X95.79Y-67.08
X98.19Y-57.57
X98.19Y-58.94
X98.94Y-66.76
X99.18Y-84.46
X99.65Y-75.2
X99.66Y-77.3
X99.67Y-57.54
X99.89Y-63.06
X100.45Y-68.2
X101.0Y-63.35
X101.15Y-58.524
X101.23Y-57.53
X101.75Y-67.95
X102.119Y-82.263
X102.3Y-58.25
X102.45Y-63.2
X103.334Y-60.944
X103.65Y-49.65
X103.65Y-50.39
X103.65Y-51.13
X103.65Y-51.87
X103.65Y-52.61
X103.65Y-53.31
X103.94Y-83.48
X104.119Y-80.509
X104.3Y-79.5
X104.35Y-75.65
X104.475Y-52.61
X104.475Y-53.31
X104.77Y-66.04
X105.3Y-52.61
X105.3Y-53.31
X106.15Y-80.0
X106.25Y-53.31
X106.95Y-67.25
X106.991Y-73.525
X107.2Y-52.61
X107.2Y-53.31
X107.299Y-70.876
X107.95Y-84.65
X108.025Y-52.61
X108.025Y-53.31
X108.157Y-59.107
X108.3Y-73.7
X108.85Y-49.65
X108.85Y-50.39
X108.85Y-51.13
X108.85Y-51.87
X108.85Y-52.61
X108.85Y-53.31
X109.1Y-62.4
X109.16Y-84.34
X109.45Y-73.825
X109.984Y-73.176
X111.348Y-70.933
X111.35Y-62.1
X111.45Y-71.725
X112.7Y-77.97
X112.8Y-80.55
X112.95Y-70.525
X113.3Y-84.38
X113.324Y-66.496
X113.79Y-48.94
X113.924Y-78.15
X114.17Y-66.54
X114.55Y-79.05
X114.95Y-78.15
X114.975Y-66.65
X114.977Y-67.451
X114.999Y-68.357
X115.0Y-72.5
X115.1Y-69.15
X118.15Y-71.55
X118.231Y-80.018
X118.27Y-69.06
X118.925Y-80.436
X119.25Y-60.0
X120.05Y-79.0
X121.15Y-59.2
X125.2Y-64.95
X125.35Y-49.79
X125.35Y-50.53
X125.35Y-51.27
X125.35Y-52.01
X125.35Y-52.76
X125.35Y-53.45
X126.175Y-52.76
X126.175Y-53.45
X126.56Y-65.99
X127.0Y-52.76
X127.0Y-53.45
X127.75Y-75.9
X127.95Y-53.45
X128.45Y-73.5
X128.9Y-52.76
X128.9Y-53.45
X129.0Y-80.55
X129.56Y-68.19
X129.725Y-52.76
X129.725Y-53.45
X130.55Y-49.79
X130.55Y-50.53
X130.55Y-51.27
X130.55Y-52.01
X130.55Y-52.76
X130.55Y-53.45
T3
X63.0Y-57.4
X64.3Y-57.4
X65.6Y-57.4
X67.05Y-59.6
X71.3Y-44.0
X73.4Y-60.9
X73.4Y-61.8
X73.4Y-62.75
X74.25Y-65.7
X74.6Y-60.9
X74.6Y-61.8
X74.6Y-62.75
X76.24Y-76.37
X77.55Y-73.95
X77.85Y-51.526
X78.2Y-58.1
X79.33Y-84.93
X80.25Y-63.7
X82.1Y-67.3
X82.65Y-68.05
X84.81Y-72.05
X85.805Y-72.05
X86.75Y-84.9
X86.8Y-72.05
X89.681Y-79.5
X91.35Y-79.5
X93.049Y-68.65
X93.125Y-67.725
X93.35Y-43.85
X97.1Y-68.599
X98.25Y-69.127
X98.912Y-60.075
X98.912Y-61.125
X99.58Y-51.57
X115.25Y-43.85
X115.8Y-65.05
X115.9Y-62.074
X116.592Y-64.283
X117.613Y-65.213
X118.475Y-63.425
X121.45Y-62.2
X121.55Y-51.6
X122.2Y-65.25
X122.2Y-67.25
X125.45Y-83.424
T4
X93.67Y-80.35
X93.67Y-81.65
X94.67Y-79.7
X94.67Y-81.0
X94.67Y-82.3
T5
X91.6Y-81.61
X91.6Y-82.61
X91.6Y-83.61
X91.6Y-84.61
T6
X66.05Y-49.6
X66.05Y-54.6
X97.95Y-74.9
X97.95Y-76.9
X97.95Y-78.9
X97.95Y-80.9
X97.95Y-82.9
X97.95Y-84.9
X110.55Y-80.0
X110.55Y-82.0
X110.55Y-84.0
X127.3Y-61.15
X127.3Y-63.15
X127.3Y-65.15
X127.3Y-67.15
X127.3Y-69.15
X130.3Y-61.15
X130.3Y-63.15
X130.3Y-65.15
X130.3Y-67.15
X130.3Y-69.15
X130.3Y-71.15
X130.3Y-73.15
X130.3Y-76.2
X130.3Y-78.2
X133.35Y-61.15
X133.35Y-63.15
X133.35Y-66.15
X133.35Y-68.15
T7
X61.92Y-60.17
X61.92Y-62.71
T8
X67.46Y-42.5
X70.0Y-42.5
X72.54Y-42.5
X78.46Y-42.5
X81.0Y-42.5
X83.54Y-42.5
X89.46Y-42.5
X92.0Y-42.5
X94.54Y-42.5
X100.46Y-42.5
X103.0Y-42.5
X105.54Y-42.5
X111.46Y-42.5
X114.0Y-42.5
X116.54Y-42.5
X122.46Y-42.5
X125.0Y-42.5
X127.54Y-42.5
T9
X62.5Y-45.5
X62.9Y-53.2
X75.65Y-49.4
X97.5Y-49.4
X119.5Y-49.4
T2
X94.95Y-77.425G85X93.95Y-77.425
G05
X94.95Y-84.575G85X93.95Y-84.575
G05
T0
M30
