%TF.GenerationSoftware,KiCad,Pcbnew,(6.0.7-1)-1*%
%TF.CreationDate,2022-08-22T21:18:20+02:00*%
%TF.ProjectId,FROST-ESC,46524f53-542d-4455-9343-2e6b69636164,rev?*%
%TF.SameCoordinates,Original*%
%TF.FileFunction,Drillmap*%
%TF.FilePolarity,Positive*%
%FSLAX45Y45*%
G04 Gerber Fmt 4.5, Leading zero omitted, Abs format (unit mm)*
G04 Created by KiCad (PCBNEW (6.0.7-1)-1) date 2022-08-22 21:18:20*
%MOMM*%
%LPD*%
G01*
G04 APERTURE LIST*
%ADD10C,0.100000*%
%ADD11C,0.200000*%
%ADD12C,0.030000*%
%ADD13C,0.035000*%
%ADD14C,0.040000*%
%ADD15C,0.044000*%
%ADD16C,0.050000*%
%ADD17C,0.080000*%
%ADD18C,0.110000*%
%ADD19C,0.210000*%
G04 APERTURE END LIST*
D10*
X13250000Y-8000000D02*
X12750000Y-8400000D01*
X5800000Y-4000000D02*
X13700000Y-4000000D01*
X6750000Y-8400000D02*
X9750000Y-8850000D01*
X13250000Y-8000000D02*
G75*
G03*
X13700000Y-4000000I-16910744J3927771D01*
G01*
X9750000Y-8850000D02*
X12750000Y-8400000D01*
X6750000Y-8400000D02*
X6250000Y-8000000D01*
X5800001Y-4000000D02*
G75*
G03*
X6250000Y-8000000I17360759J-72230D01*
G01*
D11*
D12*
X5933000Y-5816000D02*
X5963000Y-5846000D01*
X5963000Y-5816000D02*
X5933000Y-5846000D01*
X5962000Y-6004000D02*
X5992000Y-6034000D01*
X5992000Y-6004000D02*
X5962000Y-6034000D01*
X5993000Y-6208000D02*
X6023000Y-6238000D01*
X6023000Y-6208000D02*
X5993000Y-6238000D01*
X6032000Y-6429000D02*
X6062000Y-6459000D01*
X6062000Y-6429000D02*
X6032000Y-6459000D01*
X6192500Y-6430000D02*
X6222500Y-6460000D01*
X6222500Y-6430000D02*
X6192500Y-6460000D01*
X6360000Y-6430000D02*
X6390000Y-6460000D01*
X6390000Y-6430000D02*
X6360000Y-6460000D01*
X7169000Y-7934000D02*
X7199000Y-7964000D01*
X7199000Y-7934000D02*
X7169000Y-7964000D01*
X7169000Y-8325000D02*
X7199000Y-8355000D01*
X7199000Y-8325000D02*
X7169000Y-8355000D01*
X7294000Y-8330000D02*
X7324000Y-8360000D01*
X7324000Y-8330000D02*
X7294000Y-8360000D01*
X8145000Y-4940000D02*
X8175000Y-4970000D01*
X8175000Y-4940000D02*
X8145000Y-4970000D01*
X8145000Y-5014000D02*
X8175000Y-5044000D01*
X8175000Y-5014000D02*
X8145000Y-5044000D01*
X8145000Y-5088000D02*
X8175000Y-5118000D01*
X8175000Y-5088000D02*
X8145000Y-5118000D01*
X8145000Y-5162000D02*
X8175000Y-5192000D01*
X8175000Y-5162000D02*
X8145000Y-5192000D01*
X8145000Y-5235000D02*
X8175000Y-5265000D01*
X8175000Y-5235000D02*
X8145000Y-5265000D01*
X8145000Y-5305000D02*
X8175000Y-5335000D01*
X8175000Y-5305000D02*
X8145000Y-5335000D01*
X8153000Y-8085000D02*
X8183000Y-8115000D01*
X8183000Y-8085000D02*
X8153000Y-8115000D01*
X8227500Y-5235000D02*
X8257500Y-5265000D01*
X8257500Y-5235000D02*
X8227500Y-5265000D01*
X8227500Y-5305000D02*
X8257500Y-5335000D01*
X8257500Y-5305000D02*
X8227500Y-5335000D01*
X8310000Y-5235000D02*
X8340000Y-5265000D01*
X8340000Y-5235000D02*
X8310000Y-5265000D01*
X8310000Y-5305000D02*
X8340000Y-5335000D01*
X8340000Y-5305000D02*
X8310000Y-5335000D01*
X8386000Y-5636000D02*
X8416000Y-5666000D01*
X8416000Y-5636000D02*
X8386000Y-5666000D01*
X8405000Y-5305000D02*
X8435000Y-5335000D01*
X8435000Y-5305000D02*
X8405000Y-5335000D01*
X8470000Y-7050000D02*
X8500000Y-7080000D01*
X8500000Y-7050000D02*
X8470000Y-7080000D01*
X8495000Y-5694000D02*
X8525000Y-5724000D01*
X8525000Y-5694000D02*
X8495000Y-5724000D01*
X8500000Y-5235000D02*
X8530000Y-5265000D01*
X8530000Y-5235000D02*
X8500000Y-5265000D01*
X8500000Y-5305000D02*
X8530000Y-5335000D01*
X8530000Y-5305000D02*
X8500000Y-5335000D01*
X8515000Y-6970000D02*
X8545000Y-7000000D01*
X8545000Y-6970000D02*
X8515000Y-7000000D01*
X8570000Y-5780000D02*
X8600000Y-5810000D01*
X8600000Y-5780000D02*
X8570000Y-5810000D01*
X8582500Y-5235000D02*
X8612500Y-5265000D01*
X8612500Y-5235000D02*
X8582500Y-5265000D01*
X8582500Y-5305000D02*
X8612500Y-5335000D01*
X8612500Y-5305000D02*
X8582500Y-5335000D01*
X8649000Y-5851000D02*
X8679000Y-5881000D01*
X8679000Y-5851000D02*
X8649000Y-5881000D01*
X8665000Y-4940000D02*
X8695000Y-4970000D01*
X8695000Y-4940000D02*
X8665000Y-4970000D01*
X8665000Y-5014000D02*
X8695000Y-5044000D01*
X8695000Y-5014000D02*
X8665000Y-5044000D01*
X8665000Y-5088000D02*
X8695000Y-5118000D01*
X8695000Y-5088000D02*
X8665000Y-5118000D01*
X8665000Y-5162000D02*
X8695000Y-5192000D01*
X8695000Y-5162000D02*
X8665000Y-5192000D01*
X8665000Y-5235000D02*
X8695000Y-5265000D01*
X8695000Y-5235000D02*
X8665000Y-5265000D01*
X8665000Y-5305000D02*
X8695000Y-5335000D01*
X8695000Y-5305000D02*
X8665000Y-5335000D01*
X8670000Y-6986000D02*
X8700000Y-7016000D01*
X8700000Y-6986000D02*
X8670000Y-7016000D01*
X8750000Y-6669000D02*
X8780000Y-6699000D01*
X8780000Y-6669000D02*
X8750000Y-6699000D01*
X8755000Y-6985000D02*
X8785000Y-7015000D01*
X8785000Y-6985000D02*
X8755000Y-7015000D01*
X8789159Y-5540841D02*
X8819159Y-5570841D01*
X8819159Y-5540841D02*
X8789159Y-5570841D01*
X8860787Y-5599948D02*
X8890787Y-5629948D01*
X8890787Y-5599948D02*
X8860787Y-5629948D01*
X8873000Y-5896000D02*
X8903000Y-5926000D01*
X8903000Y-5896000D02*
X8873000Y-5926000D01*
X8874000Y-8420000D02*
X8904000Y-8450000D01*
X8904000Y-8420000D02*
X8874000Y-8450000D01*
X8920891Y-5660052D02*
X8950891Y-5690052D01*
X8950891Y-5660052D02*
X8920891Y-5690052D01*
X8980000Y-7578000D02*
X9010000Y-7608000D01*
X9010000Y-7578000D02*
X8980000Y-7608000D01*
X9020000Y-6175000D02*
X9050000Y-6205000D01*
X9050000Y-6175000D02*
X9020000Y-6205000D01*
X9145000Y-5660000D02*
X9175000Y-5690000D01*
X9175000Y-5660000D02*
X9145000Y-5690000D01*
X9210000Y-5610000D02*
X9240000Y-5640000D01*
X9240000Y-5610000D02*
X9210000Y-5640000D01*
X9217514Y-6170000D02*
X9247514Y-6200000D01*
X9247514Y-6170000D02*
X9217514Y-6200000D01*
X9224000Y-8140000D02*
X9254000Y-8170000D01*
X9254000Y-8140000D02*
X9224000Y-8170000D01*
X9291875Y-5610000D02*
X9321875Y-5640000D01*
X9321875Y-5610000D02*
X9291875Y-5640000D01*
X9330000Y-5535000D02*
X9360000Y-5565000D01*
X9360000Y-5535000D02*
X9330000Y-5565000D01*
X9394000Y-8302000D02*
X9424000Y-8332000D01*
X9424000Y-8302000D02*
X9394000Y-8332000D01*
X9400000Y-5600000D02*
X9430000Y-5630000D01*
X9430000Y-5600000D02*
X9400000Y-5630000D01*
X9412464Y-6217536D02*
X9442464Y-6247536D01*
X9442464Y-6217536D02*
X9412464Y-6247536D01*
X9415000Y-6447550D02*
X9445000Y-6477550D01*
X9445000Y-6447550D02*
X9415000Y-6477550D01*
X9475000Y-6375000D02*
X9505000Y-6405000D01*
X9505000Y-6375000D02*
X9475000Y-6405000D01*
X9553467Y-6151533D02*
X9583467Y-6181533D01*
X9583467Y-6151533D02*
X9553467Y-6181533D01*
X9564000Y-6693000D02*
X9594000Y-6723000D01*
X9594000Y-6693000D02*
X9564000Y-6723000D01*
X9804000Y-5742000D02*
X9834000Y-5772000D01*
X9834000Y-5742000D02*
X9804000Y-5772000D01*
X9804000Y-5879000D02*
X9834000Y-5909000D01*
X9834000Y-5879000D02*
X9804000Y-5909000D01*
X9879000Y-6661000D02*
X9909000Y-6691000D01*
X9909000Y-6661000D02*
X9879000Y-6691000D01*
X9903000Y-8431000D02*
X9933000Y-8461000D01*
X9933000Y-8431000D02*
X9903000Y-8461000D01*
X9950000Y-7505000D02*
X9980000Y-7535000D01*
X9980000Y-7505000D02*
X9950000Y-7535000D01*
X9951000Y-7715000D02*
X9981000Y-7745000D01*
X9981000Y-7715000D02*
X9951000Y-7745000D01*
X9952000Y-5739000D02*
X9982000Y-5769000D01*
X9982000Y-5739000D02*
X9952000Y-5769000D01*
X9974000Y-6291000D02*
X10004000Y-6321000D01*
X10004000Y-6291000D02*
X9974000Y-6321000D01*
X10030000Y-6805000D02*
X10060000Y-6835000D01*
X10060000Y-6805000D02*
X10030000Y-6835000D01*
X10085000Y-6320000D02*
X10115000Y-6350000D01*
X10115000Y-6320000D02*
X10085000Y-6350000D01*
X10100000Y-5837450D02*
X10130000Y-5867450D01*
X10130000Y-5837450D02*
X10100000Y-5867450D01*
X10108000Y-5738000D02*
X10138000Y-5768000D01*
X10138000Y-5738000D02*
X10108000Y-5768000D01*
X10160000Y-6780000D02*
X10190000Y-6810000D01*
X10190000Y-6780000D02*
X10160000Y-6810000D01*
X10196866Y-8211272D02*
X10226866Y-8241272D01*
X10226866Y-8211272D02*
X10196866Y-8241272D01*
X10215000Y-5810000D02*
X10245000Y-5840000D01*
X10245000Y-5810000D02*
X10215000Y-5840000D01*
X10230000Y-6305000D02*
X10260000Y-6335000D01*
X10260000Y-6305000D02*
X10230000Y-6335000D01*
X10318429Y-6079429D02*
X10348429Y-6109429D01*
X10348429Y-6079429D02*
X10318429Y-6109429D01*
X10350000Y-4950000D02*
X10380000Y-4980000D01*
X10380000Y-4950000D02*
X10350000Y-4980000D01*
X10350000Y-5024000D02*
X10380000Y-5054000D01*
X10380000Y-5024000D02*
X10350000Y-5054000D01*
X10350000Y-5098000D02*
X10380000Y-5128000D01*
X10380000Y-5098000D02*
X10350000Y-5128000D01*
X10350000Y-5172000D02*
X10380000Y-5202000D01*
X10380000Y-5172000D02*
X10350000Y-5202000D01*
X10350000Y-5246000D02*
X10380000Y-5276000D01*
X10380000Y-5246000D02*
X10350000Y-5276000D01*
X10350000Y-5316000D02*
X10380000Y-5346000D01*
X10380000Y-5316000D02*
X10350000Y-5346000D01*
X10379000Y-8333000D02*
X10409000Y-8363000D01*
X10409000Y-8333000D02*
X10379000Y-8363000D01*
X10396914Y-8035889D02*
X10426914Y-8065889D01*
X10426914Y-8035889D02*
X10396914Y-8065889D01*
X10415000Y-7935000D02*
X10445000Y-7965000D01*
X10445000Y-7935000D02*
X10415000Y-7965000D01*
X10420000Y-7550000D02*
X10450000Y-7580000D01*
X10450000Y-7550000D02*
X10420000Y-7580000D01*
X10432500Y-5246000D02*
X10462500Y-5276000D01*
X10462500Y-5246000D02*
X10432500Y-5276000D01*
X10432500Y-5316000D02*
X10462500Y-5346000D01*
X10462500Y-5316000D02*
X10432500Y-5346000D01*
X10462000Y-6589000D02*
X10492000Y-6619000D01*
X10492000Y-6589000D02*
X10462000Y-6619000D01*
X10515000Y-5246000D02*
X10545000Y-5276000D01*
X10545000Y-5246000D02*
X10515000Y-5276000D01*
X10515000Y-5316000D02*
X10545000Y-5346000D01*
X10545000Y-5316000D02*
X10515000Y-5346000D01*
X10600000Y-7985000D02*
X10630000Y-8015000D01*
X10630000Y-7985000D02*
X10600000Y-8015000D01*
X10610000Y-5316000D02*
X10640000Y-5346000D01*
X10640000Y-5316000D02*
X10610000Y-5346000D01*
X10680000Y-6710000D02*
X10710000Y-6740000D01*
X10710000Y-6710000D02*
X10680000Y-6740000D01*
X10684091Y-7337550D02*
X10714091Y-7367550D01*
X10714091Y-7337550D02*
X10684091Y-7367550D01*
X10705000Y-5246000D02*
X10735000Y-5276000D01*
X10735000Y-5246000D02*
X10705000Y-5276000D01*
X10705000Y-5316000D02*
X10735000Y-5346000D01*
X10735000Y-5316000D02*
X10705000Y-5346000D01*
X10714950Y-7072626D02*
X10744950Y-7102626D01*
X10744950Y-7072626D02*
X10714950Y-7102626D01*
X10780000Y-8450000D02*
X10810000Y-8480000D01*
X10810000Y-8450000D02*
X10780000Y-8480000D01*
X10787500Y-5246000D02*
X10817500Y-5276000D01*
X10817500Y-5246000D02*
X10787500Y-5276000D01*
X10787500Y-5316000D02*
X10817500Y-5346000D01*
X10817500Y-5316000D02*
X10787500Y-5346000D01*
X10800675Y-5895675D02*
X10830675Y-5925675D01*
X10830675Y-5895675D02*
X10800675Y-5925675D01*
X10815000Y-7355000D02*
X10845000Y-7385000D01*
X10845000Y-7355000D02*
X10815000Y-7385000D01*
X10870000Y-4950000D02*
X10900000Y-4980000D01*
X10900000Y-4950000D02*
X10870000Y-4980000D01*
X10870000Y-5024000D02*
X10900000Y-5054000D01*
X10900000Y-5024000D02*
X10870000Y-5054000D01*
X10870000Y-5098000D02*
X10900000Y-5128000D01*
X10900000Y-5098000D02*
X10870000Y-5128000D01*
X10870000Y-5172000D02*
X10900000Y-5202000D01*
X10900000Y-5172000D02*
X10870000Y-5202000D01*
X10870000Y-5246000D02*
X10900000Y-5276000D01*
X10900000Y-5246000D02*
X10870000Y-5276000D01*
X10870000Y-5316000D02*
X10900000Y-5346000D01*
X10900000Y-5316000D02*
X10870000Y-5346000D01*
X10895000Y-6225000D02*
X10925000Y-6255000D01*
X10925000Y-6225000D02*
X10895000Y-6255000D01*
X10901000Y-8419000D02*
X10931000Y-8449000D01*
X10931000Y-8419000D02*
X10901000Y-8449000D01*
X10930000Y-7367550D02*
X10960000Y-7397550D01*
X10960000Y-7367550D02*
X10930000Y-7397550D01*
X10983391Y-7302600D02*
X11013391Y-7332600D01*
X11013391Y-7302600D02*
X10983391Y-7332600D01*
X11119775Y-7078256D02*
X11149775Y-7108256D01*
X11149775Y-7078256D02*
X11119775Y-7108256D01*
X11120000Y-6195000D02*
X11150000Y-6225000D01*
X11150000Y-6195000D02*
X11120000Y-6225000D01*
X11130000Y-7157550D02*
X11160000Y-7187550D01*
X11160000Y-7157550D02*
X11130000Y-7187550D01*
X11255000Y-7782000D02*
X11285000Y-7812000D01*
X11285000Y-7782000D02*
X11255000Y-7812000D01*
X11265000Y-8040000D02*
X11295000Y-8070000D01*
X11295000Y-8040000D02*
X11265000Y-8070000D01*
X11280000Y-7037550D02*
X11310000Y-7067550D01*
X11310000Y-7037550D02*
X11280000Y-7067550D01*
X11315000Y-8423000D02*
X11345000Y-8453000D01*
X11345000Y-8423000D02*
X11315000Y-8453000D01*
X11317422Y-6634627D02*
X11347422Y-6664627D01*
X11347422Y-6634627D02*
X11317422Y-6664627D01*
X11364000Y-4879000D02*
X11394000Y-4909000D01*
X11394000Y-4879000D02*
X11364000Y-4909000D01*
X11377450Y-7800000D02*
X11407450Y-7830000D01*
X11407450Y-7800000D02*
X11377450Y-7830000D01*
X11402000Y-6639000D02*
X11432000Y-6669000D01*
X11432000Y-6639000D02*
X11402000Y-6669000D01*
X11440000Y-7890000D02*
X11470000Y-7920000D01*
X11470000Y-7890000D02*
X11440000Y-7920000D01*
X11480000Y-7800000D02*
X11510000Y-7830000D01*
X11510000Y-7800000D02*
X11480000Y-7830000D01*
X11482550Y-6650000D02*
X11512550Y-6680000D01*
X11512550Y-6650000D02*
X11482550Y-6680000D01*
X11482656Y-6730137D02*
X11512656Y-6760137D01*
X11512656Y-6730137D02*
X11482656Y-6760137D01*
X11484893Y-6820691D02*
X11514893Y-6850691D01*
X11514893Y-6820691D02*
X11484893Y-6850691D01*
X11485000Y-7235000D02*
X11515000Y-7265000D01*
X11515000Y-7235000D02*
X11485000Y-7265000D01*
X11495000Y-6900000D02*
X11525000Y-6930000D01*
X11525000Y-6900000D02*
X11495000Y-6930000D01*
X11800000Y-7140050D02*
X11830000Y-7170050D01*
X11830000Y-7140050D02*
X11800000Y-7170050D01*
X11808111Y-7986814D02*
X11838111Y-8016814D01*
X11838111Y-7986814D02*
X11808111Y-8016814D01*
X11812000Y-6891000D02*
X11842000Y-6921000D01*
X11842000Y-6891000D02*
X11812000Y-6921000D01*
X11877452Y-8028600D02*
X11907452Y-8058600D01*
X11907452Y-8028600D02*
X11877452Y-8058600D01*
X11910000Y-5985000D02*
X11940000Y-6015000D01*
X11940000Y-5985000D02*
X11910000Y-6015000D01*
X11990000Y-7885000D02*
X12020000Y-7915000D01*
X12020000Y-7885000D02*
X11990000Y-7915000D01*
X12100000Y-5905000D02*
X12130000Y-5935000D01*
X12130000Y-5905000D02*
X12100000Y-5935000D01*
X12505000Y-6480000D02*
X12535000Y-6510000D01*
X12535000Y-6480000D02*
X12505000Y-6510000D01*
X12520000Y-4964000D02*
X12550000Y-4994000D01*
X12550000Y-4964000D02*
X12520000Y-4994000D01*
X12520000Y-5038000D02*
X12550000Y-5068000D01*
X12550000Y-5038000D02*
X12520000Y-5068000D01*
X12520000Y-5112000D02*
X12550000Y-5142000D01*
X12550000Y-5112000D02*
X12520000Y-5142000D01*
X12520000Y-5186000D02*
X12550000Y-5216000D01*
X12550000Y-5186000D02*
X12520000Y-5216000D01*
X12520000Y-5261000D02*
X12550000Y-5291000D01*
X12550000Y-5261000D02*
X12520000Y-5291000D01*
X12520000Y-5330000D02*
X12550000Y-5360000D01*
X12550000Y-5330000D02*
X12520000Y-5360000D01*
X12602500Y-5261000D02*
X12632500Y-5291000D01*
X12632500Y-5261000D02*
X12602500Y-5291000D01*
X12602500Y-5330000D02*
X12632500Y-5360000D01*
X12632500Y-5330000D02*
X12602500Y-5360000D01*
X12641000Y-6584000D02*
X12671000Y-6614000D01*
X12671000Y-6584000D02*
X12641000Y-6614000D01*
X12685000Y-5261000D02*
X12715000Y-5291000D01*
X12715000Y-5261000D02*
X12685000Y-5291000D01*
X12685000Y-5330000D02*
X12715000Y-5360000D01*
X12715000Y-5330000D02*
X12685000Y-5360000D01*
X12760000Y-7575000D02*
X12790000Y-7605000D01*
X12790000Y-7575000D02*
X12760000Y-7605000D01*
X12780000Y-5330000D02*
X12810000Y-5360000D01*
X12810000Y-5330000D02*
X12780000Y-5360000D01*
X12830000Y-7335000D02*
X12860000Y-7365000D01*
X12860000Y-7335000D02*
X12830000Y-7365000D01*
X12875000Y-5261000D02*
X12905000Y-5291000D01*
X12905000Y-5261000D02*
X12875000Y-5291000D01*
X12875000Y-5330000D02*
X12905000Y-5360000D01*
X12905000Y-5330000D02*
X12875000Y-5360000D01*
X12885000Y-8040000D02*
X12915000Y-8070000D01*
X12915000Y-8040000D02*
X12885000Y-8070000D01*
X12941000Y-6804000D02*
X12971000Y-6834000D01*
X12971000Y-6804000D02*
X12941000Y-6834000D01*
X12957500Y-5261000D02*
X12987500Y-5291000D01*
X12987500Y-5261000D02*
X12957500Y-5291000D01*
X12957500Y-5330000D02*
X12987500Y-5360000D01*
X12987500Y-5330000D02*
X12957500Y-5360000D01*
X13040000Y-4964000D02*
X13070000Y-4994000D01*
X13070000Y-4964000D02*
X13040000Y-4994000D01*
X13040000Y-5038000D02*
X13070000Y-5068000D01*
X13070000Y-5038000D02*
X13040000Y-5068000D01*
X13040000Y-5112000D02*
X13070000Y-5142000D01*
X13070000Y-5112000D02*
X13040000Y-5142000D01*
X13040000Y-5186000D02*
X13070000Y-5216000D01*
X13070000Y-5186000D02*
X13040000Y-5216000D01*
X13040000Y-5261000D02*
X13070000Y-5291000D01*
X13070000Y-5261000D02*
X13040000Y-5291000D01*
X13040000Y-5330000D02*
X13070000Y-5360000D01*
X13070000Y-5330000D02*
X13040000Y-5360000D01*
D13*
X9462500Y-7742500D02*
G75*
G03*
X9462500Y-7742500I-17500J0D01*
G01*
D11*
X9495000Y-7725000D02*
X9395000Y-7725000D01*
X9495000Y-7760000D02*
X9395000Y-7760000D01*
X9395000Y-7725000D02*
G75*
G03*
X9395000Y-7760000I0J-17500D01*
G01*
X9495000Y-7760000D02*
G75*
G03*
X9495000Y-7725000I0J17500D01*
G01*
D13*
X9462500Y-8457500D02*
G75*
G03*
X9462500Y-8457500I-17500J0D01*
G01*
D11*
X9495000Y-8440000D02*
X9395000Y-8440000D01*
X9495000Y-8475000D02*
X9395000Y-8475000D01*
X9395000Y-8440000D02*
G75*
G03*
X9395000Y-8475000I0J-17500D01*
G01*
X9495000Y-8475000D02*
G75*
G03*
X9495000Y-8440000I0J17500D01*
G01*
D14*
X6300000Y-5720000D02*
X6300000Y-5760000D01*
X6280000Y-5740000D02*
X6320000Y-5740000D01*
X6430000Y-5720000D02*
X6430000Y-5760000D01*
X6410000Y-5740000D02*
X6450000Y-5740000D01*
X6560000Y-5720000D02*
X6560000Y-5760000D01*
X6540000Y-5740000D02*
X6580000Y-5740000D01*
X6705000Y-5940000D02*
X6705000Y-5980000D01*
X6685000Y-5960000D02*
X6725000Y-5960000D01*
X7130000Y-4380000D02*
X7130000Y-4420000D01*
X7110000Y-4400000D02*
X7150000Y-4400000D01*
X7340000Y-6070000D02*
X7340000Y-6110000D01*
X7320000Y-6090000D02*
X7360000Y-6090000D01*
X7340000Y-6160000D02*
X7340000Y-6200000D01*
X7320000Y-6180000D02*
X7360000Y-6180000D01*
X7340000Y-6255000D02*
X7340000Y-6295000D01*
X7320000Y-6275000D02*
X7360000Y-6275000D01*
X7425000Y-6550000D02*
X7425000Y-6590000D01*
X7405000Y-6570000D02*
X7445000Y-6570000D01*
X7460000Y-6070000D02*
X7460000Y-6110000D01*
X7440000Y-6090000D02*
X7480000Y-6090000D01*
X7460000Y-6160000D02*
X7460000Y-6200000D01*
X7440000Y-6180000D02*
X7480000Y-6180000D01*
X7460000Y-6255000D02*
X7460000Y-6295000D01*
X7440000Y-6275000D02*
X7480000Y-6275000D01*
X7624000Y-7617000D02*
X7624000Y-7657000D01*
X7604000Y-7637000D02*
X7644000Y-7637000D01*
X7755000Y-7375000D02*
X7755000Y-7415000D01*
X7735000Y-7395000D02*
X7775000Y-7395000D01*
X7785000Y-5132550D02*
X7785000Y-5172550D01*
X7765000Y-5152550D02*
X7805000Y-5152550D01*
X7820000Y-5790000D02*
X7820000Y-5830000D01*
X7800000Y-5810000D02*
X7840000Y-5810000D01*
X7933000Y-8473000D02*
X7933000Y-8513000D01*
X7913000Y-8493000D02*
X7953000Y-8493000D01*
X8025000Y-6350050D02*
X8025000Y-6390050D01*
X8005000Y-6370050D02*
X8045000Y-6370050D01*
X8210000Y-6710000D02*
X8210000Y-6750000D01*
X8190000Y-6730000D02*
X8230000Y-6730000D01*
X8265000Y-6785000D02*
X8265000Y-6825000D01*
X8245000Y-6805000D02*
X8285000Y-6805000D01*
X8481000Y-7185000D02*
X8481000Y-7225000D01*
X8461000Y-7205000D02*
X8501000Y-7205000D01*
X8580500Y-7185000D02*
X8580500Y-7225000D01*
X8560500Y-7205000D02*
X8600500Y-7205000D01*
X8675000Y-8470000D02*
X8675000Y-8510000D01*
X8655000Y-8490000D02*
X8695000Y-8490000D01*
X8680000Y-7185000D02*
X8680000Y-7225000D01*
X8660000Y-7205000D02*
X8700000Y-7205000D01*
X8968150Y-7930000D02*
X8968150Y-7970000D01*
X8948150Y-7950000D02*
X8988150Y-7950000D01*
X9135000Y-7930000D02*
X9135000Y-7970000D01*
X9115000Y-7950000D02*
X9155000Y-7950000D01*
X9304914Y-6845000D02*
X9304914Y-6885000D01*
X9284914Y-6865000D02*
X9324914Y-6865000D01*
X9312500Y-6752500D02*
X9312500Y-6792500D01*
X9292500Y-6772500D02*
X9332500Y-6772500D01*
X9335000Y-4365000D02*
X9335000Y-4405000D01*
X9315000Y-4385000D02*
X9355000Y-4385000D01*
X9710000Y-6839950D02*
X9710000Y-6879950D01*
X9690000Y-6859950D02*
X9730000Y-6859950D01*
X9825000Y-6892694D02*
X9825000Y-6932694D01*
X9805000Y-6912694D02*
X9845000Y-6912694D01*
X9891215Y-5987500D02*
X9891215Y-6027500D01*
X9871215Y-6007500D02*
X9911215Y-6007500D01*
X9891215Y-6092500D02*
X9891215Y-6132500D01*
X9871215Y-6112500D02*
X9911215Y-6112500D01*
X9958000Y-5137000D02*
X9958000Y-5177000D01*
X9938000Y-5157000D02*
X9978000Y-5157000D01*
X11525000Y-4365000D02*
X11525000Y-4405000D01*
X11505000Y-4385000D02*
X11545000Y-4385000D01*
X11580000Y-6485000D02*
X11580000Y-6525000D01*
X11560000Y-6505000D02*
X11600000Y-6505000D01*
X11590000Y-6187400D02*
X11590000Y-6227400D01*
X11570000Y-6207400D02*
X11610000Y-6207400D01*
X11659171Y-6408342D02*
X11659171Y-6448342D01*
X11639171Y-6428342D02*
X11679171Y-6428342D01*
X11761270Y-6501270D02*
X11761270Y-6541270D01*
X11741270Y-6521270D02*
X11781270Y-6521270D01*
X11847500Y-6322500D02*
X11847500Y-6362500D01*
X11827500Y-6342500D02*
X11867500Y-6342500D01*
X12145000Y-6200000D02*
X12145000Y-6240000D01*
X12125000Y-6220000D02*
X12165000Y-6220000D01*
X12155000Y-5140000D02*
X12155000Y-5180000D01*
X12135000Y-5160000D02*
X12175000Y-5160000D01*
X12220000Y-6505000D02*
X12220000Y-6545000D01*
X12200000Y-6525000D02*
X12240000Y-6525000D01*
X12220000Y-6705000D02*
X12220000Y-6745000D01*
X12200000Y-6725000D02*
X12240000Y-6725000D01*
X12545000Y-8322450D02*
X12545000Y-8362450D01*
X12525000Y-8342450D02*
X12565000Y-8342450D01*
D15*
X9382557Y-8050556D02*
X9382557Y-8019443D01*
X9351444Y-8019443D01*
X9351444Y-8050556D01*
X9382557Y-8050556D01*
X9382557Y-8180556D02*
X9382557Y-8149443D01*
X9351444Y-8149443D01*
X9351444Y-8180556D01*
X9382557Y-8180556D01*
X9482557Y-7985556D02*
X9482557Y-7954443D01*
X9451444Y-7954443D01*
X9451444Y-7985556D01*
X9482557Y-7985556D01*
X9482557Y-8115556D02*
X9482557Y-8084443D01*
X9451444Y-8084443D01*
X9451444Y-8115556D01*
X9482557Y-8115556D01*
X9482557Y-8245556D02*
X9482557Y-8214443D01*
X9451444Y-8214443D01*
X9451444Y-8245556D01*
X9482557Y-8245556D01*
D16*
X9160000Y-8186000D02*
X9185000Y-8161000D01*
X9160000Y-8136000D01*
X9135000Y-8161000D01*
X9160000Y-8186000D01*
X9160000Y-8286000D02*
X9185000Y-8261000D01*
X9160000Y-8236000D01*
X9135000Y-8261000D01*
X9160000Y-8286000D01*
X9160000Y-8386000D02*
X9185000Y-8361000D01*
X9160000Y-8336000D01*
X9135000Y-8361000D01*
X9160000Y-8386000D01*
X9160000Y-8486000D02*
X9185000Y-8461000D01*
X9160000Y-8436000D01*
X9135000Y-8461000D01*
X9160000Y-8486000D01*
D17*
X6565000Y-4920000D02*
X6645000Y-5000000D01*
X6645000Y-4920000D02*
X6565000Y-5000000D01*
X6645000Y-4960000D02*
G75*
G03*
X6645000Y-4960000I-40000J0D01*
G01*
X6565000Y-5420000D02*
X6645000Y-5500000D01*
X6645000Y-5420000D02*
X6565000Y-5500000D01*
X6645000Y-5460000D02*
G75*
G03*
X6645000Y-5460000I-40000J0D01*
G01*
X9755000Y-7450000D02*
X9835000Y-7530000D01*
X9835000Y-7450000D02*
X9755000Y-7530000D01*
X9835000Y-7490000D02*
G75*
G03*
X9835000Y-7490000I-40000J0D01*
G01*
X9755000Y-7650000D02*
X9835000Y-7730000D01*
X9835000Y-7650000D02*
X9755000Y-7730000D01*
X9835000Y-7690000D02*
G75*
G03*
X9835000Y-7690000I-40000J0D01*
G01*
X9755000Y-7850000D02*
X9835000Y-7930000D01*
X9835000Y-7850000D02*
X9755000Y-7930000D01*
X9835000Y-7890000D02*
G75*
G03*
X9835000Y-7890000I-40000J0D01*
G01*
X9755000Y-8050000D02*
X9835000Y-8130000D01*
X9835000Y-8050000D02*
X9755000Y-8130000D01*
X9835000Y-8090000D02*
G75*
G03*
X9835000Y-8090000I-40000J0D01*
G01*
X9755000Y-8250000D02*
X9835000Y-8330000D01*
X9835000Y-8250000D02*
X9755000Y-8330000D01*
X9835000Y-8290000D02*
G75*
G03*
X9835000Y-8290000I-40000J0D01*
G01*
X9755000Y-8450000D02*
X9835000Y-8530000D01*
X9835000Y-8450000D02*
X9755000Y-8530000D01*
X9835000Y-8490000D02*
G75*
G03*
X9835000Y-8490000I-40000J0D01*
G01*
X11015000Y-7960000D02*
X11095000Y-8040000D01*
X11095000Y-7960000D02*
X11015000Y-8040000D01*
X11095000Y-8000000D02*
G75*
G03*
X11095000Y-8000000I-40000J0D01*
G01*
X11015000Y-8160000D02*
X11095000Y-8240000D01*
X11095000Y-8160000D02*
X11015000Y-8240000D01*
X11095000Y-8200000D02*
G75*
G03*
X11095000Y-8200000I-40000J0D01*
G01*
X11015000Y-8360000D02*
X11095000Y-8440000D01*
X11095000Y-8360000D02*
X11015000Y-8440000D01*
X11095000Y-8400000D02*
G75*
G03*
X11095000Y-8400000I-40000J0D01*
G01*
X12690000Y-6075000D02*
X12770000Y-6155000D01*
X12770000Y-6075000D02*
X12690000Y-6155000D01*
X12770000Y-6115000D02*
G75*
G03*
X12770000Y-6115000I-40000J0D01*
G01*
X12690000Y-6275000D02*
X12770000Y-6355000D01*
X12770000Y-6275000D02*
X12690000Y-6355000D01*
X12770000Y-6315000D02*
G75*
G03*
X12770000Y-6315000I-40000J0D01*
G01*
X12690000Y-6475000D02*
X12770000Y-6555000D01*
X12770000Y-6475000D02*
X12690000Y-6555000D01*
X12770000Y-6515000D02*
G75*
G03*
X12770000Y-6515000I-40000J0D01*
G01*
X12690000Y-6675000D02*
X12770000Y-6755000D01*
X12770000Y-6675000D02*
X12690000Y-6755000D01*
X12770000Y-6715000D02*
G75*
G03*
X12770000Y-6715000I-40000J0D01*
G01*
X12690000Y-6875000D02*
X12770000Y-6955000D01*
X12770000Y-6875000D02*
X12690000Y-6955000D01*
X12770000Y-6915000D02*
G75*
G03*
X12770000Y-6915000I-40000J0D01*
G01*
X12990000Y-6075000D02*
X13070000Y-6155000D01*
X13070000Y-6075000D02*
X12990000Y-6155000D01*
X13070000Y-6115000D02*
G75*
G03*
X13070000Y-6115000I-40000J0D01*
G01*
X12990000Y-6275000D02*
X13070000Y-6355000D01*
X13070000Y-6275000D02*
X12990000Y-6355000D01*
X13070000Y-6315000D02*
G75*
G03*
X13070000Y-6315000I-40000J0D01*
G01*
X12990000Y-6475000D02*
X13070000Y-6555000D01*
X13070000Y-6475000D02*
X12990000Y-6555000D01*
X13070000Y-6515000D02*
G75*
G03*
X13070000Y-6515000I-40000J0D01*
G01*
X12990000Y-6675000D02*
X13070000Y-6755000D01*
X13070000Y-6675000D02*
X12990000Y-6755000D01*
X13070000Y-6715000D02*
G75*
G03*
X13070000Y-6715000I-40000J0D01*
G01*
X12990000Y-6875000D02*
X13070000Y-6955000D01*
X13070000Y-6875000D02*
X12990000Y-6955000D01*
X13070000Y-6915000D02*
G75*
G03*
X13070000Y-6915000I-40000J0D01*
G01*
X12990000Y-7075000D02*
X13070000Y-7155000D01*
X13070000Y-7075000D02*
X12990000Y-7155000D01*
X13070000Y-7115000D02*
G75*
G03*
X13070000Y-7115000I-40000J0D01*
G01*
X12990000Y-7275000D02*
X13070000Y-7355000D01*
X13070000Y-7275000D02*
X12990000Y-7355000D01*
X13070000Y-7315000D02*
G75*
G03*
X13070000Y-7315000I-40000J0D01*
G01*
X12990000Y-7580000D02*
X13070000Y-7660000D01*
X13070000Y-7580000D02*
X12990000Y-7660000D01*
X13070000Y-7620000D02*
G75*
G03*
X13070000Y-7620000I-40000J0D01*
G01*
X12990000Y-7780000D02*
X13070000Y-7860000D01*
X13070000Y-7780000D02*
X12990000Y-7860000D01*
X13070000Y-7820000D02*
G75*
G03*
X13070000Y-7820000I-40000J0D01*
G01*
X13295000Y-6075000D02*
X13375000Y-6155000D01*
X13375000Y-6075000D02*
X13295000Y-6155000D01*
X13375000Y-6115000D02*
G75*
G03*
X13375000Y-6115000I-40000J0D01*
G01*
X13295000Y-6275000D02*
X13375000Y-6355000D01*
X13375000Y-6275000D02*
X13295000Y-6355000D01*
X13375000Y-6315000D02*
G75*
G03*
X13375000Y-6315000I-40000J0D01*
G01*
X13295000Y-6575000D02*
X13375000Y-6655000D01*
X13375000Y-6575000D02*
X13295000Y-6655000D01*
X13375000Y-6615000D02*
G75*
G03*
X13375000Y-6615000I-40000J0D01*
G01*
X13295000Y-6775000D02*
X13375000Y-6855000D01*
X13375000Y-6775000D02*
X13295000Y-6855000D01*
X13375000Y-6815000D02*
G75*
G03*
X13375000Y-6815000I-40000J0D01*
G01*
D10*
X6142000Y-5967000D02*
X6242000Y-6067000D01*
X6242000Y-5967000D02*
X6142000Y-6067000D01*
X6192000Y-5967000D02*
X6192000Y-6067000D01*
X6142000Y-6017000D02*
X6242000Y-6017000D01*
X6142000Y-6221000D02*
X6242000Y-6321000D01*
X6242000Y-6221000D02*
X6142000Y-6321000D01*
X6192000Y-6221000D02*
X6192000Y-6321000D01*
X6142000Y-6271000D02*
X6242000Y-6271000D01*
D18*
X6691000Y-4195000D02*
X6801000Y-4305000D01*
X6801000Y-4195000D02*
X6691000Y-4305000D01*
X6784891Y-4288891D02*
X6784891Y-4211109D01*
X6707109Y-4211109D01*
X6707109Y-4288891D01*
X6784891Y-4288891D01*
X6945000Y-4195000D02*
X7055000Y-4305000D01*
X7055000Y-4195000D02*
X6945000Y-4305000D01*
X7038891Y-4288891D02*
X7038891Y-4211109D01*
X6961109Y-4211109D01*
X6961109Y-4288891D01*
X7038891Y-4288891D01*
X7199000Y-4195000D02*
X7309000Y-4305000D01*
X7309000Y-4195000D02*
X7199000Y-4305000D01*
X7292891Y-4288891D02*
X7292891Y-4211109D01*
X7215109Y-4211109D01*
X7215109Y-4288891D01*
X7292891Y-4288891D01*
X7791000Y-4195000D02*
X7901000Y-4305000D01*
X7901000Y-4195000D02*
X7791000Y-4305000D01*
X7884891Y-4288891D02*
X7884891Y-4211109D01*
X7807109Y-4211109D01*
X7807109Y-4288891D01*
X7884891Y-4288891D01*
X8045000Y-4195000D02*
X8155000Y-4305000D01*
X8155000Y-4195000D02*
X8045000Y-4305000D01*
X8138891Y-4288891D02*
X8138891Y-4211109D01*
X8061109Y-4211109D01*
X8061109Y-4288891D01*
X8138891Y-4288891D01*
X8299000Y-4195000D02*
X8409000Y-4305000D01*
X8409000Y-4195000D02*
X8299000Y-4305000D01*
X8392891Y-4288891D02*
X8392891Y-4211109D01*
X8315109Y-4211109D01*
X8315109Y-4288891D01*
X8392891Y-4288891D01*
X8891000Y-4195000D02*
X9001000Y-4305000D01*
X9001000Y-4195000D02*
X8891000Y-4305000D01*
X8984891Y-4288891D02*
X8984891Y-4211109D01*
X8907109Y-4211109D01*
X8907109Y-4288891D01*
X8984891Y-4288891D01*
X9145000Y-4195000D02*
X9255000Y-4305000D01*
X9255000Y-4195000D02*
X9145000Y-4305000D01*
X9238891Y-4288891D02*
X9238891Y-4211109D01*
X9161109Y-4211109D01*
X9161109Y-4288891D01*
X9238891Y-4288891D01*
X9399000Y-4195000D02*
X9509000Y-4305000D01*
X9509000Y-4195000D02*
X9399000Y-4305000D01*
X9492891Y-4288891D02*
X9492891Y-4211109D01*
X9415109Y-4211109D01*
X9415109Y-4288891D01*
X9492891Y-4288891D01*
X9991000Y-4195000D02*
X10101000Y-4305000D01*
X10101000Y-4195000D02*
X9991000Y-4305000D01*
X10084891Y-4288891D02*
X10084891Y-4211109D01*
X10007109Y-4211109D01*
X10007109Y-4288891D01*
X10084891Y-4288891D01*
X10245000Y-4195000D02*
X10355000Y-4305000D01*
X10355000Y-4195000D02*
X10245000Y-4305000D01*
X10338891Y-4288891D02*
X10338891Y-4211109D01*
X10261109Y-4211109D01*
X10261109Y-4288891D01*
X10338891Y-4288891D01*
X10499000Y-4195000D02*
X10609000Y-4305000D01*
X10609000Y-4195000D02*
X10499000Y-4305000D01*
X10592891Y-4288891D02*
X10592891Y-4211109D01*
X10515109Y-4211109D01*
X10515109Y-4288891D01*
X10592891Y-4288891D01*
X11091000Y-4195000D02*
X11201000Y-4305000D01*
X11201000Y-4195000D02*
X11091000Y-4305000D01*
X11184891Y-4288891D02*
X11184891Y-4211109D01*
X11107109Y-4211109D01*
X11107109Y-4288891D01*
X11184891Y-4288891D01*
X11345000Y-4195000D02*
X11455000Y-4305000D01*
X11455000Y-4195000D02*
X11345000Y-4305000D01*
X11438891Y-4288891D02*
X11438891Y-4211109D01*
X11361109Y-4211109D01*
X11361109Y-4288891D01*
X11438891Y-4288891D01*
X11599000Y-4195000D02*
X11709000Y-4305000D01*
X11709000Y-4195000D02*
X11599000Y-4305000D01*
X11692891Y-4288891D02*
X11692891Y-4211109D01*
X11615109Y-4211109D01*
X11615109Y-4288891D01*
X11692891Y-4288891D01*
X12191000Y-4195000D02*
X12301000Y-4305000D01*
X12301000Y-4195000D02*
X12191000Y-4305000D01*
X12284891Y-4288891D02*
X12284891Y-4211109D01*
X12207109Y-4211109D01*
X12207109Y-4288891D01*
X12284891Y-4288891D01*
X12445000Y-4195000D02*
X12555000Y-4305000D01*
X12555000Y-4195000D02*
X12445000Y-4305000D01*
X12538891Y-4288891D02*
X12538891Y-4211109D01*
X12461109Y-4211109D01*
X12461109Y-4288891D01*
X12538891Y-4288891D01*
X12699000Y-4195000D02*
X12809000Y-4305000D01*
X12809000Y-4195000D02*
X12699000Y-4305000D01*
X12792891Y-4288891D02*
X12792891Y-4211109D01*
X12715109Y-4211109D01*
X12715109Y-4288891D01*
X12792891Y-4288891D01*
D19*
X6145000Y-4445000D02*
X6355000Y-4655000D01*
X6355000Y-4445000D02*
X6145000Y-4655000D01*
X6250000Y-4655000D02*
X6355000Y-4550000D01*
X6250000Y-4445000D01*
X6145000Y-4550000D01*
X6250000Y-4655000D01*
X6185000Y-5215000D02*
X6395000Y-5425000D01*
X6395000Y-5215000D02*
X6185000Y-5425000D01*
X6290000Y-5425000D02*
X6395000Y-5320000D01*
X6290000Y-5215000D01*
X6185000Y-5320000D01*
X6290000Y-5425000D01*
X7460000Y-4835000D02*
X7670000Y-5045000D01*
X7670000Y-4835000D02*
X7460000Y-5045000D01*
X7565000Y-5045000D02*
X7670000Y-4940000D01*
X7565000Y-4835000D01*
X7460000Y-4940000D01*
X7565000Y-5045000D01*
X9645000Y-4835000D02*
X9855000Y-5045000D01*
X9855000Y-4835000D02*
X9645000Y-5045000D01*
X9750000Y-5045000D02*
X9855000Y-4940000D01*
X9750000Y-4835000D01*
X9645000Y-4940000D01*
X9750000Y-5045000D01*
X11845000Y-4835000D02*
X12055000Y-5045000D01*
X12055000Y-4835000D02*
X11845000Y-5045000D01*
X11950000Y-5045000D02*
X12055000Y-4940000D01*
X11950000Y-4835000D01*
X11845000Y-4940000D01*
X11950000Y-5045000D01*
D11*
X6052469Y-9165476D02*
X6052469Y-8965476D01*
X6100088Y-8965476D01*
X6128660Y-8975000D01*
X6147707Y-8994048D01*
X6157231Y-9013095D01*
X6166755Y-9051190D01*
X6166755Y-9079762D01*
X6157231Y-9117857D01*
X6147707Y-9136905D01*
X6128660Y-9155952D01*
X6100088Y-9165476D01*
X6052469Y-9165476D01*
X6252469Y-9165476D02*
X6252469Y-9032143D01*
X6252469Y-9070238D02*
X6261993Y-9051190D01*
X6271517Y-9041667D01*
X6290565Y-9032143D01*
X6309612Y-9032143D01*
X6376279Y-9165476D02*
X6376279Y-9032143D01*
X6376279Y-8965476D02*
X6366755Y-8975000D01*
X6376279Y-8984524D01*
X6385803Y-8975000D01*
X6376279Y-8965476D01*
X6376279Y-8984524D01*
X6500088Y-9165476D02*
X6481041Y-9155952D01*
X6471517Y-9136905D01*
X6471517Y-8965476D01*
X6604850Y-9165476D02*
X6585803Y-9155952D01*
X6576279Y-9136905D01*
X6576279Y-8965476D01*
X6833422Y-9165476D02*
X6833422Y-8965476D01*
X6900088Y-9108333D01*
X6966755Y-8965476D01*
X6966755Y-9165476D01*
X7147707Y-9165476D02*
X7147707Y-9060714D01*
X7138184Y-9041667D01*
X7119136Y-9032143D01*
X7081041Y-9032143D01*
X7061993Y-9041667D01*
X7147707Y-9155952D02*
X7128660Y-9165476D01*
X7081041Y-9165476D01*
X7061993Y-9155952D01*
X7052469Y-9136905D01*
X7052469Y-9117857D01*
X7061993Y-9098810D01*
X7081041Y-9089286D01*
X7128660Y-9089286D01*
X7147707Y-9079762D01*
X7242946Y-9032143D02*
X7242946Y-9232143D01*
X7242946Y-9041667D02*
X7261993Y-9032143D01*
X7300088Y-9032143D01*
X7319136Y-9041667D01*
X7328660Y-9051190D01*
X7338184Y-9070238D01*
X7338184Y-9127381D01*
X7328660Y-9146429D01*
X7319136Y-9155952D01*
X7300088Y-9165476D01*
X7261993Y-9165476D01*
X7242946Y-9155952D01*
X7423898Y-9146429D02*
X7433422Y-9155952D01*
X7423898Y-9165476D01*
X7414374Y-9155952D01*
X7423898Y-9146429D01*
X7423898Y-9165476D01*
X7423898Y-9041667D02*
X7433422Y-9051190D01*
X7423898Y-9060714D01*
X7414374Y-9051190D01*
X7423898Y-9041667D01*
X7423898Y-9060714D01*
D12*
X5764850Y-9480000D02*
X5794850Y-9510000D01*
X5794850Y-9480000D02*
X5764850Y-9510000D01*
D11*
X6090565Y-9385476D02*
X6109612Y-9385476D01*
X6128660Y-9395000D01*
X6138184Y-9404524D01*
X6147707Y-9423571D01*
X6157231Y-9461667D01*
X6157231Y-9509286D01*
X6147707Y-9547381D01*
X6138184Y-9566429D01*
X6128660Y-9575952D01*
X6109612Y-9585476D01*
X6090565Y-9585476D01*
X6071517Y-9575952D01*
X6061993Y-9566429D01*
X6052469Y-9547381D01*
X6042946Y-9509286D01*
X6042946Y-9461667D01*
X6052469Y-9423571D01*
X6061993Y-9404524D01*
X6071517Y-9395000D01*
X6090565Y-9385476D01*
X6242946Y-9566429D02*
X6252469Y-9575952D01*
X6242946Y-9585476D01*
X6233422Y-9575952D01*
X6242946Y-9566429D01*
X6242946Y-9585476D01*
X6319136Y-9385476D02*
X6442946Y-9385476D01*
X6376279Y-9461667D01*
X6404850Y-9461667D01*
X6423898Y-9471190D01*
X6433422Y-9480714D01*
X6442946Y-9499762D01*
X6442946Y-9547381D01*
X6433422Y-9566429D01*
X6423898Y-9575952D01*
X6404850Y-9585476D01*
X6347707Y-9585476D01*
X6328660Y-9575952D01*
X6319136Y-9566429D01*
X6566755Y-9385476D02*
X6585803Y-9385476D01*
X6604850Y-9395000D01*
X6614374Y-9404524D01*
X6623898Y-9423571D01*
X6633422Y-9461667D01*
X6633422Y-9509286D01*
X6623898Y-9547381D01*
X6614374Y-9566429D01*
X6604850Y-9575952D01*
X6585803Y-9585476D01*
X6566755Y-9585476D01*
X6547707Y-9575952D01*
X6538184Y-9566429D01*
X6528660Y-9547381D01*
X6519136Y-9509286D01*
X6519136Y-9461667D01*
X6528660Y-9423571D01*
X6538184Y-9404524D01*
X6547707Y-9395000D01*
X6566755Y-9385476D01*
X6757231Y-9385476D02*
X6776279Y-9385476D01*
X6795326Y-9395000D01*
X6804850Y-9404524D01*
X6814374Y-9423571D01*
X6823898Y-9461667D01*
X6823898Y-9509286D01*
X6814374Y-9547381D01*
X6804850Y-9566429D01*
X6795326Y-9575952D01*
X6776279Y-9585476D01*
X6757231Y-9585476D01*
X6738184Y-9575952D01*
X6728660Y-9566429D01*
X6719136Y-9547381D01*
X6709612Y-9509286D01*
X6709612Y-9461667D01*
X6719136Y-9423571D01*
X6728660Y-9404524D01*
X6738184Y-9395000D01*
X6757231Y-9385476D01*
X6909612Y-9585476D02*
X6909612Y-9452143D01*
X6909612Y-9471190D02*
X6919136Y-9461667D01*
X6938184Y-9452143D01*
X6966755Y-9452143D01*
X6985803Y-9461667D01*
X6995326Y-9480714D01*
X6995326Y-9585476D01*
X6995326Y-9480714D02*
X7004850Y-9461667D01*
X7023898Y-9452143D01*
X7052469Y-9452143D01*
X7071517Y-9461667D01*
X7081041Y-9480714D01*
X7081041Y-9585476D01*
X7176279Y-9585476D02*
X7176279Y-9452143D01*
X7176279Y-9471190D02*
X7185803Y-9461667D01*
X7204850Y-9452143D01*
X7233422Y-9452143D01*
X7252469Y-9461667D01*
X7261993Y-9480714D01*
X7261993Y-9585476D01*
X7261993Y-9480714D02*
X7271517Y-9461667D01*
X7290565Y-9452143D01*
X7319136Y-9452143D01*
X7338184Y-9461667D01*
X7347707Y-9480714D01*
X7347707Y-9585476D01*
X7738184Y-9375952D02*
X7566755Y-9633095D01*
X7995326Y-9385476D02*
X8014374Y-9385476D01*
X8033422Y-9395000D01*
X8042946Y-9404524D01*
X8052469Y-9423571D01*
X8061993Y-9461667D01*
X8061993Y-9509286D01*
X8052469Y-9547381D01*
X8042946Y-9566429D01*
X8033422Y-9575952D01*
X8014374Y-9585476D01*
X7995326Y-9585476D01*
X7976279Y-9575952D01*
X7966755Y-9566429D01*
X7957231Y-9547381D01*
X7947707Y-9509286D01*
X7947707Y-9461667D01*
X7957231Y-9423571D01*
X7966755Y-9404524D01*
X7976279Y-9395000D01*
X7995326Y-9385476D01*
X8147707Y-9566429D02*
X8157231Y-9575952D01*
X8147707Y-9585476D01*
X8138184Y-9575952D01*
X8147707Y-9566429D01*
X8147707Y-9585476D01*
X8281041Y-9385476D02*
X8300088Y-9385476D01*
X8319136Y-9395000D01*
X8328660Y-9404524D01*
X8338184Y-9423571D01*
X8347707Y-9461667D01*
X8347707Y-9509286D01*
X8338184Y-9547381D01*
X8328660Y-9566429D01*
X8319136Y-9575952D01*
X8300088Y-9585476D01*
X8281041Y-9585476D01*
X8261993Y-9575952D01*
X8252469Y-9566429D01*
X8242946Y-9547381D01*
X8233422Y-9509286D01*
X8233422Y-9461667D01*
X8242946Y-9423571D01*
X8252469Y-9404524D01*
X8261993Y-9395000D01*
X8281041Y-9385476D01*
X8538184Y-9585476D02*
X8423898Y-9585476D01*
X8481041Y-9585476D02*
X8481041Y-9385476D01*
X8461993Y-9414048D01*
X8442946Y-9433095D01*
X8423898Y-9442619D01*
X8728660Y-9585476D02*
X8614374Y-9585476D01*
X8671517Y-9585476D02*
X8671517Y-9385476D01*
X8652469Y-9414048D01*
X8633422Y-9433095D01*
X8614374Y-9442619D01*
X8842946Y-9471190D02*
X8823898Y-9461667D01*
X8814374Y-9452143D01*
X8804850Y-9433095D01*
X8804850Y-9423571D01*
X8814374Y-9404524D01*
X8823898Y-9395000D01*
X8842946Y-9385476D01*
X8881041Y-9385476D01*
X8900088Y-9395000D01*
X8909612Y-9404524D01*
X8919136Y-9423571D01*
X8919136Y-9433095D01*
X8909612Y-9452143D01*
X8900088Y-9461667D01*
X8881041Y-9471190D01*
X8842946Y-9471190D01*
X8823898Y-9480714D01*
X8814374Y-9490238D01*
X8804850Y-9509286D01*
X8804850Y-9547381D01*
X8814374Y-9566429D01*
X8823898Y-9575952D01*
X8842946Y-9585476D01*
X8881041Y-9585476D01*
X8900088Y-9575952D01*
X8909612Y-9566429D01*
X8919136Y-9547381D01*
X8919136Y-9509286D01*
X8909612Y-9490238D01*
X8900088Y-9480714D01*
X8881041Y-9471190D01*
X8995327Y-9385476D02*
X8995327Y-9423571D01*
X9071517Y-9385476D02*
X9071517Y-9423571D01*
X9366755Y-9661667D02*
X9357231Y-9652143D01*
X9338184Y-9623571D01*
X9328660Y-9604524D01*
X9319136Y-9575952D01*
X9309612Y-9528333D01*
X9309612Y-9490238D01*
X9319136Y-9442619D01*
X9328660Y-9414048D01*
X9338184Y-9395000D01*
X9357231Y-9366429D01*
X9366755Y-9356905D01*
X9547708Y-9585476D02*
X9433422Y-9585476D01*
X9490565Y-9585476D02*
X9490565Y-9385476D01*
X9471517Y-9414048D01*
X9452469Y-9433095D01*
X9433422Y-9442619D01*
X9719136Y-9385476D02*
X9681041Y-9385476D01*
X9661993Y-9395000D01*
X9652469Y-9404524D01*
X9633422Y-9433095D01*
X9623898Y-9471190D01*
X9623898Y-9547381D01*
X9633422Y-9566429D01*
X9642946Y-9575952D01*
X9661993Y-9585476D01*
X9700088Y-9585476D01*
X9719136Y-9575952D01*
X9728660Y-9566429D01*
X9738184Y-9547381D01*
X9738184Y-9499762D01*
X9728660Y-9480714D01*
X9719136Y-9471190D01*
X9700088Y-9461667D01*
X9661993Y-9461667D01*
X9642946Y-9471190D01*
X9633422Y-9480714D01*
X9623898Y-9499762D01*
X9909612Y-9385476D02*
X9871517Y-9385476D01*
X9852469Y-9395000D01*
X9842946Y-9404524D01*
X9823898Y-9433095D01*
X9814374Y-9471190D01*
X9814374Y-9547381D01*
X9823898Y-9566429D01*
X9833422Y-9575952D01*
X9852469Y-9585476D01*
X9890565Y-9585476D01*
X9909612Y-9575952D01*
X9919136Y-9566429D01*
X9928660Y-9547381D01*
X9928660Y-9499762D01*
X9919136Y-9480714D01*
X9909612Y-9471190D01*
X9890565Y-9461667D01*
X9852469Y-9461667D01*
X9833422Y-9471190D01*
X9823898Y-9480714D01*
X9814374Y-9499762D01*
X10166755Y-9585476D02*
X10166755Y-9385476D01*
X10252469Y-9585476D02*
X10252469Y-9480714D01*
X10242946Y-9461667D01*
X10223898Y-9452143D01*
X10195327Y-9452143D01*
X10176279Y-9461667D01*
X10166755Y-9471190D01*
X10376279Y-9585476D02*
X10357231Y-9575952D01*
X10347708Y-9566429D01*
X10338184Y-9547381D01*
X10338184Y-9490238D01*
X10347708Y-9471190D01*
X10357231Y-9461667D01*
X10376279Y-9452143D01*
X10404850Y-9452143D01*
X10423898Y-9461667D01*
X10433422Y-9471190D01*
X10442946Y-9490238D01*
X10442946Y-9547381D01*
X10433422Y-9566429D01*
X10423898Y-9575952D01*
X10404850Y-9585476D01*
X10376279Y-9585476D01*
X10557231Y-9585476D02*
X10538184Y-9575952D01*
X10528660Y-9556905D01*
X10528660Y-9385476D01*
X10709612Y-9575952D02*
X10690565Y-9585476D01*
X10652469Y-9585476D01*
X10633422Y-9575952D01*
X10623898Y-9556905D01*
X10623898Y-9480714D01*
X10633422Y-9461667D01*
X10652469Y-9452143D01*
X10690565Y-9452143D01*
X10709612Y-9461667D01*
X10719136Y-9480714D01*
X10719136Y-9499762D01*
X10623898Y-9518810D01*
X10795327Y-9575952D02*
X10814374Y-9585476D01*
X10852469Y-9585476D01*
X10871517Y-9575952D01*
X10881041Y-9556905D01*
X10881041Y-9547381D01*
X10871517Y-9528333D01*
X10852469Y-9518810D01*
X10823898Y-9518810D01*
X10804850Y-9509286D01*
X10795327Y-9490238D01*
X10795327Y-9480714D01*
X10804850Y-9461667D01*
X10823898Y-9452143D01*
X10852469Y-9452143D01*
X10871517Y-9461667D01*
X10947708Y-9661667D02*
X10957231Y-9652143D01*
X10976279Y-9623571D01*
X10985803Y-9604524D01*
X10995327Y-9575952D01*
X11004850Y-9528333D01*
X11004850Y-9490238D01*
X10995327Y-9442619D01*
X10985803Y-9414048D01*
X10976279Y-9395000D01*
X10957231Y-9366429D01*
X10947708Y-9356905D01*
D13*
X5794850Y-9759000D02*
G75*
G03*
X5794850Y-9759000I-17500J0D01*
G01*
D11*
X6090565Y-9649476D02*
X6109612Y-9649476D01*
X6128660Y-9659000D01*
X6138184Y-9668524D01*
X6147707Y-9687571D01*
X6157231Y-9725667D01*
X6157231Y-9773286D01*
X6147707Y-9811381D01*
X6138184Y-9830429D01*
X6128660Y-9839952D01*
X6109612Y-9849476D01*
X6090565Y-9849476D01*
X6071517Y-9839952D01*
X6061993Y-9830429D01*
X6052469Y-9811381D01*
X6042946Y-9773286D01*
X6042946Y-9725667D01*
X6052469Y-9687571D01*
X6061993Y-9668524D01*
X6071517Y-9659000D01*
X6090565Y-9649476D01*
X6242946Y-9830429D02*
X6252469Y-9839952D01*
X6242946Y-9849476D01*
X6233422Y-9839952D01*
X6242946Y-9830429D01*
X6242946Y-9849476D01*
X6319136Y-9649476D02*
X6442946Y-9649476D01*
X6376279Y-9725667D01*
X6404850Y-9725667D01*
X6423898Y-9735190D01*
X6433422Y-9744714D01*
X6442946Y-9763762D01*
X6442946Y-9811381D01*
X6433422Y-9830429D01*
X6423898Y-9839952D01*
X6404850Y-9849476D01*
X6347707Y-9849476D01*
X6328660Y-9839952D01*
X6319136Y-9830429D01*
X6623898Y-9649476D02*
X6528660Y-9649476D01*
X6519136Y-9744714D01*
X6528660Y-9735190D01*
X6547707Y-9725667D01*
X6595326Y-9725667D01*
X6614374Y-9735190D01*
X6623898Y-9744714D01*
X6633422Y-9763762D01*
X6633422Y-9811381D01*
X6623898Y-9830429D01*
X6614374Y-9839952D01*
X6595326Y-9849476D01*
X6547707Y-9849476D01*
X6528660Y-9839952D01*
X6519136Y-9830429D01*
X6757231Y-9649476D02*
X6776279Y-9649476D01*
X6795326Y-9659000D01*
X6804850Y-9668524D01*
X6814374Y-9687571D01*
X6823898Y-9725667D01*
X6823898Y-9773286D01*
X6814374Y-9811381D01*
X6804850Y-9830429D01*
X6795326Y-9839952D01*
X6776279Y-9849476D01*
X6757231Y-9849476D01*
X6738184Y-9839952D01*
X6728660Y-9830429D01*
X6719136Y-9811381D01*
X6709612Y-9773286D01*
X6709612Y-9725667D01*
X6719136Y-9687571D01*
X6728660Y-9668524D01*
X6738184Y-9659000D01*
X6757231Y-9649476D01*
X6909612Y-9849476D02*
X6909612Y-9716143D01*
X6909612Y-9735190D02*
X6919136Y-9725667D01*
X6938184Y-9716143D01*
X6966755Y-9716143D01*
X6985803Y-9725667D01*
X6995326Y-9744714D01*
X6995326Y-9849476D01*
X6995326Y-9744714D02*
X7004850Y-9725667D01*
X7023898Y-9716143D01*
X7052469Y-9716143D01*
X7071517Y-9725667D01*
X7081041Y-9744714D01*
X7081041Y-9849476D01*
X7176279Y-9849476D02*
X7176279Y-9716143D01*
X7176279Y-9735190D02*
X7185803Y-9725667D01*
X7204850Y-9716143D01*
X7233422Y-9716143D01*
X7252469Y-9725667D01*
X7261993Y-9744714D01*
X7261993Y-9849476D01*
X7261993Y-9744714D02*
X7271517Y-9725667D01*
X7290565Y-9716143D01*
X7319136Y-9716143D01*
X7338184Y-9725667D01*
X7347707Y-9744714D01*
X7347707Y-9849476D01*
X7738184Y-9639952D02*
X7566755Y-9897095D01*
X7995326Y-9649476D02*
X8014374Y-9649476D01*
X8033422Y-9659000D01*
X8042946Y-9668524D01*
X8052469Y-9687571D01*
X8061993Y-9725667D01*
X8061993Y-9773286D01*
X8052469Y-9811381D01*
X8042946Y-9830429D01*
X8033422Y-9839952D01*
X8014374Y-9849476D01*
X7995326Y-9849476D01*
X7976279Y-9839952D01*
X7966755Y-9830429D01*
X7957231Y-9811381D01*
X7947707Y-9773286D01*
X7947707Y-9725667D01*
X7957231Y-9687571D01*
X7966755Y-9668524D01*
X7976279Y-9659000D01*
X7995326Y-9649476D01*
X8147707Y-9830429D02*
X8157231Y-9839952D01*
X8147707Y-9849476D01*
X8138184Y-9839952D01*
X8147707Y-9830429D01*
X8147707Y-9849476D01*
X8281041Y-9649476D02*
X8300088Y-9649476D01*
X8319136Y-9659000D01*
X8328660Y-9668524D01*
X8338184Y-9687571D01*
X8347707Y-9725667D01*
X8347707Y-9773286D01*
X8338184Y-9811381D01*
X8328660Y-9830429D01*
X8319136Y-9839952D01*
X8300088Y-9849476D01*
X8281041Y-9849476D01*
X8261993Y-9839952D01*
X8252469Y-9830429D01*
X8242946Y-9811381D01*
X8233422Y-9773286D01*
X8233422Y-9725667D01*
X8242946Y-9687571D01*
X8252469Y-9668524D01*
X8261993Y-9659000D01*
X8281041Y-9649476D01*
X8538184Y-9849476D02*
X8423898Y-9849476D01*
X8481041Y-9849476D02*
X8481041Y-9649476D01*
X8461993Y-9678048D01*
X8442946Y-9697095D01*
X8423898Y-9706619D01*
X8604850Y-9649476D02*
X8728660Y-9649476D01*
X8661993Y-9725667D01*
X8690565Y-9725667D01*
X8709612Y-9735190D01*
X8719136Y-9744714D01*
X8728660Y-9763762D01*
X8728660Y-9811381D01*
X8719136Y-9830429D01*
X8709612Y-9839952D01*
X8690565Y-9849476D01*
X8633422Y-9849476D01*
X8614374Y-9839952D01*
X8604850Y-9830429D01*
X8842946Y-9735190D02*
X8823898Y-9725667D01*
X8814374Y-9716143D01*
X8804850Y-9697095D01*
X8804850Y-9687571D01*
X8814374Y-9668524D01*
X8823898Y-9659000D01*
X8842946Y-9649476D01*
X8881041Y-9649476D01*
X8900088Y-9659000D01*
X8909612Y-9668524D01*
X8919136Y-9687571D01*
X8919136Y-9697095D01*
X8909612Y-9716143D01*
X8900088Y-9725667D01*
X8881041Y-9735190D01*
X8842946Y-9735190D01*
X8823898Y-9744714D01*
X8814374Y-9754238D01*
X8804850Y-9773286D01*
X8804850Y-9811381D01*
X8814374Y-9830429D01*
X8823898Y-9839952D01*
X8842946Y-9849476D01*
X8881041Y-9849476D01*
X8900088Y-9839952D01*
X8909612Y-9830429D01*
X8919136Y-9811381D01*
X8919136Y-9773286D01*
X8909612Y-9754238D01*
X8900088Y-9744714D01*
X8881041Y-9735190D01*
X8995327Y-9649476D02*
X8995327Y-9687571D01*
X9071517Y-9649476D02*
X9071517Y-9687571D01*
X9366755Y-9925667D02*
X9357231Y-9916143D01*
X9338184Y-9887571D01*
X9328660Y-9868524D01*
X9319136Y-9839952D01*
X9309612Y-9792333D01*
X9309612Y-9754238D01*
X9319136Y-9706619D01*
X9328660Y-9678048D01*
X9338184Y-9659000D01*
X9357231Y-9630429D01*
X9366755Y-9620905D01*
X9481041Y-9649476D02*
X9500088Y-9649476D01*
X9519136Y-9659000D01*
X9528660Y-9668524D01*
X9538184Y-9687571D01*
X9547708Y-9725667D01*
X9547708Y-9773286D01*
X9538184Y-9811381D01*
X9528660Y-9830429D01*
X9519136Y-9839952D01*
X9500088Y-9849476D01*
X9481041Y-9849476D01*
X9461993Y-9839952D01*
X9452469Y-9830429D01*
X9442946Y-9811381D01*
X9433422Y-9773286D01*
X9433422Y-9725667D01*
X9442946Y-9687571D01*
X9452469Y-9668524D01*
X9461993Y-9659000D01*
X9481041Y-9649476D01*
X9785803Y-9849476D02*
X9785803Y-9649476D01*
X9871517Y-9849476D02*
X9871517Y-9744714D01*
X9861993Y-9725667D01*
X9842946Y-9716143D01*
X9814374Y-9716143D01*
X9795327Y-9725667D01*
X9785803Y-9735190D01*
X9995327Y-9849476D02*
X9976279Y-9839952D01*
X9966755Y-9830429D01*
X9957231Y-9811381D01*
X9957231Y-9754238D01*
X9966755Y-9735190D01*
X9976279Y-9725667D01*
X9995327Y-9716143D01*
X10023898Y-9716143D01*
X10042946Y-9725667D01*
X10052469Y-9735190D01*
X10061993Y-9754238D01*
X10061993Y-9811381D01*
X10052469Y-9830429D01*
X10042946Y-9839952D01*
X10023898Y-9849476D01*
X9995327Y-9849476D01*
X10176279Y-9849476D02*
X10157231Y-9839952D01*
X10147708Y-9820905D01*
X10147708Y-9649476D01*
X10328660Y-9839952D02*
X10309612Y-9849476D01*
X10271517Y-9849476D01*
X10252469Y-9839952D01*
X10242946Y-9820905D01*
X10242946Y-9744714D01*
X10252469Y-9725667D01*
X10271517Y-9716143D01*
X10309612Y-9716143D01*
X10328660Y-9725667D01*
X10338184Y-9744714D01*
X10338184Y-9763762D01*
X10242946Y-9782810D01*
X10414374Y-9839952D02*
X10433422Y-9849476D01*
X10471517Y-9849476D01*
X10490565Y-9839952D01*
X10500088Y-9820905D01*
X10500088Y-9811381D01*
X10490565Y-9792333D01*
X10471517Y-9782810D01*
X10442946Y-9782810D01*
X10423898Y-9773286D01*
X10414374Y-9754238D01*
X10414374Y-9744714D01*
X10423898Y-9725667D01*
X10442946Y-9716143D01*
X10471517Y-9716143D01*
X10490565Y-9725667D01*
X10738184Y-9773286D02*
X10890565Y-9773286D01*
X10814374Y-9849476D02*
X10814374Y-9697095D01*
X11128660Y-9668524D02*
X11138184Y-9659000D01*
X11157231Y-9649476D01*
X11204850Y-9649476D01*
X11223898Y-9659000D01*
X11233422Y-9668524D01*
X11242946Y-9687571D01*
X11242946Y-9706619D01*
X11233422Y-9735190D01*
X11119136Y-9849476D01*
X11242946Y-9849476D01*
X11471517Y-9839952D02*
X11490565Y-9849476D01*
X11528660Y-9849476D01*
X11547707Y-9839952D01*
X11557231Y-9820905D01*
X11557231Y-9811381D01*
X11547707Y-9792333D01*
X11528660Y-9782810D01*
X11500088Y-9782810D01*
X11481041Y-9773286D01*
X11471517Y-9754238D01*
X11471517Y-9744714D01*
X11481041Y-9725667D01*
X11500088Y-9716143D01*
X11528660Y-9716143D01*
X11547707Y-9725667D01*
X11671517Y-9849476D02*
X11652469Y-9839952D01*
X11642946Y-9820905D01*
X11642946Y-9649476D01*
X11776279Y-9849476D02*
X11757231Y-9839952D01*
X11747707Y-9830429D01*
X11738184Y-9811381D01*
X11738184Y-9754238D01*
X11747707Y-9735190D01*
X11757231Y-9725667D01*
X11776279Y-9716143D01*
X11804850Y-9716143D01*
X11823898Y-9725667D01*
X11833422Y-9735190D01*
X11842946Y-9754238D01*
X11842946Y-9811381D01*
X11833422Y-9830429D01*
X11823898Y-9839952D01*
X11804850Y-9849476D01*
X11776279Y-9849476D01*
X11900088Y-9716143D02*
X11976279Y-9716143D01*
X11928660Y-9649476D02*
X11928660Y-9820905D01*
X11938184Y-9839952D01*
X11957231Y-9849476D01*
X11976279Y-9849476D01*
X12033422Y-9839952D02*
X12052469Y-9849476D01*
X12090565Y-9849476D01*
X12109612Y-9839952D01*
X12119136Y-9820905D01*
X12119136Y-9811381D01*
X12109612Y-9792333D01*
X12090565Y-9782810D01*
X12061993Y-9782810D01*
X12042946Y-9773286D01*
X12033422Y-9754238D01*
X12033422Y-9744714D01*
X12042946Y-9725667D01*
X12061993Y-9716143D01*
X12090565Y-9716143D01*
X12109612Y-9725667D01*
X12185803Y-9925667D02*
X12195326Y-9916143D01*
X12214374Y-9887571D01*
X12223898Y-9868524D01*
X12233422Y-9839952D01*
X12242946Y-9792333D01*
X12242946Y-9754238D01*
X12233422Y-9706619D01*
X12223898Y-9678048D01*
X12214374Y-9659000D01*
X12195326Y-9630429D01*
X12185803Y-9620905D01*
D14*
X5774850Y-10003000D02*
X5774850Y-10043000D01*
X5754850Y-10023000D02*
X5794850Y-10023000D01*
D11*
X6090565Y-9913476D02*
X6109612Y-9913476D01*
X6128660Y-9923000D01*
X6138184Y-9932524D01*
X6147707Y-9951571D01*
X6157231Y-9989667D01*
X6157231Y-10037286D01*
X6147707Y-10075381D01*
X6138184Y-10094429D01*
X6128660Y-10103952D01*
X6109612Y-10113476D01*
X6090565Y-10113476D01*
X6071517Y-10103952D01*
X6061993Y-10094429D01*
X6052469Y-10075381D01*
X6042946Y-10037286D01*
X6042946Y-9989667D01*
X6052469Y-9951571D01*
X6061993Y-9932524D01*
X6071517Y-9923000D01*
X6090565Y-9913476D01*
X6242946Y-10094429D02*
X6252469Y-10103952D01*
X6242946Y-10113476D01*
X6233422Y-10103952D01*
X6242946Y-10094429D01*
X6242946Y-10113476D01*
X6423898Y-9980143D02*
X6423898Y-10113476D01*
X6376279Y-9903952D02*
X6328660Y-10046810D01*
X6452469Y-10046810D01*
X6566755Y-9913476D02*
X6585803Y-9913476D01*
X6604850Y-9923000D01*
X6614374Y-9932524D01*
X6623898Y-9951571D01*
X6633422Y-9989667D01*
X6633422Y-10037286D01*
X6623898Y-10075381D01*
X6614374Y-10094429D01*
X6604850Y-10103952D01*
X6585803Y-10113476D01*
X6566755Y-10113476D01*
X6547707Y-10103952D01*
X6538184Y-10094429D01*
X6528660Y-10075381D01*
X6519136Y-10037286D01*
X6519136Y-9989667D01*
X6528660Y-9951571D01*
X6538184Y-9932524D01*
X6547707Y-9923000D01*
X6566755Y-9913476D01*
X6757231Y-9913476D02*
X6776279Y-9913476D01*
X6795326Y-9923000D01*
X6804850Y-9932524D01*
X6814374Y-9951571D01*
X6823898Y-9989667D01*
X6823898Y-10037286D01*
X6814374Y-10075381D01*
X6804850Y-10094429D01*
X6795326Y-10103952D01*
X6776279Y-10113476D01*
X6757231Y-10113476D01*
X6738184Y-10103952D01*
X6728660Y-10094429D01*
X6719136Y-10075381D01*
X6709612Y-10037286D01*
X6709612Y-9989667D01*
X6719136Y-9951571D01*
X6728660Y-9932524D01*
X6738184Y-9923000D01*
X6757231Y-9913476D01*
X6909612Y-10113476D02*
X6909612Y-9980143D01*
X6909612Y-9999190D02*
X6919136Y-9989667D01*
X6938184Y-9980143D01*
X6966755Y-9980143D01*
X6985803Y-9989667D01*
X6995326Y-10008714D01*
X6995326Y-10113476D01*
X6995326Y-10008714D02*
X7004850Y-9989667D01*
X7023898Y-9980143D01*
X7052469Y-9980143D01*
X7071517Y-9989667D01*
X7081041Y-10008714D01*
X7081041Y-10113476D01*
X7176279Y-10113476D02*
X7176279Y-9980143D01*
X7176279Y-9999190D02*
X7185803Y-9989667D01*
X7204850Y-9980143D01*
X7233422Y-9980143D01*
X7252469Y-9989667D01*
X7261993Y-10008714D01*
X7261993Y-10113476D01*
X7261993Y-10008714D02*
X7271517Y-9989667D01*
X7290565Y-9980143D01*
X7319136Y-9980143D01*
X7338184Y-9989667D01*
X7347707Y-10008714D01*
X7347707Y-10113476D01*
X7738184Y-9903952D02*
X7566755Y-10161095D01*
X7995326Y-9913476D02*
X8014374Y-9913476D01*
X8033422Y-9923000D01*
X8042946Y-9932524D01*
X8052469Y-9951571D01*
X8061993Y-9989667D01*
X8061993Y-10037286D01*
X8052469Y-10075381D01*
X8042946Y-10094429D01*
X8033422Y-10103952D01*
X8014374Y-10113476D01*
X7995326Y-10113476D01*
X7976279Y-10103952D01*
X7966755Y-10094429D01*
X7957231Y-10075381D01*
X7947707Y-10037286D01*
X7947707Y-9989667D01*
X7957231Y-9951571D01*
X7966755Y-9932524D01*
X7976279Y-9923000D01*
X7995326Y-9913476D01*
X8147707Y-10094429D02*
X8157231Y-10103952D01*
X8147707Y-10113476D01*
X8138184Y-10103952D01*
X8147707Y-10094429D01*
X8147707Y-10113476D01*
X8281041Y-9913476D02*
X8300088Y-9913476D01*
X8319136Y-9923000D01*
X8328660Y-9932524D01*
X8338184Y-9951571D01*
X8347707Y-9989667D01*
X8347707Y-10037286D01*
X8338184Y-10075381D01*
X8328660Y-10094429D01*
X8319136Y-10103952D01*
X8300088Y-10113476D01*
X8281041Y-10113476D01*
X8261993Y-10103952D01*
X8252469Y-10094429D01*
X8242946Y-10075381D01*
X8233422Y-10037286D01*
X8233422Y-9989667D01*
X8242946Y-9951571D01*
X8252469Y-9932524D01*
X8261993Y-9923000D01*
X8281041Y-9913476D01*
X8538184Y-10113476D02*
X8423898Y-10113476D01*
X8481041Y-10113476D02*
X8481041Y-9913476D01*
X8461993Y-9942048D01*
X8442946Y-9961095D01*
X8423898Y-9970619D01*
X8719136Y-9913476D02*
X8623898Y-9913476D01*
X8614374Y-10008714D01*
X8623898Y-9999190D01*
X8642946Y-9989667D01*
X8690565Y-9989667D01*
X8709612Y-9999190D01*
X8719136Y-10008714D01*
X8728660Y-10027762D01*
X8728660Y-10075381D01*
X8719136Y-10094429D01*
X8709612Y-10103952D01*
X8690565Y-10113476D01*
X8642946Y-10113476D01*
X8623898Y-10103952D01*
X8614374Y-10094429D01*
X8795327Y-9913476D02*
X8928660Y-9913476D01*
X8842946Y-10113476D01*
X8995327Y-9913476D02*
X8995327Y-9951571D01*
X9071517Y-9913476D02*
X9071517Y-9951571D01*
X9366755Y-10189667D02*
X9357231Y-10180143D01*
X9338184Y-10151571D01*
X9328660Y-10132524D01*
X9319136Y-10103952D01*
X9309612Y-10056333D01*
X9309612Y-10018238D01*
X9319136Y-9970619D01*
X9328660Y-9942048D01*
X9338184Y-9923000D01*
X9357231Y-9894429D01*
X9366755Y-9884905D01*
X9528660Y-9980143D02*
X9528660Y-10113476D01*
X9481041Y-9903952D02*
X9433422Y-10046810D01*
X9557231Y-10046810D01*
X9728660Y-9913476D02*
X9633422Y-9913476D01*
X9623898Y-10008714D01*
X9633422Y-9999190D01*
X9652469Y-9989667D01*
X9700088Y-9989667D01*
X9719136Y-9999190D01*
X9728660Y-10008714D01*
X9738184Y-10027762D01*
X9738184Y-10075381D01*
X9728660Y-10094429D01*
X9719136Y-10103952D01*
X9700088Y-10113476D01*
X9652469Y-10113476D01*
X9633422Y-10103952D01*
X9623898Y-10094429D01*
X9976279Y-10113476D02*
X9976279Y-9913476D01*
X10061993Y-10113476D02*
X10061993Y-10008714D01*
X10052469Y-9989667D01*
X10033422Y-9980143D01*
X10004850Y-9980143D01*
X9985803Y-9989667D01*
X9976279Y-9999190D01*
X10185803Y-10113476D02*
X10166755Y-10103952D01*
X10157231Y-10094429D01*
X10147708Y-10075381D01*
X10147708Y-10018238D01*
X10157231Y-9999190D01*
X10166755Y-9989667D01*
X10185803Y-9980143D01*
X10214374Y-9980143D01*
X10233422Y-9989667D01*
X10242946Y-9999190D01*
X10252469Y-10018238D01*
X10252469Y-10075381D01*
X10242946Y-10094429D01*
X10233422Y-10103952D01*
X10214374Y-10113476D01*
X10185803Y-10113476D01*
X10366755Y-10113476D02*
X10347708Y-10103952D01*
X10338184Y-10084905D01*
X10338184Y-9913476D01*
X10519136Y-10103952D02*
X10500088Y-10113476D01*
X10461993Y-10113476D01*
X10442946Y-10103952D01*
X10433422Y-10084905D01*
X10433422Y-10008714D01*
X10442946Y-9989667D01*
X10461993Y-9980143D01*
X10500088Y-9980143D01*
X10519136Y-9989667D01*
X10528660Y-10008714D01*
X10528660Y-10027762D01*
X10433422Y-10046810D01*
X10604850Y-10103952D02*
X10623898Y-10113476D01*
X10661993Y-10113476D01*
X10681041Y-10103952D01*
X10690565Y-10084905D01*
X10690565Y-10075381D01*
X10681041Y-10056333D01*
X10661993Y-10046810D01*
X10633422Y-10046810D01*
X10614374Y-10037286D01*
X10604850Y-10018238D01*
X10604850Y-10008714D01*
X10614374Y-9989667D01*
X10633422Y-9980143D01*
X10661993Y-9980143D01*
X10681041Y-9989667D01*
X10757231Y-10189667D02*
X10766755Y-10180143D01*
X10785803Y-10151571D01*
X10795327Y-10132524D01*
X10804850Y-10103952D01*
X10814374Y-10056333D01*
X10814374Y-10018238D01*
X10804850Y-9970619D01*
X10795327Y-9942048D01*
X10785803Y-9923000D01*
X10766755Y-9894429D01*
X10757231Y-9884905D01*
D15*
X5788407Y-10302557D02*
X5788407Y-10271444D01*
X5757294Y-10271444D01*
X5757294Y-10302557D01*
X5788407Y-10302557D01*
D11*
X6090565Y-10177476D02*
X6109612Y-10177476D01*
X6128660Y-10187000D01*
X6138184Y-10196524D01*
X6147707Y-10215571D01*
X6157231Y-10253667D01*
X6157231Y-10301286D01*
X6147707Y-10339381D01*
X6138184Y-10358429D01*
X6128660Y-10367952D01*
X6109612Y-10377476D01*
X6090565Y-10377476D01*
X6071517Y-10367952D01*
X6061993Y-10358429D01*
X6052469Y-10339381D01*
X6042946Y-10301286D01*
X6042946Y-10253667D01*
X6052469Y-10215571D01*
X6061993Y-10196524D01*
X6071517Y-10187000D01*
X6090565Y-10177476D01*
X6242946Y-10358429D02*
X6252469Y-10367952D01*
X6242946Y-10377476D01*
X6233422Y-10367952D01*
X6242946Y-10358429D01*
X6242946Y-10377476D01*
X6423898Y-10244143D02*
X6423898Y-10377476D01*
X6376279Y-10167952D02*
X6328660Y-10310810D01*
X6452469Y-10310810D01*
X6614374Y-10244143D02*
X6614374Y-10377476D01*
X6566755Y-10167952D02*
X6519136Y-10310810D01*
X6642946Y-10310810D01*
X6757231Y-10177476D02*
X6776279Y-10177476D01*
X6795326Y-10187000D01*
X6804850Y-10196524D01*
X6814374Y-10215571D01*
X6823898Y-10253667D01*
X6823898Y-10301286D01*
X6814374Y-10339381D01*
X6804850Y-10358429D01*
X6795326Y-10367952D01*
X6776279Y-10377476D01*
X6757231Y-10377476D01*
X6738184Y-10367952D01*
X6728660Y-10358429D01*
X6719136Y-10339381D01*
X6709612Y-10301286D01*
X6709612Y-10253667D01*
X6719136Y-10215571D01*
X6728660Y-10196524D01*
X6738184Y-10187000D01*
X6757231Y-10177476D01*
X6909612Y-10377476D02*
X6909612Y-10244143D01*
X6909612Y-10263190D02*
X6919136Y-10253667D01*
X6938184Y-10244143D01*
X6966755Y-10244143D01*
X6985803Y-10253667D01*
X6995326Y-10272714D01*
X6995326Y-10377476D01*
X6995326Y-10272714D02*
X7004850Y-10253667D01*
X7023898Y-10244143D01*
X7052469Y-10244143D01*
X7071517Y-10253667D01*
X7081041Y-10272714D01*
X7081041Y-10377476D01*
X7176279Y-10377476D02*
X7176279Y-10244143D01*
X7176279Y-10263190D02*
X7185803Y-10253667D01*
X7204850Y-10244143D01*
X7233422Y-10244143D01*
X7252469Y-10253667D01*
X7261993Y-10272714D01*
X7261993Y-10377476D01*
X7261993Y-10272714D02*
X7271517Y-10253667D01*
X7290565Y-10244143D01*
X7319136Y-10244143D01*
X7338184Y-10253667D01*
X7347707Y-10272714D01*
X7347707Y-10377476D01*
X7738184Y-10167952D02*
X7566755Y-10425095D01*
X7995326Y-10177476D02*
X8014374Y-10177476D01*
X8033422Y-10187000D01*
X8042946Y-10196524D01*
X8052469Y-10215571D01*
X8061993Y-10253667D01*
X8061993Y-10301286D01*
X8052469Y-10339381D01*
X8042946Y-10358429D01*
X8033422Y-10367952D01*
X8014374Y-10377476D01*
X7995326Y-10377476D01*
X7976279Y-10367952D01*
X7966755Y-10358429D01*
X7957231Y-10339381D01*
X7947707Y-10301286D01*
X7947707Y-10253667D01*
X7957231Y-10215571D01*
X7966755Y-10196524D01*
X7976279Y-10187000D01*
X7995326Y-10177476D01*
X8147707Y-10358429D02*
X8157231Y-10367952D01*
X8147707Y-10377476D01*
X8138184Y-10367952D01*
X8147707Y-10358429D01*
X8147707Y-10377476D01*
X8281041Y-10177476D02*
X8300088Y-10177476D01*
X8319136Y-10187000D01*
X8328660Y-10196524D01*
X8338184Y-10215571D01*
X8347707Y-10253667D01*
X8347707Y-10301286D01*
X8338184Y-10339381D01*
X8328660Y-10358429D01*
X8319136Y-10367952D01*
X8300088Y-10377476D01*
X8281041Y-10377476D01*
X8261993Y-10367952D01*
X8252469Y-10358429D01*
X8242946Y-10339381D01*
X8233422Y-10301286D01*
X8233422Y-10253667D01*
X8242946Y-10215571D01*
X8252469Y-10196524D01*
X8261993Y-10187000D01*
X8281041Y-10177476D01*
X8538184Y-10377476D02*
X8423898Y-10377476D01*
X8481041Y-10377476D02*
X8481041Y-10177476D01*
X8461993Y-10206048D01*
X8442946Y-10225095D01*
X8423898Y-10234619D01*
X8604850Y-10177476D02*
X8738184Y-10177476D01*
X8652469Y-10377476D01*
X8795327Y-10177476D02*
X8919136Y-10177476D01*
X8852469Y-10253667D01*
X8881041Y-10253667D01*
X8900088Y-10263190D01*
X8909612Y-10272714D01*
X8919136Y-10291762D01*
X8919136Y-10339381D01*
X8909612Y-10358429D01*
X8900088Y-10367952D01*
X8881041Y-10377476D01*
X8823898Y-10377476D01*
X8804850Y-10367952D01*
X8795327Y-10358429D01*
X8995327Y-10177476D02*
X8995327Y-10215571D01*
X9071517Y-10177476D02*
X9071517Y-10215571D01*
X9366755Y-10453667D02*
X9357231Y-10444143D01*
X9338184Y-10415571D01*
X9328660Y-10396524D01*
X9319136Y-10367952D01*
X9309612Y-10320333D01*
X9309612Y-10282238D01*
X9319136Y-10234619D01*
X9328660Y-10206048D01*
X9338184Y-10187000D01*
X9357231Y-10158429D01*
X9366755Y-10148905D01*
X9538184Y-10177476D02*
X9442946Y-10177476D01*
X9433422Y-10272714D01*
X9442946Y-10263190D01*
X9461993Y-10253667D01*
X9509612Y-10253667D01*
X9528660Y-10263190D01*
X9538184Y-10272714D01*
X9547708Y-10291762D01*
X9547708Y-10339381D01*
X9538184Y-10358429D01*
X9528660Y-10367952D01*
X9509612Y-10377476D01*
X9461993Y-10377476D01*
X9442946Y-10367952D01*
X9433422Y-10358429D01*
X9785803Y-10377476D02*
X9785803Y-10177476D01*
X9871517Y-10377476D02*
X9871517Y-10272714D01*
X9861993Y-10253667D01*
X9842946Y-10244143D01*
X9814374Y-10244143D01*
X9795327Y-10253667D01*
X9785803Y-10263190D01*
X9995327Y-10377476D02*
X9976279Y-10367952D01*
X9966755Y-10358429D01*
X9957231Y-10339381D01*
X9957231Y-10282238D01*
X9966755Y-10263190D01*
X9976279Y-10253667D01*
X9995327Y-10244143D01*
X10023898Y-10244143D01*
X10042946Y-10253667D01*
X10052469Y-10263190D01*
X10061993Y-10282238D01*
X10061993Y-10339381D01*
X10052469Y-10358429D01*
X10042946Y-10367952D01*
X10023898Y-10377476D01*
X9995327Y-10377476D01*
X10176279Y-10377476D02*
X10157231Y-10367952D01*
X10147708Y-10348905D01*
X10147708Y-10177476D01*
X10328660Y-10367952D02*
X10309612Y-10377476D01*
X10271517Y-10377476D01*
X10252469Y-10367952D01*
X10242946Y-10348905D01*
X10242946Y-10272714D01*
X10252469Y-10253667D01*
X10271517Y-10244143D01*
X10309612Y-10244143D01*
X10328660Y-10253667D01*
X10338184Y-10272714D01*
X10338184Y-10291762D01*
X10242946Y-10310810D01*
X10414374Y-10367952D02*
X10433422Y-10377476D01*
X10471517Y-10377476D01*
X10490565Y-10367952D01*
X10500088Y-10348905D01*
X10500088Y-10339381D01*
X10490565Y-10320333D01*
X10471517Y-10310810D01*
X10442946Y-10310810D01*
X10423898Y-10301286D01*
X10414374Y-10282238D01*
X10414374Y-10272714D01*
X10423898Y-10253667D01*
X10442946Y-10244143D01*
X10471517Y-10244143D01*
X10490565Y-10253667D01*
X10566755Y-10453667D02*
X10576279Y-10444143D01*
X10595327Y-10415571D01*
X10604850Y-10396524D01*
X10614374Y-10367952D01*
X10623898Y-10320333D01*
X10623898Y-10282238D01*
X10614374Y-10234619D01*
X10604850Y-10206048D01*
X10595327Y-10187000D01*
X10576279Y-10158429D01*
X10566755Y-10148905D01*
D16*
X5769850Y-10576000D02*
X5794850Y-10551000D01*
X5769850Y-10526000D01*
X5744850Y-10551000D01*
X5769850Y-10576000D01*
D11*
X6090565Y-10441476D02*
X6109612Y-10441476D01*
X6128660Y-10451000D01*
X6138184Y-10460524D01*
X6147707Y-10479571D01*
X6157231Y-10517667D01*
X6157231Y-10565286D01*
X6147707Y-10603381D01*
X6138184Y-10622429D01*
X6128660Y-10631952D01*
X6109612Y-10641476D01*
X6090565Y-10641476D01*
X6071517Y-10631952D01*
X6061993Y-10622429D01*
X6052469Y-10603381D01*
X6042946Y-10565286D01*
X6042946Y-10517667D01*
X6052469Y-10479571D01*
X6061993Y-10460524D01*
X6071517Y-10451000D01*
X6090565Y-10441476D01*
X6242946Y-10622429D02*
X6252469Y-10631952D01*
X6242946Y-10641476D01*
X6233422Y-10631952D01*
X6242946Y-10622429D01*
X6242946Y-10641476D01*
X6433422Y-10441476D02*
X6338184Y-10441476D01*
X6328660Y-10536714D01*
X6338184Y-10527190D01*
X6357231Y-10517667D01*
X6404850Y-10517667D01*
X6423898Y-10527190D01*
X6433422Y-10536714D01*
X6442946Y-10555762D01*
X6442946Y-10603381D01*
X6433422Y-10622429D01*
X6423898Y-10631952D01*
X6404850Y-10641476D01*
X6357231Y-10641476D01*
X6338184Y-10631952D01*
X6328660Y-10622429D01*
X6566755Y-10441476D02*
X6585803Y-10441476D01*
X6604850Y-10451000D01*
X6614374Y-10460524D01*
X6623898Y-10479571D01*
X6633422Y-10517667D01*
X6633422Y-10565286D01*
X6623898Y-10603381D01*
X6614374Y-10622429D01*
X6604850Y-10631952D01*
X6585803Y-10641476D01*
X6566755Y-10641476D01*
X6547707Y-10631952D01*
X6538184Y-10622429D01*
X6528660Y-10603381D01*
X6519136Y-10565286D01*
X6519136Y-10517667D01*
X6528660Y-10479571D01*
X6538184Y-10460524D01*
X6547707Y-10451000D01*
X6566755Y-10441476D01*
X6757231Y-10441476D02*
X6776279Y-10441476D01*
X6795326Y-10451000D01*
X6804850Y-10460524D01*
X6814374Y-10479571D01*
X6823898Y-10517667D01*
X6823898Y-10565286D01*
X6814374Y-10603381D01*
X6804850Y-10622429D01*
X6795326Y-10631952D01*
X6776279Y-10641476D01*
X6757231Y-10641476D01*
X6738184Y-10631952D01*
X6728660Y-10622429D01*
X6719136Y-10603381D01*
X6709612Y-10565286D01*
X6709612Y-10517667D01*
X6719136Y-10479571D01*
X6728660Y-10460524D01*
X6738184Y-10451000D01*
X6757231Y-10441476D01*
X6909612Y-10641476D02*
X6909612Y-10508143D01*
X6909612Y-10527190D02*
X6919136Y-10517667D01*
X6938184Y-10508143D01*
X6966755Y-10508143D01*
X6985803Y-10517667D01*
X6995326Y-10536714D01*
X6995326Y-10641476D01*
X6995326Y-10536714D02*
X7004850Y-10517667D01*
X7023898Y-10508143D01*
X7052469Y-10508143D01*
X7071517Y-10517667D01*
X7081041Y-10536714D01*
X7081041Y-10641476D01*
X7176279Y-10641476D02*
X7176279Y-10508143D01*
X7176279Y-10527190D02*
X7185803Y-10517667D01*
X7204850Y-10508143D01*
X7233422Y-10508143D01*
X7252469Y-10517667D01*
X7261993Y-10536714D01*
X7261993Y-10641476D01*
X7261993Y-10536714D02*
X7271517Y-10517667D01*
X7290565Y-10508143D01*
X7319136Y-10508143D01*
X7338184Y-10517667D01*
X7347707Y-10536714D01*
X7347707Y-10641476D01*
X7738184Y-10431952D02*
X7566755Y-10689095D01*
X7995326Y-10441476D02*
X8014374Y-10441476D01*
X8033422Y-10451000D01*
X8042946Y-10460524D01*
X8052469Y-10479571D01*
X8061993Y-10517667D01*
X8061993Y-10565286D01*
X8052469Y-10603381D01*
X8042946Y-10622429D01*
X8033422Y-10631952D01*
X8014374Y-10641476D01*
X7995326Y-10641476D01*
X7976279Y-10631952D01*
X7966755Y-10622429D01*
X7957231Y-10603381D01*
X7947707Y-10565286D01*
X7947707Y-10517667D01*
X7957231Y-10479571D01*
X7966755Y-10460524D01*
X7976279Y-10451000D01*
X7995326Y-10441476D01*
X8147707Y-10622429D02*
X8157231Y-10631952D01*
X8147707Y-10641476D01*
X8138184Y-10631952D01*
X8147707Y-10622429D01*
X8147707Y-10641476D01*
X8281041Y-10441476D02*
X8300088Y-10441476D01*
X8319136Y-10451000D01*
X8328660Y-10460524D01*
X8338184Y-10479571D01*
X8347707Y-10517667D01*
X8347707Y-10565286D01*
X8338184Y-10603381D01*
X8328660Y-10622429D01*
X8319136Y-10631952D01*
X8300088Y-10641476D01*
X8281041Y-10641476D01*
X8261993Y-10631952D01*
X8252469Y-10622429D01*
X8242946Y-10603381D01*
X8233422Y-10565286D01*
X8233422Y-10517667D01*
X8242946Y-10479571D01*
X8252469Y-10460524D01*
X8261993Y-10451000D01*
X8281041Y-10441476D01*
X8538184Y-10641476D02*
X8423898Y-10641476D01*
X8481041Y-10641476D02*
X8481041Y-10441476D01*
X8461993Y-10470048D01*
X8442946Y-10489095D01*
X8423898Y-10498619D01*
X8633422Y-10641476D02*
X8671517Y-10641476D01*
X8690565Y-10631952D01*
X8700088Y-10622429D01*
X8719136Y-10593857D01*
X8728660Y-10555762D01*
X8728660Y-10479571D01*
X8719136Y-10460524D01*
X8709612Y-10451000D01*
X8690565Y-10441476D01*
X8652469Y-10441476D01*
X8633422Y-10451000D01*
X8623898Y-10460524D01*
X8614374Y-10479571D01*
X8614374Y-10527190D01*
X8623898Y-10546238D01*
X8633422Y-10555762D01*
X8652469Y-10565286D01*
X8690565Y-10565286D01*
X8709612Y-10555762D01*
X8719136Y-10546238D01*
X8728660Y-10527190D01*
X8795327Y-10441476D02*
X8928660Y-10441476D01*
X8842946Y-10641476D01*
X8995327Y-10441476D02*
X8995327Y-10479571D01*
X9071517Y-10441476D02*
X9071517Y-10479571D01*
X9366755Y-10717667D02*
X9357231Y-10708143D01*
X9338184Y-10679571D01*
X9328660Y-10660524D01*
X9319136Y-10631952D01*
X9309612Y-10584333D01*
X9309612Y-10546238D01*
X9319136Y-10498619D01*
X9328660Y-10470048D01*
X9338184Y-10451000D01*
X9357231Y-10422429D01*
X9366755Y-10412905D01*
X9528660Y-10508143D02*
X9528660Y-10641476D01*
X9481041Y-10431952D02*
X9433422Y-10574810D01*
X9557231Y-10574810D01*
X9785803Y-10641476D02*
X9785803Y-10441476D01*
X9871517Y-10641476D02*
X9871517Y-10536714D01*
X9861993Y-10517667D01*
X9842946Y-10508143D01*
X9814374Y-10508143D01*
X9795327Y-10517667D01*
X9785803Y-10527190D01*
X9995327Y-10641476D02*
X9976279Y-10631952D01*
X9966755Y-10622429D01*
X9957231Y-10603381D01*
X9957231Y-10546238D01*
X9966755Y-10527190D01*
X9976279Y-10517667D01*
X9995327Y-10508143D01*
X10023898Y-10508143D01*
X10042946Y-10517667D01*
X10052469Y-10527190D01*
X10061993Y-10546238D01*
X10061993Y-10603381D01*
X10052469Y-10622429D01*
X10042946Y-10631952D01*
X10023898Y-10641476D01*
X9995327Y-10641476D01*
X10176279Y-10641476D02*
X10157231Y-10631952D01*
X10147708Y-10612905D01*
X10147708Y-10441476D01*
X10328660Y-10631952D02*
X10309612Y-10641476D01*
X10271517Y-10641476D01*
X10252469Y-10631952D01*
X10242946Y-10612905D01*
X10242946Y-10536714D01*
X10252469Y-10517667D01*
X10271517Y-10508143D01*
X10309612Y-10508143D01*
X10328660Y-10517667D01*
X10338184Y-10536714D01*
X10338184Y-10555762D01*
X10242946Y-10574810D01*
X10414374Y-10631952D02*
X10433422Y-10641476D01*
X10471517Y-10641476D01*
X10490565Y-10631952D01*
X10500088Y-10612905D01*
X10500088Y-10603381D01*
X10490565Y-10584333D01*
X10471517Y-10574810D01*
X10442946Y-10574810D01*
X10423898Y-10565286D01*
X10414374Y-10546238D01*
X10414374Y-10536714D01*
X10423898Y-10517667D01*
X10442946Y-10508143D01*
X10471517Y-10508143D01*
X10490565Y-10517667D01*
X10566755Y-10717667D02*
X10576279Y-10708143D01*
X10595327Y-10679571D01*
X10604850Y-10660524D01*
X10614374Y-10631952D01*
X10623898Y-10584333D01*
X10623898Y-10546238D01*
X10614374Y-10498619D01*
X10604850Y-10470048D01*
X10595327Y-10451000D01*
X10576279Y-10422429D01*
X10566755Y-10412905D01*
D17*
X5714850Y-10775000D02*
X5794850Y-10855000D01*
X5794850Y-10775000D02*
X5714850Y-10855000D01*
X5794850Y-10815000D02*
G75*
G03*
X5794850Y-10815000I-40000J0D01*
G01*
D11*
X6090565Y-10705476D02*
X6109612Y-10705476D01*
X6128660Y-10715000D01*
X6138184Y-10724524D01*
X6147707Y-10743571D01*
X6157231Y-10781667D01*
X6157231Y-10829286D01*
X6147707Y-10867381D01*
X6138184Y-10886429D01*
X6128660Y-10895952D01*
X6109612Y-10905476D01*
X6090565Y-10905476D01*
X6071517Y-10895952D01*
X6061993Y-10886429D01*
X6052469Y-10867381D01*
X6042946Y-10829286D01*
X6042946Y-10781667D01*
X6052469Y-10743571D01*
X6061993Y-10724524D01*
X6071517Y-10715000D01*
X6090565Y-10705476D01*
X6242946Y-10886429D02*
X6252469Y-10895952D01*
X6242946Y-10905476D01*
X6233422Y-10895952D01*
X6242946Y-10886429D01*
X6242946Y-10905476D01*
X6366755Y-10791190D02*
X6347707Y-10781667D01*
X6338184Y-10772143D01*
X6328660Y-10753095D01*
X6328660Y-10743571D01*
X6338184Y-10724524D01*
X6347707Y-10715000D01*
X6366755Y-10705476D01*
X6404850Y-10705476D01*
X6423898Y-10715000D01*
X6433422Y-10724524D01*
X6442946Y-10743571D01*
X6442946Y-10753095D01*
X6433422Y-10772143D01*
X6423898Y-10781667D01*
X6404850Y-10791190D01*
X6366755Y-10791190D01*
X6347707Y-10800714D01*
X6338184Y-10810238D01*
X6328660Y-10829286D01*
X6328660Y-10867381D01*
X6338184Y-10886429D01*
X6347707Y-10895952D01*
X6366755Y-10905476D01*
X6404850Y-10905476D01*
X6423898Y-10895952D01*
X6433422Y-10886429D01*
X6442946Y-10867381D01*
X6442946Y-10829286D01*
X6433422Y-10810238D01*
X6423898Y-10800714D01*
X6404850Y-10791190D01*
X6566755Y-10705476D02*
X6585803Y-10705476D01*
X6604850Y-10715000D01*
X6614374Y-10724524D01*
X6623898Y-10743571D01*
X6633422Y-10781667D01*
X6633422Y-10829286D01*
X6623898Y-10867381D01*
X6614374Y-10886429D01*
X6604850Y-10895952D01*
X6585803Y-10905476D01*
X6566755Y-10905476D01*
X6547707Y-10895952D01*
X6538184Y-10886429D01*
X6528660Y-10867381D01*
X6519136Y-10829286D01*
X6519136Y-10781667D01*
X6528660Y-10743571D01*
X6538184Y-10724524D01*
X6547707Y-10715000D01*
X6566755Y-10705476D01*
X6757231Y-10705476D02*
X6776279Y-10705476D01*
X6795326Y-10715000D01*
X6804850Y-10724524D01*
X6814374Y-10743571D01*
X6823898Y-10781667D01*
X6823898Y-10829286D01*
X6814374Y-10867381D01*
X6804850Y-10886429D01*
X6795326Y-10895952D01*
X6776279Y-10905476D01*
X6757231Y-10905476D01*
X6738184Y-10895952D01*
X6728660Y-10886429D01*
X6719136Y-10867381D01*
X6709612Y-10829286D01*
X6709612Y-10781667D01*
X6719136Y-10743571D01*
X6728660Y-10724524D01*
X6738184Y-10715000D01*
X6757231Y-10705476D01*
X6909612Y-10905476D02*
X6909612Y-10772143D01*
X6909612Y-10791190D02*
X6919136Y-10781667D01*
X6938184Y-10772143D01*
X6966755Y-10772143D01*
X6985803Y-10781667D01*
X6995326Y-10800714D01*
X6995326Y-10905476D01*
X6995326Y-10800714D02*
X7004850Y-10781667D01*
X7023898Y-10772143D01*
X7052469Y-10772143D01*
X7071517Y-10781667D01*
X7081041Y-10800714D01*
X7081041Y-10905476D01*
X7176279Y-10905476D02*
X7176279Y-10772143D01*
X7176279Y-10791190D02*
X7185803Y-10781667D01*
X7204850Y-10772143D01*
X7233422Y-10772143D01*
X7252469Y-10781667D01*
X7261993Y-10800714D01*
X7261993Y-10905476D01*
X7261993Y-10800714D02*
X7271517Y-10781667D01*
X7290565Y-10772143D01*
X7319136Y-10772143D01*
X7338184Y-10781667D01*
X7347707Y-10800714D01*
X7347707Y-10905476D01*
X7738184Y-10695952D02*
X7566755Y-10953095D01*
X7995326Y-10705476D02*
X8014374Y-10705476D01*
X8033422Y-10715000D01*
X8042946Y-10724524D01*
X8052469Y-10743571D01*
X8061993Y-10781667D01*
X8061993Y-10829286D01*
X8052469Y-10867381D01*
X8042946Y-10886429D01*
X8033422Y-10895952D01*
X8014374Y-10905476D01*
X7995326Y-10905476D01*
X7976279Y-10895952D01*
X7966755Y-10886429D01*
X7957231Y-10867381D01*
X7947707Y-10829286D01*
X7947707Y-10781667D01*
X7957231Y-10743571D01*
X7966755Y-10724524D01*
X7976279Y-10715000D01*
X7995326Y-10705476D01*
X8147707Y-10886429D02*
X8157231Y-10895952D01*
X8147707Y-10905476D01*
X8138184Y-10895952D01*
X8147707Y-10886429D01*
X8147707Y-10905476D01*
X8281041Y-10705476D02*
X8300088Y-10705476D01*
X8319136Y-10715000D01*
X8328660Y-10724524D01*
X8338184Y-10743571D01*
X8347707Y-10781667D01*
X8347707Y-10829286D01*
X8338184Y-10867381D01*
X8328660Y-10886429D01*
X8319136Y-10895952D01*
X8300088Y-10905476D01*
X8281041Y-10905476D01*
X8261993Y-10895952D01*
X8252469Y-10886429D01*
X8242946Y-10867381D01*
X8233422Y-10829286D01*
X8233422Y-10781667D01*
X8242946Y-10743571D01*
X8252469Y-10724524D01*
X8261993Y-10715000D01*
X8281041Y-10705476D01*
X8414374Y-10705476D02*
X8538184Y-10705476D01*
X8471517Y-10781667D01*
X8500088Y-10781667D01*
X8519136Y-10791190D01*
X8528660Y-10800714D01*
X8538184Y-10819762D01*
X8538184Y-10867381D01*
X8528660Y-10886429D01*
X8519136Y-10895952D01*
X8500088Y-10905476D01*
X8442946Y-10905476D01*
X8423898Y-10895952D01*
X8414374Y-10886429D01*
X8728660Y-10905476D02*
X8614374Y-10905476D01*
X8671517Y-10905476D02*
X8671517Y-10705476D01*
X8652469Y-10734048D01*
X8633422Y-10753095D01*
X8614374Y-10762619D01*
X8909612Y-10705476D02*
X8814374Y-10705476D01*
X8804850Y-10800714D01*
X8814374Y-10791190D01*
X8833422Y-10781667D01*
X8881041Y-10781667D01*
X8900088Y-10791190D01*
X8909612Y-10800714D01*
X8919136Y-10819762D01*
X8919136Y-10867381D01*
X8909612Y-10886429D01*
X8900088Y-10895952D01*
X8881041Y-10905476D01*
X8833422Y-10905476D01*
X8814374Y-10895952D01*
X8804850Y-10886429D01*
X8995327Y-10705476D02*
X8995327Y-10743571D01*
X9071517Y-10705476D02*
X9071517Y-10743571D01*
X9366755Y-10981667D02*
X9357231Y-10972143D01*
X9338184Y-10943571D01*
X9328660Y-10924524D01*
X9319136Y-10895952D01*
X9309612Y-10848333D01*
X9309612Y-10810238D01*
X9319136Y-10762619D01*
X9328660Y-10734048D01*
X9338184Y-10715000D01*
X9357231Y-10686429D01*
X9366755Y-10676905D01*
X9433422Y-10724524D02*
X9442946Y-10715000D01*
X9461993Y-10705476D01*
X9509612Y-10705476D01*
X9528660Y-10715000D01*
X9538184Y-10724524D01*
X9547708Y-10743571D01*
X9547708Y-10762619D01*
X9538184Y-10791190D01*
X9423898Y-10905476D01*
X9547708Y-10905476D01*
X9642946Y-10905476D02*
X9681041Y-10905476D01*
X9700088Y-10895952D01*
X9709612Y-10886429D01*
X9728660Y-10857857D01*
X9738184Y-10819762D01*
X9738184Y-10743571D01*
X9728660Y-10724524D01*
X9719136Y-10715000D01*
X9700088Y-10705476D01*
X9661993Y-10705476D01*
X9642946Y-10715000D01*
X9633422Y-10724524D01*
X9623898Y-10743571D01*
X9623898Y-10791190D01*
X9633422Y-10810238D01*
X9642946Y-10819762D01*
X9661993Y-10829286D01*
X9700088Y-10829286D01*
X9719136Y-10819762D01*
X9728660Y-10810238D01*
X9738184Y-10791190D01*
X9976279Y-10905476D02*
X9976279Y-10705476D01*
X10061993Y-10905476D02*
X10061993Y-10800714D01*
X10052469Y-10781667D01*
X10033422Y-10772143D01*
X10004850Y-10772143D01*
X9985803Y-10781667D01*
X9976279Y-10791190D01*
X10185803Y-10905476D02*
X10166755Y-10895952D01*
X10157231Y-10886429D01*
X10147708Y-10867381D01*
X10147708Y-10810238D01*
X10157231Y-10791190D01*
X10166755Y-10781667D01*
X10185803Y-10772143D01*
X10214374Y-10772143D01*
X10233422Y-10781667D01*
X10242946Y-10791190D01*
X10252469Y-10810238D01*
X10252469Y-10867381D01*
X10242946Y-10886429D01*
X10233422Y-10895952D01*
X10214374Y-10905476D01*
X10185803Y-10905476D01*
X10366755Y-10905476D02*
X10347708Y-10895952D01*
X10338184Y-10876905D01*
X10338184Y-10705476D01*
X10519136Y-10895952D02*
X10500088Y-10905476D01*
X10461993Y-10905476D01*
X10442946Y-10895952D01*
X10433422Y-10876905D01*
X10433422Y-10800714D01*
X10442946Y-10781667D01*
X10461993Y-10772143D01*
X10500088Y-10772143D01*
X10519136Y-10781667D01*
X10528660Y-10800714D01*
X10528660Y-10819762D01*
X10433422Y-10838810D01*
X10604850Y-10895952D02*
X10623898Y-10905476D01*
X10661993Y-10905476D01*
X10681041Y-10895952D01*
X10690565Y-10876905D01*
X10690565Y-10867381D01*
X10681041Y-10848333D01*
X10661993Y-10838810D01*
X10633422Y-10838810D01*
X10614374Y-10829286D01*
X10604850Y-10810238D01*
X10604850Y-10800714D01*
X10614374Y-10781667D01*
X10633422Y-10772143D01*
X10661993Y-10772143D01*
X10681041Y-10781667D01*
X10757231Y-10981667D02*
X10766755Y-10972143D01*
X10785803Y-10943571D01*
X10795327Y-10924524D01*
X10804850Y-10895952D01*
X10814374Y-10848333D01*
X10814374Y-10810238D01*
X10804850Y-10762619D01*
X10795327Y-10734048D01*
X10785803Y-10715000D01*
X10766755Y-10686429D01*
X10757231Y-10676905D01*
D10*
X5694850Y-11029000D02*
X5794850Y-11129000D01*
X5794850Y-11029000D02*
X5694850Y-11129000D01*
X5744850Y-11029000D02*
X5744850Y-11129000D01*
X5694850Y-11079000D02*
X5794850Y-11079000D01*
D11*
X6157231Y-11169476D02*
X6042946Y-11169476D01*
X6100088Y-11169476D02*
X6100088Y-10969476D01*
X6081041Y-10998048D01*
X6061993Y-11017095D01*
X6042946Y-11026619D01*
X6242946Y-11150429D02*
X6252469Y-11159952D01*
X6242946Y-11169476D01*
X6233422Y-11159952D01*
X6242946Y-11150429D01*
X6242946Y-11169476D01*
X6376279Y-10969476D02*
X6395326Y-10969476D01*
X6414374Y-10979000D01*
X6423898Y-10988524D01*
X6433422Y-11007571D01*
X6442946Y-11045667D01*
X6442946Y-11093286D01*
X6433422Y-11131381D01*
X6423898Y-11150429D01*
X6414374Y-11159952D01*
X6395326Y-11169476D01*
X6376279Y-11169476D01*
X6357231Y-11159952D01*
X6347707Y-11150429D01*
X6338184Y-11131381D01*
X6328660Y-11093286D01*
X6328660Y-11045667D01*
X6338184Y-11007571D01*
X6347707Y-10988524D01*
X6357231Y-10979000D01*
X6376279Y-10969476D01*
X6566755Y-10969476D02*
X6585803Y-10969476D01*
X6604850Y-10979000D01*
X6614374Y-10988524D01*
X6623898Y-11007571D01*
X6633422Y-11045667D01*
X6633422Y-11093286D01*
X6623898Y-11131381D01*
X6614374Y-11150429D01*
X6604850Y-11159952D01*
X6585803Y-11169476D01*
X6566755Y-11169476D01*
X6547707Y-11159952D01*
X6538184Y-11150429D01*
X6528660Y-11131381D01*
X6519136Y-11093286D01*
X6519136Y-11045667D01*
X6528660Y-11007571D01*
X6538184Y-10988524D01*
X6547707Y-10979000D01*
X6566755Y-10969476D01*
X6757231Y-10969476D02*
X6776279Y-10969476D01*
X6795326Y-10979000D01*
X6804850Y-10988524D01*
X6814374Y-11007571D01*
X6823898Y-11045667D01*
X6823898Y-11093286D01*
X6814374Y-11131381D01*
X6804850Y-11150429D01*
X6795326Y-11159952D01*
X6776279Y-11169476D01*
X6757231Y-11169476D01*
X6738184Y-11159952D01*
X6728660Y-11150429D01*
X6719136Y-11131381D01*
X6709612Y-11093286D01*
X6709612Y-11045667D01*
X6719136Y-11007571D01*
X6728660Y-10988524D01*
X6738184Y-10979000D01*
X6757231Y-10969476D01*
X6909612Y-11169476D02*
X6909612Y-11036143D01*
X6909612Y-11055190D02*
X6919136Y-11045667D01*
X6938184Y-11036143D01*
X6966755Y-11036143D01*
X6985803Y-11045667D01*
X6995326Y-11064714D01*
X6995326Y-11169476D01*
X6995326Y-11064714D02*
X7004850Y-11045667D01*
X7023898Y-11036143D01*
X7052469Y-11036143D01*
X7071517Y-11045667D01*
X7081041Y-11064714D01*
X7081041Y-11169476D01*
X7176279Y-11169476D02*
X7176279Y-11036143D01*
X7176279Y-11055190D02*
X7185803Y-11045667D01*
X7204850Y-11036143D01*
X7233422Y-11036143D01*
X7252469Y-11045667D01*
X7261993Y-11064714D01*
X7261993Y-11169476D01*
X7261993Y-11064714D02*
X7271517Y-11045667D01*
X7290565Y-11036143D01*
X7319136Y-11036143D01*
X7338184Y-11045667D01*
X7347707Y-11064714D01*
X7347707Y-11169476D01*
X7738184Y-10959952D02*
X7566755Y-11217095D01*
X7995326Y-10969476D02*
X8014374Y-10969476D01*
X8033422Y-10979000D01*
X8042946Y-10988524D01*
X8052469Y-11007571D01*
X8061993Y-11045667D01*
X8061993Y-11093286D01*
X8052469Y-11131381D01*
X8042946Y-11150429D01*
X8033422Y-11159952D01*
X8014374Y-11169476D01*
X7995326Y-11169476D01*
X7976279Y-11159952D01*
X7966755Y-11150429D01*
X7957231Y-11131381D01*
X7947707Y-11093286D01*
X7947707Y-11045667D01*
X7957231Y-11007571D01*
X7966755Y-10988524D01*
X7976279Y-10979000D01*
X7995326Y-10969476D01*
X8147707Y-11150429D02*
X8157231Y-11159952D01*
X8147707Y-11169476D01*
X8138184Y-11159952D01*
X8147707Y-11150429D01*
X8147707Y-11169476D01*
X8281041Y-10969476D02*
X8300088Y-10969476D01*
X8319136Y-10979000D01*
X8328660Y-10988524D01*
X8338184Y-11007571D01*
X8347707Y-11045667D01*
X8347707Y-11093286D01*
X8338184Y-11131381D01*
X8328660Y-11150429D01*
X8319136Y-11159952D01*
X8300088Y-11169476D01*
X8281041Y-11169476D01*
X8261993Y-11159952D01*
X8252469Y-11150429D01*
X8242946Y-11131381D01*
X8233422Y-11093286D01*
X8233422Y-11045667D01*
X8242946Y-11007571D01*
X8252469Y-10988524D01*
X8261993Y-10979000D01*
X8281041Y-10969476D01*
X8414374Y-10969476D02*
X8538184Y-10969476D01*
X8471517Y-11045667D01*
X8500088Y-11045667D01*
X8519136Y-11055190D01*
X8528660Y-11064714D01*
X8538184Y-11083762D01*
X8538184Y-11131381D01*
X8528660Y-11150429D01*
X8519136Y-11159952D01*
X8500088Y-11169476D01*
X8442946Y-11169476D01*
X8423898Y-11159952D01*
X8414374Y-11150429D01*
X8633422Y-11169476D02*
X8671517Y-11169476D01*
X8690565Y-11159952D01*
X8700088Y-11150429D01*
X8719136Y-11121857D01*
X8728660Y-11083762D01*
X8728660Y-11007571D01*
X8719136Y-10988524D01*
X8709612Y-10979000D01*
X8690565Y-10969476D01*
X8652469Y-10969476D01*
X8633422Y-10979000D01*
X8623898Y-10988524D01*
X8614374Y-11007571D01*
X8614374Y-11055190D01*
X8623898Y-11074238D01*
X8633422Y-11083762D01*
X8652469Y-11093286D01*
X8690565Y-11093286D01*
X8709612Y-11083762D01*
X8719136Y-11074238D01*
X8728660Y-11055190D01*
X8900088Y-11036143D02*
X8900088Y-11169476D01*
X8852469Y-10959952D02*
X8804850Y-11102810D01*
X8928660Y-11102810D01*
X8995327Y-10969476D02*
X8995327Y-11007571D01*
X9071517Y-10969476D02*
X9071517Y-11007571D01*
X9366755Y-11245667D02*
X9357231Y-11236143D01*
X9338184Y-11207571D01*
X9328660Y-11188524D01*
X9319136Y-11159952D01*
X9309612Y-11112333D01*
X9309612Y-11074238D01*
X9319136Y-11026619D01*
X9328660Y-10998048D01*
X9338184Y-10979000D01*
X9357231Y-10950429D01*
X9366755Y-10940905D01*
X9433422Y-10988524D02*
X9442946Y-10979000D01*
X9461993Y-10969476D01*
X9509612Y-10969476D01*
X9528660Y-10979000D01*
X9538184Y-10988524D01*
X9547708Y-11007571D01*
X9547708Y-11026619D01*
X9538184Y-11055190D01*
X9423898Y-11169476D01*
X9547708Y-11169476D01*
X9785803Y-11169476D02*
X9785803Y-10969476D01*
X9871517Y-11169476D02*
X9871517Y-11064714D01*
X9861993Y-11045667D01*
X9842946Y-11036143D01*
X9814374Y-11036143D01*
X9795327Y-11045667D01*
X9785803Y-11055190D01*
X9995327Y-11169476D02*
X9976279Y-11159952D01*
X9966755Y-11150429D01*
X9957231Y-11131381D01*
X9957231Y-11074238D01*
X9966755Y-11055190D01*
X9976279Y-11045667D01*
X9995327Y-11036143D01*
X10023898Y-11036143D01*
X10042946Y-11045667D01*
X10052469Y-11055190D01*
X10061993Y-11074238D01*
X10061993Y-11131381D01*
X10052469Y-11150429D01*
X10042946Y-11159952D01*
X10023898Y-11169476D01*
X9995327Y-11169476D01*
X10176279Y-11169476D02*
X10157231Y-11159952D01*
X10147708Y-11140905D01*
X10147708Y-10969476D01*
X10328660Y-11159952D02*
X10309612Y-11169476D01*
X10271517Y-11169476D01*
X10252469Y-11159952D01*
X10242946Y-11140905D01*
X10242946Y-11064714D01*
X10252469Y-11045667D01*
X10271517Y-11036143D01*
X10309612Y-11036143D01*
X10328660Y-11045667D01*
X10338184Y-11064714D01*
X10338184Y-11083762D01*
X10242946Y-11102810D01*
X10414374Y-11159952D02*
X10433422Y-11169476D01*
X10471517Y-11169476D01*
X10490565Y-11159952D01*
X10500088Y-11140905D01*
X10500088Y-11131381D01*
X10490565Y-11112333D01*
X10471517Y-11102810D01*
X10442946Y-11102810D01*
X10423898Y-11093286D01*
X10414374Y-11074238D01*
X10414374Y-11064714D01*
X10423898Y-11045667D01*
X10442946Y-11036143D01*
X10471517Y-11036143D01*
X10490565Y-11045667D01*
X10566755Y-11245667D02*
X10576279Y-11236143D01*
X10595327Y-11207571D01*
X10604850Y-11188524D01*
X10614374Y-11159952D01*
X10623898Y-11112333D01*
X10623898Y-11074238D01*
X10614374Y-11026619D01*
X10604850Y-10998048D01*
X10595327Y-10979000D01*
X10576279Y-10950429D01*
X10566755Y-10940905D01*
D18*
X5684850Y-11288000D02*
X5794850Y-11398000D01*
X5794850Y-11288000D02*
X5684850Y-11398000D01*
X5778742Y-11381891D02*
X5778742Y-11304109D01*
X5700959Y-11304109D01*
X5700959Y-11381891D01*
X5778742Y-11381891D01*
D11*
X6157231Y-11433476D02*
X6042946Y-11433476D01*
X6100088Y-11433476D02*
X6100088Y-11233476D01*
X6081041Y-11262048D01*
X6061993Y-11281095D01*
X6042946Y-11290619D01*
X6242946Y-11414428D02*
X6252469Y-11423952D01*
X6242946Y-11433476D01*
X6233422Y-11423952D01*
X6242946Y-11414428D01*
X6242946Y-11433476D01*
X6442946Y-11433476D02*
X6328660Y-11433476D01*
X6385803Y-11433476D02*
X6385803Y-11233476D01*
X6366755Y-11262048D01*
X6347707Y-11281095D01*
X6328660Y-11290619D01*
X6566755Y-11233476D02*
X6585803Y-11233476D01*
X6604850Y-11243000D01*
X6614374Y-11252524D01*
X6623898Y-11271571D01*
X6633422Y-11309667D01*
X6633422Y-11357286D01*
X6623898Y-11395381D01*
X6614374Y-11414428D01*
X6604850Y-11423952D01*
X6585803Y-11433476D01*
X6566755Y-11433476D01*
X6547707Y-11423952D01*
X6538184Y-11414428D01*
X6528660Y-11395381D01*
X6519136Y-11357286D01*
X6519136Y-11309667D01*
X6528660Y-11271571D01*
X6538184Y-11252524D01*
X6547707Y-11243000D01*
X6566755Y-11233476D01*
X6757231Y-11233476D02*
X6776279Y-11233476D01*
X6795326Y-11243000D01*
X6804850Y-11252524D01*
X6814374Y-11271571D01*
X6823898Y-11309667D01*
X6823898Y-11357286D01*
X6814374Y-11395381D01*
X6804850Y-11414428D01*
X6795326Y-11423952D01*
X6776279Y-11433476D01*
X6757231Y-11433476D01*
X6738184Y-11423952D01*
X6728660Y-11414428D01*
X6719136Y-11395381D01*
X6709612Y-11357286D01*
X6709612Y-11309667D01*
X6719136Y-11271571D01*
X6728660Y-11252524D01*
X6738184Y-11243000D01*
X6757231Y-11233476D01*
X6909612Y-11433476D02*
X6909612Y-11300143D01*
X6909612Y-11319190D02*
X6919136Y-11309667D01*
X6938184Y-11300143D01*
X6966755Y-11300143D01*
X6985803Y-11309667D01*
X6995326Y-11328714D01*
X6995326Y-11433476D01*
X6995326Y-11328714D02*
X7004850Y-11309667D01*
X7023898Y-11300143D01*
X7052469Y-11300143D01*
X7071517Y-11309667D01*
X7081041Y-11328714D01*
X7081041Y-11433476D01*
X7176279Y-11433476D02*
X7176279Y-11300143D01*
X7176279Y-11319190D02*
X7185803Y-11309667D01*
X7204850Y-11300143D01*
X7233422Y-11300143D01*
X7252469Y-11309667D01*
X7261993Y-11328714D01*
X7261993Y-11433476D01*
X7261993Y-11328714D02*
X7271517Y-11309667D01*
X7290565Y-11300143D01*
X7319136Y-11300143D01*
X7338184Y-11309667D01*
X7347707Y-11328714D01*
X7347707Y-11433476D01*
X7738184Y-11223952D02*
X7566755Y-11481095D01*
X7995326Y-11233476D02*
X8014374Y-11233476D01*
X8033422Y-11243000D01*
X8042946Y-11252524D01*
X8052469Y-11271571D01*
X8061993Y-11309667D01*
X8061993Y-11357286D01*
X8052469Y-11395381D01*
X8042946Y-11414428D01*
X8033422Y-11423952D01*
X8014374Y-11433476D01*
X7995326Y-11433476D01*
X7976279Y-11423952D01*
X7966755Y-11414428D01*
X7957231Y-11395381D01*
X7947707Y-11357286D01*
X7947707Y-11309667D01*
X7957231Y-11271571D01*
X7966755Y-11252524D01*
X7976279Y-11243000D01*
X7995326Y-11233476D01*
X8147707Y-11414428D02*
X8157231Y-11423952D01*
X8147707Y-11433476D01*
X8138184Y-11423952D01*
X8147707Y-11414428D01*
X8147707Y-11433476D01*
X8281041Y-11233476D02*
X8300088Y-11233476D01*
X8319136Y-11243000D01*
X8328660Y-11252524D01*
X8338184Y-11271571D01*
X8347707Y-11309667D01*
X8347707Y-11357286D01*
X8338184Y-11395381D01*
X8328660Y-11414428D01*
X8319136Y-11423952D01*
X8300088Y-11433476D01*
X8281041Y-11433476D01*
X8261993Y-11423952D01*
X8252469Y-11414428D01*
X8242946Y-11395381D01*
X8233422Y-11357286D01*
X8233422Y-11309667D01*
X8242946Y-11271571D01*
X8252469Y-11252524D01*
X8261993Y-11243000D01*
X8281041Y-11233476D01*
X8519136Y-11300143D02*
X8519136Y-11433476D01*
X8471517Y-11223952D02*
X8423898Y-11366809D01*
X8547708Y-11366809D01*
X8604850Y-11233476D02*
X8728660Y-11233476D01*
X8661993Y-11309667D01*
X8690565Y-11309667D01*
X8709612Y-11319190D01*
X8719136Y-11328714D01*
X8728660Y-11347762D01*
X8728660Y-11395381D01*
X8719136Y-11414428D01*
X8709612Y-11423952D01*
X8690565Y-11433476D01*
X8633422Y-11433476D01*
X8614374Y-11423952D01*
X8604850Y-11414428D01*
X8795327Y-11233476D02*
X8919136Y-11233476D01*
X8852469Y-11309667D01*
X8881041Y-11309667D01*
X8900088Y-11319190D01*
X8909612Y-11328714D01*
X8919136Y-11347762D01*
X8919136Y-11395381D01*
X8909612Y-11414428D01*
X8900088Y-11423952D01*
X8881041Y-11433476D01*
X8823898Y-11433476D01*
X8804850Y-11423952D01*
X8795327Y-11414428D01*
X8995327Y-11233476D02*
X8995327Y-11271571D01*
X9071517Y-11233476D02*
X9071517Y-11271571D01*
X9366755Y-11509667D02*
X9357231Y-11500143D01*
X9338184Y-11471571D01*
X9328660Y-11452524D01*
X9319136Y-11423952D01*
X9309612Y-11376333D01*
X9309612Y-11338238D01*
X9319136Y-11290619D01*
X9328660Y-11262048D01*
X9338184Y-11243000D01*
X9357231Y-11214428D01*
X9366755Y-11204905D01*
X9547708Y-11433476D02*
X9433422Y-11433476D01*
X9490565Y-11433476D02*
X9490565Y-11233476D01*
X9471517Y-11262048D01*
X9452469Y-11281095D01*
X9433422Y-11290619D01*
X9661993Y-11319190D02*
X9642946Y-11309667D01*
X9633422Y-11300143D01*
X9623898Y-11281095D01*
X9623898Y-11271571D01*
X9633422Y-11252524D01*
X9642946Y-11243000D01*
X9661993Y-11233476D01*
X9700088Y-11233476D01*
X9719136Y-11243000D01*
X9728660Y-11252524D01*
X9738184Y-11271571D01*
X9738184Y-11281095D01*
X9728660Y-11300143D01*
X9719136Y-11309667D01*
X9700088Y-11319190D01*
X9661993Y-11319190D01*
X9642946Y-11328714D01*
X9633422Y-11338238D01*
X9623898Y-11357286D01*
X9623898Y-11395381D01*
X9633422Y-11414428D01*
X9642946Y-11423952D01*
X9661993Y-11433476D01*
X9700088Y-11433476D01*
X9719136Y-11423952D01*
X9728660Y-11414428D01*
X9738184Y-11395381D01*
X9738184Y-11357286D01*
X9728660Y-11338238D01*
X9719136Y-11328714D01*
X9700088Y-11319190D01*
X9976279Y-11433476D02*
X9976279Y-11233476D01*
X10061993Y-11433476D02*
X10061993Y-11328714D01*
X10052469Y-11309667D01*
X10033422Y-11300143D01*
X10004850Y-11300143D01*
X9985803Y-11309667D01*
X9976279Y-11319190D01*
X10185803Y-11433476D02*
X10166755Y-11423952D01*
X10157231Y-11414428D01*
X10147708Y-11395381D01*
X10147708Y-11338238D01*
X10157231Y-11319190D01*
X10166755Y-11309667D01*
X10185803Y-11300143D01*
X10214374Y-11300143D01*
X10233422Y-11309667D01*
X10242946Y-11319190D01*
X10252469Y-11338238D01*
X10252469Y-11395381D01*
X10242946Y-11414428D01*
X10233422Y-11423952D01*
X10214374Y-11433476D01*
X10185803Y-11433476D01*
X10366755Y-11433476D02*
X10347708Y-11423952D01*
X10338184Y-11404905D01*
X10338184Y-11233476D01*
X10519136Y-11423952D02*
X10500088Y-11433476D01*
X10461993Y-11433476D01*
X10442946Y-11423952D01*
X10433422Y-11404905D01*
X10433422Y-11328714D01*
X10442946Y-11309667D01*
X10461993Y-11300143D01*
X10500088Y-11300143D01*
X10519136Y-11309667D01*
X10528660Y-11328714D01*
X10528660Y-11347762D01*
X10433422Y-11366809D01*
X10604850Y-11423952D02*
X10623898Y-11433476D01*
X10661993Y-11433476D01*
X10681041Y-11423952D01*
X10690565Y-11404905D01*
X10690565Y-11395381D01*
X10681041Y-11376333D01*
X10661993Y-11366809D01*
X10633422Y-11366809D01*
X10614374Y-11357286D01*
X10604850Y-11338238D01*
X10604850Y-11328714D01*
X10614374Y-11309667D01*
X10633422Y-11300143D01*
X10661993Y-11300143D01*
X10681041Y-11309667D01*
X10757231Y-11509667D02*
X10766755Y-11500143D01*
X10785803Y-11471571D01*
X10795327Y-11452524D01*
X10804850Y-11423952D01*
X10814374Y-11376333D01*
X10814374Y-11338238D01*
X10804850Y-11290619D01*
X10795327Y-11262048D01*
X10785803Y-11243000D01*
X10766755Y-11214428D01*
X10757231Y-11204905D01*
X5594850Y-11507000D02*
X5794850Y-11707000D01*
X5794850Y-11507000D02*
X5594850Y-11707000D01*
X5694850Y-11707000D02*
X5794850Y-11607000D01*
X5694850Y-11507000D01*
X5594850Y-11607000D01*
X5694850Y-11707000D01*
X6042946Y-11516524D02*
X6052469Y-11507000D01*
X6071517Y-11497476D01*
X6119136Y-11497476D01*
X6138184Y-11507000D01*
X6147707Y-11516524D01*
X6157231Y-11535571D01*
X6157231Y-11554619D01*
X6147707Y-11583190D01*
X6033422Y-11697476D01*
X6157231Y-11697476D01*
X6242946Y-11678428D02*
X6252469Y-11687952D01*
X6242946Y-11697476D01*
X6233422Y-11687952D01*
X6242946Y-11678428D01*
X6242946Y-11697476D01*
X6442946Y-11697476D02*
X6328660Y-11697476D01*
X6385803Y-11697476D02*
X6385803Y-11497476D01*
X6366755Y-11526048D01*
X6347707Y-11545095D01*
X6328660Y-11554619D01*
X6566755Y-11497476D02*
X6585803Y-11497476D01*
X6604850Y-11507000D01*
X6614374Y-11516524D01*
X6623898Y-11535571D01*
X6633422Y-11573667D01*
X6633422Y-11621286D01*
X6623898Y-11659381D01*
X6614374Y-11678428D01*
X6604850Y-11687952D01*
X6585803Y-11697476D01*
X6566755Y-11697476D01*
X6547707Y-11687952D01*
X6538184Y-11678428D01*
X6528660Y-11659381D01*
X6519136Y-11621286D01*
X6519136Y-11573667D01*
X6528660Y-11535571D01*
X6538184Y-11516524D01*
X6547707Y-11507000D01*
X6566755Y-11497476D01*
X6757231Y-11497476D02*
X6776279Y-11497476D01*
X6795326Y-11507000D01*
X6804850Y-11516524D01*
X6814374Y-11535571D01*
X6823898Y-11573667D01*
X6823898Y-11621286D01*
X6814374Y-11659381D01*
X6804850Y-11678428D01*
X6795326Y-11687952D01*
X6776279Y-11697476D01*
X6757231Y-11697476D01*
X6738184Y-11687952D01*
X6728660Y-11678428D01*
X6719136Y-11659381D01*
X6709612Y-11621286D01*
X6709612Y-11573667D01*
X6719136Y-11535571D01*
X6728660Y-11516524D01*
X6738184Y-11507000D01*
X6757231Y-11497476D01*
X6909612Y-11697476D02*
X6909612Y-11564143D01*
X6909612Y-11583190D02*
X6919136Y-11573667D01*
X6938184Y-11564143D01*
X6966755Y-11564143D01*
X6985803Y-11573667D01*
X6995326Y-11592714D01*
X6995326Y-11697476D01*
X6995326Y-11592714D02*
X7004850Y-11573667D01*
X7023898Y-11564143D01*
X7052469Y-11564143D01*
X7071517Y-11573667D01*
X7081041Y-11592714D01*
X7081041Y-11697476D01*
X7176279Y-11697476D02*
X7176279Y-11564143D01*
X7176279Y-11583190D02*
X7185803Y-11573667D01*
X7204850Y-11564143D01*
X7233422Y-11564143D01*
X7252469Y-11573667D01*
X7261993Y-11592714D01*
X7261993Y-11697476D01*
X7261993Y-11592714D02*
X7271517Y-11573667D01*
X7290565Y-11564143D01*
X7319136Y-11564143D01*
X7338184Y-11573667D01*
X7347707Y-11592714D01*
X7347707Y-11697476D01*
X7738184Y-11487952D02*
X7566755Y-11745095D01*
X7995326Y-11497476D02*
X8014374Y-11497476D01*
X8033422Y-11507000D01*
X8042946Y-11516524D01*
X8052469Y-11535571D01*
X8061993Y-11573667D01*
X8061993Y-11621286D01*
X8052469Y-11659381D01*
X8042946Y-11678428D01*
X8033422Y-11687952D01*
X8014374Y-11697476D01*
X7995326Y-11697476D01*
X7976279Y-11687952D01*
X7966755Y-11678428D01*
X7957231Y-11659381D01*
X7947707Y-11621286D01*
X7947707Y-11573667D01*
X7957231Y-11535571D01*
X7966755Y-11516524D01*
X7976279Y-11507000D01*
X7995326Y-11497476D01*
X8147707Y-11678428D02*
X8157231Y-11687952D01*
X8147707Y-11697476D01*
X8138184Y-11687952D01*
X8147707Y-11678428D01*
X8147707Y-11697476D01*
X8281041Y-11497476D02*
X8300088Y-11497476D01*
X8319136Y-11507000D01*
X8328660Y-11516524D01*
X8338184Y-11535571D01*
X8347707Y-11573667D01*
X8347707Y-11621286D01*
X8338184Y-11659381D01*
X8328660Y-11678428D01*
X8319136Y-11687952D01*
X8300088Y-11697476D01*
X8281041Y-11697476D01*
X8261993Y-11687952D01*
X8252469Y-11678428D01*
X8242946Y-11659381D01*
X8233422Y-11621286D01*
X8233422Y-11573667D01*
X8242946Y-11535571D01*
X8252469Y-11516524D01*
X8261993Y-11507000D01*
X8281041Y-11497476D01*
X8461993Y-11583190D02*
X8442946Y-11573667D01*
X8433422Y-11564143D01*
X8423898Y-11545095D01*
X8423898Y-11535571D01*
X8433422Y-11516524D01*
X8442946Y-11507000D01*
X8461993Y-11497476D01*
X8500088Y-11497476D01*
X8519136Y-11507000D01*
X8528660Y-11516524D01*
X8538184Y-11535571D01*
X8538184Y-11545095D01*
X8528660Y-11564143D01*
X8519136Y-11573667D01*
X8500088Y-11583190D01*
X8461993Y-11583190D01*
X8442946Y-11592714D01*
X8433422Y-11602238D01*
X8423898Y-11621286D01*
X8423898Y-11659381D01*
X8433422Y-11678428D01*
X8442946Y-11687952D01*
X8461993Y-11697476D01*
X8500088Y-11697476D01*
X8519136Y-11687952D01*
X8528660Y-11678428D01*
X8538184Y-11659381D01*
X8538184Y-11621286D01*
X8528660Y-11602238D01*
X8519136Y-11592714D01*
X8500088Y-11583190D01*
X8614374Y-11516524D02*
X8623898Y-11507000D01*
X8642946Y-11497476D01*
X8690565Y-11497476D01*
X8709612Y-11507000D01*
X8719136Y-11516524D01*
X8728660Y-11535571D01*
X8728660Y-11554619D01*
X8719136Y-11583190D01*
X8604850Y-11697476D01*
X8728660Y-11697476D01*
X8795327Y-11497476D02*
X8928660Y-11497476D01*
X8842946Y-11697476D01*
X8995327Y-11497476D02*
X8995327Y-11535571D01*
X9071517Y-11497476D02*
X9071517Y-11535571D01*
X9366755Y-11773667D02*
X9357231Y-11764143D01*
X9338184Y-11735571D01*
X9328660Y-11716524D01*
X9319136Y-11687952D01*
X9309612Y-11640333D01*
X9309612Y-11602238D01*
X9319136Y-11554619D01*
X9328660Y-11526048D01*
X9338184Y-11507000D01*
X9357231Y-11478428D01*
X9366755Y-11468905D01*
X9538184Y-11497476D02*
X9442946Y-11497476D01*
X9433422Y-11592714D01*
X9442946Y-11583190D01*
X9461993Y-11573667D01*
X9509612Y-11573667D01*
X9528660Y-11583190D01*
X9538184Y-11592714D01*
X9547708Y-11611762D01*
X9547708Y-11659381D01*
X9538184Y-11678428D01*
X9528660Y-11687952D01*
X9509612Y-11697476D01*
X9461993Y-11697476D01*
X9442946Y-11687952D01*
X9433422Y-11678428D01*
X9785803Y-11697476D02*
X9785803Y-11497476D01*
X9871517Y-11697476D02*
X9871517Y-11592714D01*
X9861993Y-11573667D01*
X9842946Y-11564143D01*
X9814374Y-11564143D01*
X9795327Y-11573667D01*
X9785803Y-11583190D01*
X9995327Y-11697476D02*
X9976279Y-11687952D01*
X9966755Y-11678428D01*
X9957231Y-11659381D01*
X9957231Y-11602238D01*
X9966755Y-11583190D01*
X9976279Y-11573667D01*
X9995327Y-11564143D01*
X10023898Y-11564143D01*
X10042946Y-11573667D01*
X10052469Y-11583190D01*
X10061993Y-11602238D01*
X10061993Y-11659381D01*
X10052469Y-11678428D01*
X10042946Y-11687952D01*
X10023898Y-11697476D01*
X9995327Y-11697476D01*
X10176279Y-11697476D02*
X10157231Y-11687952D01*
X10147708Y-11668905D01*
X10147708Y-11497476D01*
X10328660Y-11687952D02*
X10309612Y-11697476D01*
X10271517Y-11697476D01*
X10252469Y-11687952D01*
X10242946Y-11668905D01*
X10242946Y-11592714D01*
X10252469Y-11573667D01*
X10271517Y-11564143D01*
X10309612Y-11564143D01*
X10328660Y-11573667D01*
X10338184Y-11592714D01*
X10338184Y-11611762D01*
X10242946Y-11630809D01*
X10414374Y-11687952D02*
X10433422Y-11697476D01*
X10471517Y-11697476D01*
X10490565Y-11687952D01*
X10500088Y-11668905D01*
X10500088Y-11659381D01*
X10490565Y-11640333D01*
X10471517Y-11630809D01*
X10442946Y-11630809D01*
X10423898Y-11621286D01*
X10414374Y-11602238D01*
X10414374Y-11592714D01*
X10423898Y-11573667D01*
X10442946Y-11564143D01*
X10471517Y-11564143D01*
X10490565Y-11573667D01*
X10566755Y-11773667D02*
X10576279Y-11764143D01*
X10595327Y-11735571D01*
X10604850Y-11716524D01*
X10614374Y-11687952D01*
X10623898Y-11640333D01*
X10623898Y-11602238D01*
X10614374Y-11554619D01*
X10604850Y-11526048D01*
X10595327Y-11507000D01*
X10576279Y-11478428D01*
X10566755Y-11468905D01*
M02*
